<?xml version="1.0" standalone="no"?>
<!DOCTYPE svg PUBLIC "-//W3C//DTD SVG 1.1//EN" "http://www.w3.org/Graphics/SVG/1.1/DTD/svg11.dtd" >
<svg xmlns="http://www.w3.org/2000/svg" xmlns:xlink="http://www.w3.org/1999/xlink" version="1.1">
<metadata>
Created by FontForge 20170731 at Wed Feb  7 09:49:24 2018
 By Aleksey,,,
Copyright (c) 2017 by Konstantine Studio. All rights reserved.
</metadata>
<defs>
<font id="OhSamantha" horiz-adv-x="367" >
  <font-face 
    font-family="Oh Samantha"
    font-weight="400"
    font-stretch="normal"
    units-per-em="1000"
    panose-1="0 0 0 0 0 0 0 0 0 0"
    ascent="800"
    descent="-200"
    x-height="339.5"
    cap-height="856.5"
    bbox="-477 -441.894 1741 938"
    underline-thickness="50"
    underline-position="-150"
    unicode-range="U+000D-007E"
  />
<missing-glyph 
 />
    <glyph glyph-name=".notdef" 
 />
    <glyph glyph-name=".null" horiz-adv-x="0" 
 />
    <glyph glyph-name="nonmarkingreturn" unicode="&#xd;" 
 />
    <glyph glyph-name="NULL" horiz-adv-x="0" 
 />
    <glyph glyph-name="NULL" horiz-adv-x="0" 
 />
    <glyph glyph-name="space" unicode=" " 
 />
    <glyph glyph-name="exclam" unicode="!" horiz-adv-x="371" 
d="M55 77h-4q-3 0 -3 3q0 2 2 10q3 11 9 20.5t11 19.5q5 8 9 16.5t9 16.5q8 14 16 27.5t15 27.5q4 7 7.5 13.5t7.5 14.5l16 28l16 28t16 28.5t16 29.5q5 8 10 16.5t10 16.5q9 15 18.5 30.5t19.5 30.5q8 11 15.5 22.5t15.5 22.5l6 10l6 10q6 9 10.5 18.5t11.5 18.5q9 10 21 7
q5 -2 3 -7q0 -6 -3 -10q-5 -11 -9.5 -20t-10.5 -18q-14 -20 -26.5 -40.5t-25.5 -40.5q-12 -20 -23.5 -39t-23.5 -39q-11 -18 -21.5 -35.5t-21.5 -35.5q-5 -9 -10 -17.5t-10 -17.5q-9 -17 -18.5 -33t-18.5 -33q-8 -14 -15 -27t-14 -27q-5 -10 -10.5 -19.5t-11.5 -18.5
q-4 -5 -6.5 -6.5t-10.5 -1.5zM50 39q0 -6 -6 -8q-8 -4 -16 1q-3 3 -2 5l7.5 7.5t9.5 2.5q7 -1 7 -8z" />
    <glyph glyph-name="quotedbl" unicode="&#x22;" horiz-adv-x="151" 
d="M83 631q0 -2 -1 -3.5t-2 -3.5q-7 -11 -14.5 -21.5t-15.5 -21.5q-4 -4 -11 -5t-11 2q-3 2 -1 5q10 24 27 45q5 7 11.5 8t13.5 0q2 -1 4 -5zM116 631q6 0 9 -4q1 -1 1 -3t-2 -2q-7 -11 -14 -21.5t-16 -20.5q-4 -4 -7.5 -4.5t-8.5 -2.5q-2 -2 -4 -0.5t-4 3.5q-3 3 0 6
q7 11 13.5 22t16.5 20q4 4 7.5 4.5t8.5 2.5z" />
    <glyph glyph-name="numbersign" unicode="#" horiz-adv-x="432" 
d="M131 222h21q7 -1 9 6q6 12 13 28q9 17 17.5 34.5t17.5 34.5q14 28 29 55q8 14 15.5 27t15.5 27q5 9 17 11q5 0 11 -4q4 -2 2 -8l-6 -12q-6 -11 -12 -21.5t-12 -21.5q-7 -11 -12.5 -21.5t-10.5 -21.5q-5 -10 -10.5 -19t-8.5 -20q-7 -8 -10.5 -18t-8.5 -18q-9 -17 -17 -34
q-1 -4 2 -4q10 1 19.5 -1t20.5 -1h27q3 0 5 3q6 12 12.5 24t13.5 24q11 20 21.5 40t22.5 40q8 14 16 28.5t18 27.5q3 4 5.5 8t5.5 7q5 5 11.5 5.5t11.5 -1.5q4 -1 4 -5q0 -6 -3 -10l-10 -18l-10 -18q-4 -6 -7.5 -12.5t-7.5 -12.5l-21 -39q-9 -17 -18 -33.5t-19 -32.5
q-5 -8 -10 -19q-3 -4 2 -4h22q5 0 8 -1q2 -2 4 -2t1 -2q0 -3 -2.5 -3t-4.5 -1q-8 -2 -17.5 -2h-17.5q-3 0 -6 -4q-6 -11 -12.5 -23t-13.5 -24l-12 -21q-1 -4 3 -4q6 -1 12 -0.5t12 -0.5h7q6 0 9 -4q2 -5 -9 -5h-36q-5 1 -8 -5q-8 -16 -16 -31.5t-16 -30.5q-11 -21 -21.5 -42
t-21.5 -41q-4 -8 -8.5 -14t-8.5 -14q-5 -7 -18 -5q-1 0 -2.5 1t-3.5 1q-5 2 -2 8q4 11 8.5 22t11.5 22l9 18q8 15 15 30t15 29l27 48q2 4 -3 4q-14 1 -29 2t-29 1q-8 0 -12 -7q-11 -25 -23.5 -49t-24.5 -49q-5 -11 -10.5 -23t-11.5 -23q-3 -8 -7 -14.5t-8 -13.5
q-7 -13 -21 -9q-8 2 -5 10q3 5 5 9.5t4 9.5q13 30 27.5 58.5t28.5 57.5l18 39q3 4 -3 4h-11q-4 0 -6 1t-4 1.5t-2 2.5q1 2 2.5 2.5t3.5 1.5q6 2 12 2h12q4 0 5 2q8 17 17 34.5t17 34.5q1 3 -2 3q-4 0 -7.5 0.5t-6.5 -0.5q-8 -1 -14.5 0.5t-13.5 1.5q-2 0 -4 2q-1 1 -1 3
q-1 2 2 2h26zM207 137h5q6 -1 9 5q8 14 15 27t14 27q4 7 7 14q-3 2 -6.5 1t-7.5 0q-6 2 -9 2h-45q-6 0 -7 -5l-10 -20t-11 -20q-4 -6 -6.5 -12t-5.5 -12q-3 -5 3 -5h27.5t27.5 -2z" />
    <glyph glyph-name="dollar" unicode="$" horiz-adv-x="356" 
d="M37 56q-1 -4 -1.5 -8t-1.5 -9q-1 -9 0 -19q0 -1 0.5 -1.5t0.5 -1.5q0 -11 6 -19t14 -15q1 -3 3 0q3 5 6 11t6 11q13 24 26 46l7.5 15t8.5 15q9 17 18 34.5t20 34.5q7 11 6 22q-1 5 0.5 9.5t1.5 9.5v9t2 9v4q-1 8 0 14.5t2 14.5q2 11 4.5 21t5.5 20q5 19 13 34
q5 9 10 17.5t12 15.5q15 15 36 24q7 2 13.5 3.5t14.5 3.5q6 2 11 -1q5 -2 10 3q3 5 6.5 10.5t7.5 10.5q2 3 4.5 6t4.5 6q2 6 10 6q2 -1 3 -0.5t2 -1.5t-0.5 -3t-1.5 -2l-12 -16t-11 -16l-3 -3q-2 -5 2 -7q17 -11 17 -33q0 -11 -6 -21q-1 -2 -5 -6q-2 -2 -3.5 -1t-3.5 2
t-0.5 1.5t1.5 2.5q4 10 5 15q2 6 0 12t-4 11q-2 3 -4 5.5t-4 5.5q0 4 -3 0q-10 -14 -18.5 -28t-17.5 -28q-11 -18 -21 -36.5t-21 -37.5q-8 -12 -14.5 -24.5t-14.5 -25.5q-2 -4 -2 -7q1 -14 -0.5 -27.5t-1.5 -27.5q-1 -8 -1 -16t-1 -16q-1 -6 -1 -11.5t-1 -10.5
q-2 -14 -4.5 -27t-7.5 -27q-2 -5 -5 -9.5t-7 -8.5q-7 -8 -15 -14.5t-17 -11.5q-14 -9 -28 -9q-2 0 -4.5 -1t-4.5 -1q-5 0 -9.5 1t-9.5 2q-3 2 -4 1.5t-3 -4.5q-5 -8 -9.5 -16t-9.5 -16q-2 -3 -8 -9q-1 -1 -4 0t-2 5q5 9 10 18.5t11 18.5l3 6q1 3 -1 5q-21 16 -24 38
q-1 8 -1 16.5t2 16.5q1 3 1.5 6.5t2.5 6.5t4 2q2 0 2 -4zM189 218q1 0 1 1q5 7 8.5 13.5t7.5 13.5q9 14 17.5 28.5t17.5 28.5q9 16 18.5 31t19.5 30q1 3 5 9h-11h-3q-11 -3 -21 -8.5t-18 -13.5q-18 -18 -27 -44q-7 -23 -12 -50q-2 -10 -3 -19.5t0 -19.5q-1 0 -1 -0.5
t-1 -0.5q0 -1 1 -1q0 1 1 2zM154 119v6q0 2 -1 2t-1 -2l-21 -36q-6 -11 -13 -23q-5 -8 -9 -16t-9 -16t-10 -16.5t-10 -17.5q-3 -5 -6.5 -11t-6.5 -12q-2 -4 1 -4q5 -2 11 -3t12 1q10 3 18 9q17 8 27 27q8 13 10 26.5t4 27.5q1 5 1 10.5t1 10.5q1 10 0.5 19t1.5 18z" />
    <glyph glyph-name="percent" unicode="%" horiz-adv-x="407" 
d="M382 413q0 -2 -2 -4q-7 -9 -13.5 -18t-14.5 -18l-32 -40t-31 -40q-13 -17 -25.5 -34t-25.5 -34q-11 -13 -20 -26t-18 -27q-20 -26 -38 -52.5t-35 -53.5q-13 -19 -25.5 -38t-24.5 -39q-3 -5 -6.5 -10.5t-6.5 -10.5q-2 -6 -6 -10.5t-9 -8.5q-9 -7 -17 -3q-6 2 -6.5 3t1.5 6
q4 10 10 18.5t12 16.5q17 28 35 55t36 55q17 25 33.5 49.5t34.5 48.5l45 60q8 11 16.5 22t16.5 22t16.5 22.5t17.5 22.5t18.5 22.5t18.5 23.5q5 6 10.5 11.5t10.5 11.5q5 5 10.5 5t10.5 -3q3 -3 3 -5zM128 283q-6 -2 -9.5 1.5t-6.5 7.5q-4 5 -3 9.5t3 9.5q1 2 6 5t7 1
q4 -1 11 -1q12 -2 14 -12q3 -19 -17 -21h-5zM248 23q-6 -2 -9.5 1.5t-6.5 7.5q-4 5 -3 9.5t3 9.5q1 2 6 5t7 1q4 -1 11 -1q12 -2 14 -12q3 -19 -17 -21h-5z" />
    <glyph glyph-name="ampersand" unicode="&#x26;" horiz-adv-x="451" 
d="M422 204q5 -9 3 -20q0 -16 -9 -28q-11 -16 -25 -27q-27 -20 -63 -31q-7 -1 -9 -9q0 -4 -0.5 -7t-1.5 -7q0 -5 -1.5 -9t-3.5 -8q-17 -33 -40 -57l-6 -4t-5 -6q-8 -5 -15 -11t-15 -11q-9 -5 -18.5 -9t-19.5 -9q-1 0 -1.5 -0.5t-1.5 -0.5q-4 0 -2 -4q3 -6 1 -15q0 -5 -1 -9
t-3 -9t-3.5 -9t-4.5 -9q-7 -12 -16 -22t-23 -15q-13 -7 -25 -4q-1 1 -3 1q-4 2 -4 5q0 4 4 5q14 5 28 15q8 6 14.5 14t11.5 17q4 5 6.5 10.5t4.5 10.5q2 4 1.5 7t-0.5 6q0 1 -2 1q-6 -2 -12 -3l-12 -2q-7 0 -13 -0.5t-13 -0.5h-9.5t-9.5 1q-17 3 -32 12q-35 19 -45 55
q-2 5 -2 15q-1 12 2 24q2 17 8.5 30.5t14.5 26.5t18 23.5t21 20.5t22 19.5t23 17.5l12 9q1 1 1 4q-3 9 -4 18.5t-1 19.5q-2 9 0 20q1 3 1 9q-2 6 2 13l3 9q2 9 5 18l6 18q7 17 16.5 33t20.5 31q5 7 10.5 13t12.5 11q6 6 14 11q13 8 26.5 14t29.5 8q5 1 14 -1t14 -4
q8 -3 13.5 -8.5t11.5 -10.5q4 -4 2 -10q-2 -8 -2 -15.5t-5 -15.5q-1 -2 -1 -5q-6 -28 -21 -50q-10 -14 -21 -27t-22 -25q-10 -11 -20 -21.5t-21 -20.5q-6 -6 -12.5 -11t-12.5 -11q-14 -12 -29 -22.5t-29 -21.5q-16 -13 -31.5 -26t-29.5 -29q-17 -19 -27 -40q-5 -11 -8 -20
q-2 -5 -2.5 -9.5t-1.5 -9.5q-4 -17 2 -34q9 -26 32 -39q13 -10 27 -10q28 -3 57 3q14 3 26.5 8t25.5 11q18 10 33 24q7 6 13 12t11 14q7 9 12.5 18.5t9.5 20.5q2 4 3.5 8.5t2.5 9.5q0 4 1 7t3 7q1 4 -3 4q-23 -4 -46 -8.5t-46 -12.5q-11 -3 -21 -8t-20 -11q-7 -5 -13.5 -9.5
t-12.5 -10.5q-5 -5 -9 -11t-7 -14q-2 -5 -3.5 -9.5t0.5 -9.5q0 -1 -1 -1q-4 -2 -7 0.5t-3 6.5q1 5 2.5 9t3.5 9q10 19 24.5 33t32.5 25q17 9 33.5 15t34.5 11q10 3 20 5t21 4q35 6 70 21q24 12 42 30q5 5 8.5 10.5t6.5 12.5q2 4 1.5 8t-1.5 8q-3 19 -18 26q-2 0 -1 1l2 2
q2 0 3 -1q12 -6 21 -21zM158 269q-2 -3 -1 -6.5t0 -7.5q-2 -11 -1.5 -21.5t2.5 -21.5v-4t2 -3t3 0.5t3 2.5l2 2l18 16t19 16q7 6 13.5 12.5l12.5 12.5q12 12 23.5 24.5t22.5 25.5q16 18 26 36q5 8 8 16l6 16q3 6 5 12t0 13q-2 5 -1.5 9.5t-4.5 9.5l-4 4l-4 4t-7 2h-10
t-10 -2q-13 -5 -25 -11.5t-23 -16.5q-27 -27 -44 -57q-12 -22 -22 -51q-4 -10 -5 -15q0 -5 -2.5 -8.5t-1.5 -8.5z" />
    <glyph glyph-name="quotesingle" unicode="'" horiz-adv-x="108" 
d="M83 631q0 -2 -1 -3.5t-2 -3.5q-7 -11 -14.5 -21.5t-15.5 -21.5q-4 -4 -11 -5t-11 2q-3 2 -1 5q10 24 27 45q5 7 11.5 8t13.5 0q2 -1 4 -5z" />
    <glyph glyph-name="parenleft" unicode="(" horiz-adv-x="395" 
d="M26 13q2 9 1 18t1 18q2 11 3.5 22t3.5 22t4.5 22.5t5.5 22.5q3 14 7.5 27.5t9.5 27.5q7 20 16 39.5t19 39.5q7 12 14.5 24.5t15.5 23.5q7 9 13 18t13 17l30 36q36 42 77 80q17 17 35.5 30.5t38.5 26.5q4 3 8.5 5t9.5 4q3 2 6.5 1.5t7.5 -0.5q3 0 3 -3q1 -2 -1 -4
q-2 -1 -4 -3q-14 -9 -27 -19t-26 -21q-19 -14 -35.5 -31t-32.5 -34q-9 -9 -17 -18.5t-16 -18.5t-15 -18.5t-15 -18.5q-21 -26 -37 -53q-8 -13 -15.5 -25.5t-13.5 -25.5q-11 -20 -19 -41.5t-15 -43.5q-10 -31 -14 -59q-2 -9 -3.5 -17.5t-2.5 -16.5q-2 -9 -2 -17.5t-2 -17.5
q-2 -11 -2 -20.5t1 -20.5q1 -15 2.5 -29.5t6.5 -28.5q4 -9 7.5 -17.5t10.5 -16.5q0 -1 0.5 -1t0.5 -1q2 -4 -1 -4q-9 -2 -15 4q-5 5 -8.5 10t-7.5 10q-2 4 -4.5 8t-4.5 9q-10 17 -13 38q-1 6 -1.5 11.5t0.5 10.5q0 5 -1.5 9.5t-0.5 9.5z" />
    <glyph glyph-name="parenright" unicode=")" horiz-adv-x="395" 
d="M369 417q-2 -9 -1 -18t-1 -18q-2 -11 -3.5 -22t-3.5 -22t-4.5 -22.5t-5.5 -22.5q-3 -14 -7.5 -27.5t-9.5 -27.5q-7 -20 -16 -39.5t-19 -39.5q-7 -12 -14.5 -24.5t-15.5 -23.5q-7 -9 -13 -18t-13 -17l-30 -36q-36 -42 -77 -80q-17 -17 -35.5 -30.5t-38.5 -26.5
q-4 -3 -8.5 -5t-9.5 -4q-3 -2 -6.5 -1.5t-7.5 0.5q-3 0 -3 3q-1 2 1 4q2 1 4 3q14 9 27 19t26 21q19 14 35.5 31t32.5 34q9 9 17 18.5t16 18.5t15 18.5t15 18.5q21 26 37 53q8 13 15.5 25.5t13.5 25.5q11 20 19 41.5t15 43.5q10 31 14 59q2 9 3.5 17.5t2.5 16.5q2 9 2 17.5
t2 17.5q2 11 2 20.5t-1 20.5q-1 15 -2.5 29.5t-6.5 28.5q-4 9 -7.5 17.5t-10.5 16.5q0 1 -0.5 1t-0.5 1q-2 4 1 4q9 2 15 -4q5 -5 8.5 -10t7.5 -10q2 -4 4.5 -8t4.5 -9q10 -17 13 -38q1 -6 1.5 -11.5t-0.5 -10.5q0 -5 1.5 -9.5t0.5 -9.5z" />
    <glyph glyph-name="asterisk" unicode="*" horiz-adv-x="160" 
d="M111 463q-4 0 -7.5 0.5t-6.5 -0.5q-3 0 -5 1t-4 1q-5 -1 -3 -5q4 -11 8.5 -20.5t9.5 -20.5q0 -1 0.5 -1.5t-0.5 -2.5q-1 -1 -5 -1l-3.5 3.5t-2.5 3.5q-8 13 -15 30q0 1 -1 1q0 5 -2 1l-13 -13q-4 -4 -8 -7.5t-8 -8.5q-2 -2 -8 -4q-3 -2 -5.5 -1t-4.5 2q-2 0 -2 1.5t2 3.5
q1 1 1 2q5 5 10.5 11t10.5 12l6 6t5 7q2 2 -1 2q-2 0 -5 0.5t-6 -0.5q-4 0 -7 1t-6 1q-2 0 -2 1q-3 0 -3 3q1 1 4 1h29q3 0 1 3q-3 8 -6.5 14.5t-7.5 13.5l-1 2q-2 5 -1 6t4 1t4 -1q2 -2 2.5 -3t2.5 -3q3 -5 6.5 -11t6.5 -12q1 -4 5 0l30 30q3 2 5.5 4t6.5 3q5 1 11 -2
q4 -3 0 -7q-3 -3 -11 -9q-7 -7 -13 -13.5t-13 -13.5q-3 0 -1 -2q0 -1 2 -1q3 -2 6.5 -2h6.5q4 1 7.5 -0.5t7.5 -0.5q1 0 1 -1q5 0 4 -3q0 -2 -4 -2h-14z" />
    <glyph glyph-name="plus" unicode="+" horiz-adv-x="159" 
d="M88 236v-15q0 -2 -1 -5t0 -6q0 -4 5 -4q2 0 3 1t3 1h22q3 1 5.5 0t4.5 -1q3 0 3 -2q1 -2 -0.5 -2t-2.5 -1t-4 -1h-14q-6 0 -12 -1.5t-12 -0.5q-2 0 -2 -3q0 -5 -0.5 -11t-1.5 -12q0 -11 -3 -23q-1 -4 -1 -7.5t-2 -7.5q0 -3 -1 -3q-4 -2 -5 -2q-2 1 -3 1t-3 1q-5 2 -5 6
q0 3 -0.5 6t1.5 5v3q0 7 -0.5 13.5t1.5 13.5q0 4 -0.5 7.5t1.5 7.5q0 5 -3 2q-3 -1 -7 -1q-5 1 -9 -0.5t-8 -1.5q-5 0 -7 1q-5 2 -5 3t5 3q3 1 6 1t6 1q5 0 9 1t9 1q4 0 5 4v1q-1 8 0.5 15t0.5 14q-1 5 0 8.5t1 7.5t4 6q6 2 11 0q5 -3 5 -8q0 -4 0.5 -7.5t0.5 -8.5z" />
    <glyph glyph-name="comma" unicode="," horiz-adv-x="90" 
d="M42 31q5 1 9 -2t9 -5q6 -3 4 -12q-2 -10 -8 -17t-14 -12l-4 -2t-4 0q-5 2 -5.5 3.5t1.5 6.5q1 2 1.5 2.5t1.5 2.5q2 6 2 8q0 1 -5 4q-6 5 -4 13q1 3 5 6.5t7 3.5h4z" />
    <glyph glyph-name="hyphen" unicode="-" horiz-adv-x="151" 
d="M93 202q8 -1 14 -1.5t12 -0.5q1 -1 2 -0.5t3 -0.5q2 -2 2 -4t-2 -4l-4 -2t-4 0h-3q-8 2 -16.5 1t-16.5 -1q-7 0 -13 1t-13 -1q-5 -2 -11 -1t-11 1h-4q-3 0 -2 4q0 4 2 5q3 2 5.5 3t5.5 1q6 -1 11.5 -0.5t11.5 1.5q8 1 16.5 0t14.5 -1z" />
    <glyph glyph-name="period" unicode="." horiz-adv-x="92" 
d="M44 -6q-6 -2 -9.5 1.5t-6.5 7.5q-4 5 -3 9.5t3 9.5q1 2 6 5t7 1q4 -1 11 -1q12 -2 14 -12q3 -19 -17 -21h-5z" />
    <glyph glyph-name="slash" unicode="/" horiz-adv-x="407" 
d="M382 413q0 -2 -2 -4q-7 -9 -13.5 -18t-14.5 -18l-32 -40t-31 -40q-13 -17 -25.5 -34t-25.5 -34q-11 -13 -20 -26t-18 -27q-20 -26 -38 -52.5t-35 -53.5q-13 -19 -25.5 -38t-24.5 -39q-3 -5 -6.5 -10.5t-6.5 -10.5q-2 -6 -6 -10.5t-9 -8.5q-9 -7 -17 -3q-6 2 -6.5 3t1.5 6
q4 10 10 18.5t12 16.5q17 28 35 55t36 55q17 25 33.5 49.5t34.5 48.5l45 60q8 11 16.5 22t16.5 22t16.5 22.5t17.5 22.5t18.5 22.5t18.5 23.5q5 6 10.5 11.5t10.5 11.5q5 5 10.5 5t10.5 -3q3 -3 3 -5z" />
    <glyph glyph-name="zero" unicode="0" horiz-adv-x="203" 
d="M-15 78q0 9 1 18t3 17q3 20 8.5 38.5t12.5 36.5q5 15 11 29t13 28q19 39 43 69q8 10 16 18t19 13q15 10 31 10q5 -1 11 -0.5t11 -1.5q8 -4 11 -7q6 -7 9.5 -15.5t5.5 -17.5q2 -7 2 -14t2 -15q0 -7 -2 -11q-1 -2 -0.5 -3.5t0.5 -3.5q1 -8 -0.5 -14.5t-2.5 -13.5
q-1 -9 -3 -18.5t-4 -18.5q-3 -11 -6 -22.5t-7 -22.5q-4 -13 -10 -25.5t-12 -25.5q-11 -21 -24 -42q-9 -12 -19 -22t-22 -18q-13 -8 -30 -10q-5 -1 -9 -2t-9 0q-10 1 -18.5 4.5t-15.5 11.5q-10 13 -14 27q-2 6 -2 12v12zM89 287q-1 0 -3 -2l-16 -28t-15 -30q-7 -14 -12.5 -28
t-10.5 -29q-3 -10 -5.5 -19t-4.5 -19q-2 -5 -2.5 -10.5t-2.5 -10.5q-1 -5 -2 -10.5t-1 -11.5v-23v-10.5t2 -10.5q3 -13 12 -22q7 -7 16 -6l12 2t11 4q2 1 3.5 1.5t2.5 2.5t-1 7v3q-1 5 -1 9.5t-2 9.5q-2 7 -2 14t-1 14q-1 11 -0.5 20.5t0.5 20.5q-1 11 1 20.5t1 20.5v2
q2 3 2 6.5v6.5q-1 4 0 7t2 7q1 5 1 10t1 10q1 4 1.5 8t1.5 9q2 8 3.5 17t3.5 17q2 5 3.5 10.5t1.5 10.5q2 0 2 2l-1 1q-1 1 -1 -1v-2zM79 101q1 -8 0.5 -17t1.5 -18q1 -5 2 -11t0 -12q0 -1 0.5 -1.5t0.5 -1.5q2 -4 5 -2q13 12 23 26.5t19 29.5q10 18 18 37.5t13 39.5
q3 11 6 21.5t7 21.5q3 9 4.5 18.5t3.5 19.5q1 9 2 17.5t0 17.5q-1 7 -1.5 13t-2.5 12q-2 8 -5.5 15.5t-10.5 13.5q-3 3 -8.5 4.5t-9.5 0.5q-15 -3 -27 -16q-4 -3 -6 -9q-3 -9 -5.5 -18t-4.5 -18q-9 -33 -15 -66q-1 -8 -1.5 -15.5t-1.5 -15.5q-2 -8 -3 -16.5t-1 -16.5
q-1 -10 -2 -19t-1 -19q1 -4 0.5 -7.5t-0.5 -8.5z" />
    <glyph glyph-name="one" unicode="1" horiz-adv-x="137" 
d="M191 389q11 -1 6 -13l-18 -30l-21 -33q-9 -15 -18 -30.5t-19 -30.5q-4 -6 -7.5 -12.5t-7.5 -13.5q-6 -10 -11.5 -20t-12.5 -20q-8 -11 -14 -23t-14 -23q-9 -16 -18 -32.5t-17 -33.5q-6 -12 -11.5 -25t-13.5 -24q-2 -2 -3 -4t-3 -4l-1 -1q8 -2 14.5 -3.5t14.5 -3.5
q2 -2 1 -4q0 -3 -2 -3q-8 0 -12 1q-5 -2 -10 0l-10 4q-7 2 -13 2t-12 1t-11.5 1h-11.5q-1 0 -1.5 0.5t-1.5 0.5q0 2 2 4q4 2 8 2.5t8 0.5h13q1 6 3 11t5 10q7 14 14 27.5t15 26.5q9 17 18.5 34t19.5 34q7 12 14 23.5t15 23.5q11 17 22 35l22 36q5 8 9.5 16.5t9.5 16.5
q8 14 16.5 27t17.5 26q1 1 1 2q-2 1 -3 0q-6 -2 -11 -4q-6 -3 -12 -2.5t-12 -1.5q-5 3 -11 3t-11 3q0 1 -0.5 1t-0.5 1q0 2 2 2t5 0.5t5 -1.5q4 -2 8 -2t9 1q23 6 45 20q4 2 7 2t6 -1z" />
    <glyph glyph-name="two" unicode="2" horiz-adv-x="217" 
d="M231 303q-3 -46 -33 -87q-5 -8 -10.5 -15t-12.5 -14q-11 -14 -23 -26q-6 -5 -12.5 -10.5t-11.5 -12.5q-5 -5 -10 -8t-10 -8q-12 -11 -24.5 -20t-24.5 -19q-11 -8 -20.5 -14t-20.5 -14q-10 -6 -19.5 -12t-20.5 -11l-2 -2l2 -2q14 -2 26 -7.5t24 -11.5q6 -3 12 -6.5
t13 -5.5q11 -4 19.5 -2.5t17.5 6.5q2 2 5 3t6 3q2 1 4.5 0.5t4.5 -0.5q7 -2 2 -5q-15 -15 -36 -15q-3 0 -6 -1t-6 0q-9 1 -17.5 2.5t-16.5 6.5q-11 5 -21.5 10t-21.5 11q-5 2 -10 3t-10 3t-10.5 0t-10.5 -4q-2 -1 -3.5 -2t-3.5 1t-3 2.5t1 2.5q5 8 7.5 10t11.5 7
q11 7 21 12.5t21 12.5q19 11 38 26l36 27q2 2 3.5 3t3.5 3q11 10 21 19t21 19q31 30 53 63q10 14 16 29t11 31q0 9 3 17.5t0 17.5q1 7 -0.5 12.5t-3.5 11.5q-3 8 -8 15t-14 11q-7 3 -13 2t-12 -3q-13 -5 -22.5 -13t-18.5 -17q-10 -11 -16.5 -24.5t-12.5 -27.5
q-2 -5 -4.5 -10.5t-3.5 -11.5q0 -7 -8 -5q-7 2 -4 9q2 8 5 16l6 16q7 14 14.5 27.5t18.5 24.5q9 10 20 17t25 9q14 3 28 1.5t26 -10.5q19 -14 24 -41q2 -6 1.5 -12t-0.5 -13z" />
    <glyph glyph-name="three" unicode="3" horiz-adv-x="239" 
d="M253 337q-1 -18 -7.5 -32.5t-15.5 -28.5q-23 -33 -52 -57q-11 -10 -24 -18t-27 -15q-1 -1 -2 -0.5t-1 -1.5q0 -1 1 -1h2q16 -5 28 -14q10 -8 15 -18t8 -22q5 -21 -2 -39t-20 -35q-14 -17 -31 -28t-36 -19q-18 -7 -39 -7q-24 2 -44 10q-22 8 -29 28q-8 16 0 36
q11 23 34 41q2 2 4.5 3.5t5.5 -0.5q2 -2 3 -2q1 -2 -2 -2q-22 -16 -33 -39q-6 -14 -5 -28q2 -13 12 -20q21 -18 49 -13q20 2 37 11.5t32 23.5q19 17 28 40q3 9 5.5 17.5t0.5 19.5q-1 4 -0.5 8t-1.5 8q-2 8 -6 15.5t-12 12.5q-7 4 -15 4.5t-16 -3.5q-2 0 -3.5 -1t-3.5 -1
h-4.5t-4.5 2q-6 4 0 7l27 18q15 9 27.5 19.5t24.5 23.5q11 11 21.5 24t20.5 26q7 9 11 19t9 20q0 8 2.5 16t-0.5 16q-1 5 -5 13q-6 9 -17 7q-10 -1 -19 -2.5t-18 -6.5q-6 -3 -11.5 -6t-10.5 -8q-38 -28 -52 -70q-1 -3 -5 -9q-3 -6 -8 -3t-2 8l10 20l10 20q5 7 9.5 12.5
t9.5 11.5q7 9 15.5 15.5t17.5 12.5q26 16 52 15q5 -1 10.5 -1t11.5 -2q24 -9 31 -33q1 -5 0 -9.5t0 -8.5z" />
    <glyph glyph-name="four" unicode="4" horiz-adv-x="202" 
d="M43 174q-20 0 -35 -8q-2 -1 -3 -2t-3 -2q-3 -1 -6.5 -0.5t-3.5 1.5q0 3 1.5 4t3.5 3q2 3 5 3.5t4 4.5t2 6.5t3 5.5l10 20t11 19q2 4 3.5 8t3.5 9q6 14 11.5 28.5t10.5 28.5t9 27.5t9 27.5q2 5 3 11t3 11q6 16 21 12q6 -2 6 -8t-1 -11.5t-3 -11.5q-5 -22 -12 -43t-15 -41
q-10 -24 -21 -46.5t-26 -43.5q-2 -2 -1 -3t3 -1q3 0 6.5 -0.5t6.5 0.5q10 0 19.5 -2t19.5 -4t19.5 -4t19.5 -1q5 1 7 1.5t4 5.5l12 30l33 72q4 9 9 18t10 17q9 11 20 8q8 -2 5 -10q0 -3 -2 -9q-8 -15 -14.5 -30.5t-14.5 -31.5l-12 -26l-12 -26q-8 -17 -14.5 -33t-14.5 -33
q-7 -14 -13 -28.5t-12 -29.5q-6 -13 -12.5 -25.5t-12.5 -25.5q-2 -5 -5 -8t-6 -7q-2 -2 -4 -1.5t-4 -0.5q-11 0 -12 2t1 12q1 2 1.5 3.5t1.5 3.5q5 9 9 17.5t8 17.5q7 16 13.5 31t13.5 30q5 11 9 21t9 20q3 7 -4 7h-9q-9 -1 -18 1l-18 4q-5 1 -9.5 2t-9.5 1q-5 1 -9 2t-8 0z
" />
    <glyph glyph-name="five" unicode="5" horiz-adv-x="226" 
d="M71 236q3 0 6 3q11 8 21.5 12t22.5 6t25 1.5t24 -8.5q8 -5 14.5 -12.5t10.5 -18.5q2 -7 2.5 -14.5t1.5 -15.5q0 -15 -4 -29t-9 -28q-6 -15 -14.5 -28.5t-17.5 -26.5q-26 -37 -64 -56q-9 -5 -18.5 -7.5t-19.5 -4.5q-5 -2 -10 -1.5t-10 -2.5q-28 -2 -46 11q-8 5 -13.5 13
t-6.5 19t3 21q1 1 2 2.5t4 -0.5t3 -3t-1 -3q-6 -21 9 -39q8 -10 20 -10q21 -2 38 4q33 11 59 39q35 35 55 83q5 11 8 22t5 22t2 21t-3 21q-3 10 -13 19q-4 3 -7.5 3.5t-8.5 0.5q-18 0 -34 -8q-13 -6 -24.5 -13t-21.5 -18q-2 -3 -5.5 -5t-5.5 -5q-2 -2 -5 -2q-8 0 -14 3
q-8 3 -4 11q3 7 6.5 13.5t7.5 13.5q11 18 22 35.5t22 35.5q7 12 13.5 24.5t14.5 24.5q2 2 2.5 3.5t2.5 3.5t1 3q-1 2 -1.5 1t-1.5 -1q-1 -1 -4 2q-5 0 -1 4q2 3 5 3.5t6 2.5h4q8 5 15 4.5t15 -4.5q5 -2 10 -2t10 -2q6 -2 12 -2.5t12 -1.5q14 -2 27 -3t26 1q5 1 9 1.5t9 -1.5
q1 -1 1.5 -1t1.5 -1q0 -1 0.5 -1.5t0.5 -1.5q0 -2 -2 -2l-10 -2t-10 0h-25q-7 0 -13.5 1t-13.5 3q-3 1 -6.5 0.5t-6.5 1.5q-5 -1 -10.5 1.5t-10.5 1.5q-3 -1 -5 0.5t-4 1.5q-2 -1 -3.5 -1t-3.5 -3q-8 -15 -17 -29.5t-18 -29.5q-11 -17 -21 -34t-21 -34q-4 -4 -3 -8h-2l1 -1z
" />
    <glyph glyph-name="six" unicode="6" horiz-adv-x="166" 
d="M-15 79q0 20 4 38.5t9 37.5q6 22 14.5 42t18.5 40q16 32 34 57q7 10 14.5 20t16.5 18q11 11 23 21t26 17q13 7 32 10q11 2 22 0q3 -1 5.5 -2.5t5.5 -2.5q1 -1 1 -4q0 -4 -2 -2q-2 0 -4 -1t-3 1q-2 4 -5.5 3.5t-6.5 1.5q-1 1 -6 1q-30 -5 -50 -25q-13 -14 -23.5 -29.5
t-20.5 -32.5l-24 -42l-4 -8l-4 -8q-2 -2 -2.5 -5t-1.5 -5q2 -1 4.5 0.5t4.5 1.5q18 5 33.5 -4t21.5 -28q3 -7 4 -14t3 -15q2 -9 1 -17.5t-2 -16.5q-1 -10 -3.5 -19t-6.5 -17q-5 -11 -9.5 -21t-10.5 -20q-6 -9 -13.5 -17t-16.5 -13t-18 -8t-20 1q-2 1 -4.5 0.5t-4.5 0.5
q-14 3 -22 18q-6 11 -8 20.5t-2 26.5zM15 75v-14q0 -8 2.5 -16t5.5 -15q6 -11 16 -9q18 3 29 17q13 16 24 36q10 21 16 46q2 6 2.5 12.5t1.5 12.5q1 5 0.5 10t-0.5 10q-2 20 -11 35q-5 8 -12.5 13t-18.5 3q-5 -1 -9 -3t-9 -4q-7 -3 -8 -10q-2 -5 -3.5 -9t-3.5 -9
q-6 -17 -11 -33t-7 -34q-2 -10 -3 -19.5t-1 -19.5z" />
    <glyph glyph-name="seven" unicode="7" horiz-adv-x="195" 
d="M65 197h-17q-3 0 -4 3l1 1q0 1 0.5 1t0.5 1q2 1 2.5 1t2.5 1q8 1 17 1.5t17 -0.5q4 0 7 5q4 5 7 11.5t7 12.5q7 11 13.5 23t14.5 23q13 19 30 39q6 8 12.5 14.5l13.5 13.5q2 2 -1 2q-2 0 -3.5 1t-3.5 1h-18.5t-18.5 2q-6 2 -12.5 2.5t-13.5 1.5q-5 1 -10.5 2t-10.5 0
q-5 0 -10.5 1.5t-10.5 0.5t-11 -2t-11 -4q-2 -1 -3 -2.5t-3 -2.5q-3 -2 -6 1t0 4q5 7 11 8q26 6 52 3q8 -1 15.5 -1t15.5 -2q16 -4 37 -4q4 0 7 -1t7 -1q7 2 13.5 2t11.5 4q5 3 10.5 3.5t10.5 0.5h2q2 -2 4 -2t2 -3t-5 -5q-7 -2 -12 -7l-10 -10q-2 -2 -3.5 -4t-3.5 -4
q-10 -10 -18.5 -21t-16.5 -22q-11 -15 -20 -30t-17 -31q-3 -5 -6 -9.5t-6 -9.5q-1 -2 -1 -3.5t2 -3.5t1 -4t-3 -2q-5 1 -6.5 -2t-3.5 -6q-10 -15 -18.5 -31t-19.5 -31q-7 -11 -13 -22t-13 -22q-5 -10 -11 -19t-11 -20q-3 -8 -7 -14.5t-9 -13.5q-3 -6 -10.5 -7.5t-13.5 2.5
q-2 1 -1 5q5 20 15 38q14 25 28 49t28 47q6 11 12.5 21t12.5 21q2 5 -2 5h-15z" />
    <glyph glyph-name="eight" unicode="8" horiz-adv-x="179" 
d="M-42 48q-1 16 7 34q5 14 12.5 25.5t16.5 23.5q16 21 36 39l20 18t21 17q4 4 2 9q-5 18 -6 36t0 36q1 13 6 27q5 10 9 19t11 17q13 17 33 28q5 3 11.5 5.5t13.5 3.5q6 1 11.5 2.5t12.5 -1.5q2 -1 4 -0.5t4 0.5q12 0 24 -10q5 -5 6 -10q2 -4 3 -5q3 -1 3 -4
q0 -6 -0.5 -12.5t-2.5 -12.5q-2 -7 -4.5 -13t-5.5 -13q-3 -6 -7 -11.5t-8 -10.5q-15 -19 -34 -34l-16 -14l-16 -14q-6 -5 -12.5 -10.5t-12.5 -10.5q-4 -4 -2 -10q5 -12 8.5 -24t7.5 -24q2 -6 3 -12.5t2 -12.5q2 -9 2 -18v-17q0 -26 -14 -49q-8 -13 -21 -26q-19 -17 -42 -20
q-5 0 -8.5 -1t-7.5 0q-8 1 -16 1.5t-16 3.5q-26 11 -36 34q-4 10 -2 21zM32 -3q6 0 8 1q15 2 26.5 10t20.5 19q9 10 15 24q3 8 4 17t3 17q1 3 0 6q-2 2 -1.5 3.5t0.5 3.5q0 11 -2.5 20.5t-5.5 19.5q-3 11 -6.5 21.5t-8.5 21.5q-2 4 -3 4.5t-4 -2.5q-6 -5 -12 -10.5
t-12 -11.5q-7 -7 -13 -14l-12 -14q-22 -26 -35 -56q-10 -23 -6 -45q8 -33 44 -35zM204 347q0 3 -1 6t-2 5q-1 5 -3 9.5t-7 6.5q-15 10 -30 7q-39 -9 -60 -42q-16 -25 -17 -51q0 -2 0.5 -3.5t-1.5 -3.5v-4q2 -5 1.5 -9t-0.5 -9q0 -8 1 -16t3 -16q1 -2 0.5 -3t0.5 -2q2 0 4 2
q3 3 5 4q14 14 29 26q11 8 21 17.5t20 19.5q5 5 9 10t8 11q5 7 9 14.5t8 15.5q2 4 2 5z" />
    <glyph glyph-name="nine" unicode="9" horiz-adv-x="208" 
d="M19 203q-1 14 2 26.5t8 24.5q5 13 11.5 25t15.5 23q8 12 18 23t22 19q11 7 22 11.5t24 4.5q4 1 7.5 2t7.5 0q8 -1 15 -2t14 -5q10 -7 10 -16q0 -6 -7 -8q-4 0 -5 3q0 2 -3 5q-10 12 -23 12q-21 -1 -38 -13q-13 -10 -22.5 -22.5t-18.5 -26.5q-7 -11 -12.5 -22t-9.5 -24
q-4 -12 -7 -24.5t-2 -26.5q0 -11 7 -21q4 -5 9 -3q4 0 9 3q21 11 40 32q10 12 20 24.5t19 26.5q10 12 18 24.5t17 25.5q1 2 3 8q3 7 5.5 13.5t5.5 12.5q2 5 8 5h9q5 0 5 -5q0 -9 -3 -16q-4 -12 -7.5 -24.5t-8.5 -24.5q-5 -11 -9 -22.5t-9 -22.5q-5 -14 -10.5 -27t-10.5 -26
q-11 -24 -22.5 -47t-26.5 -44q-17 -26 -39 -45q-8 -8 -18 -12.5t-21 -8.5q-18 -5 -36 -3q-6 0 -12 2.5t-11 5.5q-2 1 -3 2t-3 2l-1 2l3 3q1 -1 2 -1l4 -2l4 -2q11 -8 23 -7t23 6q22 9 39 30q11 14 19.5 28t16.5 29q7 13 12.5 25t10.5 26q2 7 5.5 13t5.5 13q4 11 8.5 22
t9.5 22q3 7 7 14v2q-2 2 -2 -1q-4 -5 -7.5 -9t-6.5 -9q-4 -5 -7.5 -9.5t-7.5 -9.5q-7 -8 -14 -14.5t-14 -14.5q-5 -6 -11.5 -10.5t-13.5 -8.5q-21 -11 -41 -2q-18 8 -21 31v10zM166 253q1 0 1 1h-1v-1z" />
    <glyph glyph-name="colon" unicode=":" horiz-adv-x="168" 
d="M123 295q-5 -2 -8 0.5t-6 7.5q-3 4 -2 7.5t2 7.5q1 2 5.5 5t6.5 1q3 -1 10 -1q9 0 11 -11q3 -17 -14 -17h-5zM42 116q-5 -2 -8.5 1t-6.5 7q-2 4 -1.5 7.5t2.5 8.5q0 2 4.5 4.5t6.5 0.5q4 -1 10 -1q10 -2 12 -11q3 -17 -15 -17h-4z" />
    <glyph glyph-name="semicolon" unicode=";" horiz-adv-x="167" 
d="M39 144q5 0 8.5 -2t7.5 -4q5 -3 3 -10q-3 -16 -19 -26q-2 -1 -3.5 -2t-3.5 1q-5 2 -3 8q0 2 2 4q2 4 2 7q0 2 -1.5 2.5t-2.5 1.5q-4 3 -4 11q1 3 4.5 5.5t6.5 3.5h3zM122 295q-9 -3 -14 8q-3 4 -2.5 7.5t2.5 7.5q0 2 4.5 5t6.5 1q4 -1 10 -1q10 0 12 -11q3 -17 -15 -17
h-4z" />
    <glyph glyph-name="less" unicode="&#x3c;" horiz-adv-x="226" 
d="M201 341q0 -3 -2 -5q-4 -5 -7.5 -8.5t-6.5 -8.5q-5 -4 -8 -8.5t-8 -8.5q-3 -3 -5.5 -6.5t-5.5 -6.5q-4 -5 -7.5 -8.5t-7.5 -8.5q-3 -4 -6 -7l-6 -6q-2 -3 -5 -6t-5 -6q-5 -5 -8.5 -9.5t-8.5 -9.5q-7 -7 -11 -14l-18 -21q-8 -9 -14.5 -18.5t-14.5 -18.5q-2 0 0 -2l4 -6
l4 -6q5 -7 8.5 -12.5t8.5 -12.5l15 -21q5 -6 9 -11.5t8 -11.5l15 -21l27 -36q4 -6 5 -9q3 -6 -3 -9q-4 -2 -8 1l-7.5 7.5t-6.5 8.5l-18 24q-5 7 -9.5 13t-9.5 13q-14 18 -28 40q-7 9 -13.5 18t-12.5 19l-1 1q-2 4 -8 12v2q2 3 5 6t5 6q4 6 7 8q5 7 10 13.5t10 12.5
q5 5 9 10.5t8 10.5q5 7 10.5 13.5t11.5 12.5q4 5 7.5 9t7.5 8q5 6 9.5 11.5t9.5 11.5q5 5 9.5 10.5t9.5 10.5q6 6 11 12.5t10 12.5l9 9l3 3q4 6 9 1q1 -1 1 -1.5t1 -1.5q3 -3 3 -5z" />
    <glyph glyph-name="equal" unicode="=" horiz-adv-x="151" 
d="M93 212q8 -1 14 -1.5t12 -0.5q1 -1 2 -0.5t3 -0.5q2 -2 2 -4t-2 -4l-4 -2t-4 0h-3q-8 2 -16.5 1t-16.5 -1q-7 0 -13 1t-13 -1q-5 -2 -11 -1t-11 1h-4q-3 0 -2 4q0 4 2 5q3 2 5.5 3t5.5 1q6 -1 11.5 -0.5t11.5 1.5q8 1 16.5 0t14.5 -1zM93 172q8 -1 14 -1.5t12 -0.5
q1 -1 2 -0.5t3 -0.5q2 -2 2 -4t-2 -4l-4 -2t-4 0h-3q-8 2 -16.5 1t-16.5 -1q-7 0 -13 1t-13 -1q-5 -2 -11 -1t-11 1h-4q-3 0 -2 4q0 4 2 5q3 2 5.5 3t5.5 1q6 -1 11.5 -0.5t11.5 1.5q8 1 16.5 0t14.5 -1z" />
    <glyph glyph-name="greater" unicode="&#x3e;" horiz-adv-x="226" 
d="M25 7q0 3 2 5q4 5 7.5 8.5t6.5 8.5q5 4 8 8.5t8 8.5q3 3 5.5 6.5t5.5 6.5q4 5 7.5 8.5t7.5 8.5q3 4 6 7l6 6q2 3 5 6t5 6q5 5 8.5 9.5t8.5 9.5q6 6 11 14l18 21q8 9 14.5 18.5t14.5 18.5q2 0 0 2l-4 6l-4 6q-5 7 -8.5 12.5t-8.5 12.5l-15 21q-5 6 -9 11.5t-8 11.5l-15 21
l-27 36q-4 6 -5 9q-3 6 3 9q4 2 8 -1l7.5 -7.5t6.5 -8.5l18 -24q5 -7 9.5 -13t9.5 -13q14 -18 28 -40q7 -9 13.5 -18t12.5 -19l1 -1q2 -4 8 -12v-2q-2 -3 -5 -6t-5 -6q-4 -6 -7 -8q-5 -7 -10 -13.5t-10 -12.5q-5 -5 -9 -10.5t-8 -10.5q-5 -7 -10.5 -13.5t-11.5 -12.5
q-4 -5 -7.5 -9t-7.5 -8q-5 -6 -9.5 -11.5t-9.5 -11.5q-5 -5 -9.5 -10.5t-9.5 -10.5q-6 -6 -11 -12.5t-10 -12.5l-9 -9l-3 -3q-4 -6 -9 -1q-1 1 -1 1.5t-1 1.5q-3 3 -3 5z" />
    <glyph glyph-name="question" unicode="?" horiz-adv-x="362" 
d="M83 418q2 17 8.5 32t14.5 29q14 24 36 46q2 3 5.5 6t6.5 5q9 7 18 13.5t20 11.5q25 11 52 14q6 1 12 0t11 1q8 -4 15.5 -5t13.5 -6q8 -5 15.5 -11t12.5 -14q5 -9 7.5 -18t4.5 -20q1 -9 0.5 -18.5t-2.5 -18.5q-2 -8 -3.5 -15.5t-4.5 -15.5q-5 -14 -10.5 -28t-13.5 -28
q-15 -28 -34 -52q-11 -14 -22.5 -27t-23.5 -26q-6 -5 -11.5 -10.5t-11.5 -10.5q-8 -7 -15 -14l-15 -15l-18.5 -18.5t-18.5 -19.5l-8 -10t-9 -10q-11 -14 -20 -28t-17 -29q-7 -14 -18 -28q-7 -7 -14 -3q-4 0 -5 1q-9 4 -4 10q5 13 10 25t12 23l12 18t13 18q8 11 17 21t19 20
q8 8 16 17t17 17q7 6 13 12.5t13 12.5q6 5 12 11.5t12 12.5q11 11 22 23t21 25q3 5 6.5 9t6.5 9q11 15 19.5 30t15.5 32q5 8 8 17.5t6 18.5q5 12 5 21q2 14 1 28t-7 27q-5 11 -12.5 18.5t-19.5 9.5l-4 2t-5 1q-10 -1 -19.5 -1.5t-19.5 -3.5q-37 -9 -65 -33q-8 -7 -15 -14.5
t-13 -15.5q-15 -19 -28 -47q-2 -4 -4 -12q-4 -8 -5.5 -17t-2.5 -18q0 -8 1 -16t7 -15q3 -3 -2 -3q-12 0 -15 10q-5 12 -4 23q2 8 2 14zM50 49q0 -6 -6 -8q-8 -4 -16 1q-3 3 -2 5l7.5 7.5t9.5 2.5q7 -1 7 -8z" />
    <glyph glyph-name="at" unicode="@" horiz-adv-x="452" 
d="M260 228q-1 0 -2 -1q-10 -9 -19.5 -18.5t-20.5 -19.5q-8 -7 -15 -13t-15 -12t-15 -11.5t-15 -10.5q-7 -4 -13.5 -7.5t-14.5 -5.5q-15 -3 -26 1q-8 3 -11 9t-4 14q-2 13 1.5 25t8.5 24t12.5 22.5t15.5 21.5q5 7 11 13.5t12 13.5q3 4 6 7.5t7 7.5q12 11 23.5 21t25.5 18
q11 7 22 11.5t24 6.5t25.5 0.5t23.5 -9.5q13 -8 18 -25q1 -5 5 -3q1 1 6 1q8 -2 9 -6t-3 -8l-8 -12t-9 -12t-9.5 -12t-9.5 -12q-8 -11 -15 -22t-15 -22q-8 -14 -15 -28t-10 -30q-3 -15 1 -29q3 -7 10 -10.5t15 -1.5q17 4 31 17q12 8 22 18t20 21q29 33 46 72q10 23 14 45
q1 5 1 9v9q1 2 0.5 3t0.5 3q2 2 1.5 2.5t-0.5 2.5q-2 9 -2.5 18t-3.5 18q-2 6 -4.5 13t-6.5 12q-11 16 -25.5 27.5t-33.5 17.5q-10 4 -19 5t-19 2q-28 0 -53 -9q-22 -7 -45 -20q-22 -14 -44 -32q-8 -7 -15 -14t-13 -15q-7 -8 -13 -16t-12 -17q-30 -46 -42 -98q-2 -8 -3 -16
t-3 -16q-3 -15 -1 -33q1 -17 4 -33t11 -30q5 -9 10.5 -17.5t12.5 -16.5q11 -11 22.5 -17t25.5 -11q24 -8 45 -8q5 0 7 -1q2 -3 4 -1q6 2 12 2t12 1q5 2 11 3t11 3q11 3 21 8.5t21 12.5q14 8 26 19.5t23 24.5q11 11 20 23.5t17 25.5l7 7h2q0 -1 0.5 -1.5t0.5 -1.5
q-1 -4 -3 -6.5t-4 -5.5q-13 -19 -29 -38q-8 -11 -17.5 -21t-20.5 -20q-32 -27 -73 -38q-8 -2 -16.5 -3.5t-17.5 -0.5h-13q-9 0 -17.5 1t-17.5 2l-16 4l-16 4q-35 12 -59 40q-7 7 -11 14.5t-9 15.5q-5 10 -8 19.5t-5 19.5q-1 5 -1.5 10t-0.5 10t-0.5 10.5t0.5 10.5q0 24 7 45
q2 11 5.5 22t8.5 22t10.5 22.5t11.5 22.5q12 19 27 36q15 18 30 32q21 18 40 30q33 22 67 32q8 2 15.5 4t15.5 3q13 2 25.5 2h25.5q8 -1 16.5 -3.5t16.5 -5.5q22 -7 43 -26q24 -21 31 -48q2 -5 3 -8.5t0 -8.5q0 -3 1 -6t1 -7q-1 -17 -3.5 -33.5t-9.5 -33.5
q-6 -17 -14.5 -32.5t-18.5 -30.5q-5 -7 -9 -12.5t-9 -11.5q-8 -10 -16 -18l-16 -16q-7 -6 -13.5 -10.5t-14.5 -9.5q-16 -10 -37 -10q-6 1 -12 1.5t-12 3.5q-15 10 -19 28q-2 6 -1.5 12t1.5 12t3 11.5t4 10.5q10 26 29 51q1 1 1 3q2 0 2 2q1 0 1 1q-1 0 -1 -1q-2 0 -2 -2z
M114 152v-8q1 -8 10 -8q6 0 14 4q7 3 13 7t12 9q14 9 26 19t24 21q5 5 10.5 10t10.5 10q15 14 29.5 28t29.5 28q4 4 7 8t7 8q7 8 8 10.5t-1 11.5q-5 17 -17 22q-6 3 -12.5 5t-13.5 0q-5 -1 -9 -2.5t-8 -3.5q-11 -5 -21 -11.5t-18 -14.5l-16 -14t-15 -15q-8 -10 -16.5 -19.5
t-16.5 -19.5q-10 -13 -18 -26.5t-13 -29.5l-4 -14t-2 -15z" />
    <glyph glyph-name="A" unicode="A" horiz-adv-x="754" 
d="M483 254q-3 0 -5 -4q-3 -8 -6 -14.5t-7 -14.5q-4 -11 -8 -22.5t-9 -22.5q-3 -8 -5.5 -15t-5.5 -15q-8 -22 -15.5 -44.5t-15.5 -45.5q-5 -16 -10 -31.5t-10 -31.5q-2 -9 -5 -18t-6 -19q-3 -11 -5.5 -21t-5.5 -21t-6 -22.5t-6 -23.5q-2 -8 -4 -17l-4 -18q-2 -7 -3.5 -13.5
t-3.5 -13.5l-2 -12t-3 -12l-2 -10l-2 -10v-4q-1 -3 -4 -5.5t-7 -0.5q-6 2 -6 10q0 6 1 11.5t2 11.5q2 7 3 13t3 12l4 18l4 18q2 6 3 12l2 12q4 14 7.5 29t7.5 29q3 11 6 22.5t6 22.5q3 20 9 37q3 10 5.5 20t5.5 20q3 8 5.5 15t4.5 14q6 19 12.5 37t13.5 37q5 14 9.5 27.5
t10.5 26.5q5 11 9.5 21.5t9.5 21.5q2 4 -3 4q-22 0 -43.5 -1t-38.5 -1q-5 0 -6 -3q-8 -9 -15 -17.5t-15 -17.5q-7 -8 -13.5 -15.5t-12.5 -15.5q-3 -4 -6.5 -7t-6.5 -7q-4 -5 -8 -8.5t-7 -8.5t-6.5 -8t-6.5 -6q-6 -7 -13 -13.5t-13 -13.5q-5 -5 -9 -9.5t-9 -8.5
q-3 -4 -6.5 -6.5t-7.5 -5.5q-7 -6 -13 -12.5t-13 -11.5q-8 -7 -17 -14t-18 -13q-6 -4 -12.5 -8t-14.5 -7q-8 -4 -16 -7.5t-17 -5.5q-16 -5 -28 -4q-25 2 -42 16q-3 3 -7 5q-1 1 -1 4q0 1 4 1q2 0 2.5 -1t1.5 -1q14 -14 30 -18q10 -3 26 -1q14 2 26 8t25 13q19 11 34 22
q6 6 12.5 11t12.5 10q14 12 27 25l26 26q5 6 11 11.5t11 12.5q2 3 5.5 6t6.5 6q8 9 15.5 18t14.5 17q17 19 34 40q4 5 8 9t7 9l1 2q-1 1 -2 1q-5 0 -9.5 -1t-9.5 -2q-4 -1 -12 -1q-11 -2 -21.5 -4.5t-21.5 -5.5q-12 -3 -24 -7.5t-24 -9.5q-12 -6 -23 -13t-20 -16
q-3 -4 -8 -3q-1 0 -1 1q-1 1 0 2q3 7 9 11q6 5 13 9.5t15 9.5q11 5 21 9t21 8q8 3 17 5l18 4q7 2 14 3l14 2q6 1 11.5 2t11.5 1q3 0 6 0.5t6 0.5t4.5 1t3.5 3q6 8 12.5 16.5t13.5 16.5q8 11 16.5 21t17.5 21q12 15 23 30t23 30q11 13 20.5 25.5t20.5 25.5q8 10 15 20t15 20
q15 16 27 33q8 10 15.5 20t15.5 20q3 3 5 6t5 6q2 2 2.5 4t2.5 4q8 13 15 25t15 25l12 20l12 20q5 7 9 13.5t8 12.5q8 11 15 21t15 21q7 9 13 18t14 17q7 8 13.5 16t14.5 15q2 2 4.5 4t5.5 4q7 2 11 -1q1 -2 1 -4q-2 -6 -5.5 -11.5t-6.5 -11.5l-24 -33l-14 -20t-14 -19
q-5 -7 -10 -13.5t-10 -13.5q-6 -8 -12 -15.5t-12 -15.5q-8 -11 -15 -20t-15 -20q-5 -8 -9 -15t-9 -15q-8 -13 -14.5 -26.5t-13.5 -26.5l-24 -48q-6 -11 -10.5 -20.5t-9.5 -20.5q-6 -14 -12.5 -27t-12.5 -27l-27 -60l-12 -30t-13 -31q-2 -3 2 -3h17.5t37.5 0.5t47.5 1.5
t47.5 2t37 1.5t17 0.5t3.5 -0.5t3.5 -1.5v-1q0 -5 -1 -5zM769 790h1v1l-1 -1q-1 0 -1 -2l-2 -1v-1q-2 -1 -2.5 -2t-2.5 -3q-6 -8 -12 -15.5t-12 -15.5q-8 -12 -16.5 -24.5t-16.5 -24.5q-5 -8 -5.5 -10t6.5 8q2 2 2.5 3l1.5 3q15 18 27 36q8 11 15 21l14 20q1 2 1 4q2 0 2 3
q1 0 1 1zM563 502l-22 -28l-22 -28q-11 -13 -20.5 -26t-19.5 -26q-7 -8 -13 -16l-12 -16q-20 -28 -40 -51.5t-42 -51.5q-1 -1 2.5 -1h5.5q5 0 11 0.5t12 0.5q11 1 22 1t22 1q2 1 5 0t5 1q8 19 18.5 42.5t18.5 41.5q5 12 10.5 24t10.5 23q7 14 13 27l12 26q3 8 7 14.5t7 13.5
q5 9 9.5 18t8.5 18q2 5 2 6q-2 -1 -5.5 -6t-5.5 -8z" />
    <glyph glyph-name="B" unicode="B" horiz-adv-x="771" 
d="M650 686q4 -14 5 -28t1 -28q0 -7 -2 -17q-1 -5 -1.5 -8.5t-0.5 -8.5q-1 -6 -2 -12.5t-2 -12.5q-3 -13 -7 -25t-9 -24q-15 -35 -35 -68l-12 -18t-13 -18q-8 -11 -16.5 -21.5t-18.5 -21.5l-16 -16t-17 -16t-18 -15.5t-20 -15.5q-10 -7 -19 -13.5t-19 -12.5q-7 -3 -13.5 -7
t-13.5 -7l-2 -2l2 -2q8 -4 13.5 -9.5l11.5 -11.5q2 -3 4.5 -6.5t5.5 -6.5q6 -10 10 -21t7 -22q2 -11 4 -22.5t1 -22.5q0 -6 -0.5 -11.5t-1.5 -10.5v-9t-1 -9t-2 -9t-1 -9q-3 -11 -6 -21.5t-7 -20.5q-3 -9 -6 -17.5t-8 -16.5q-10 -20 -22 -41q-5 -7 -9.5 -14t-9.5 -14
l-24 -27q-9 -11 -18.5 -20t-20.5 -18q-8 -7 -16 -12.5t-17 -11.5q-8 -6 -17 -10.5t-18 -9.5q-27 -13 -55 -23l-12 -4l-12 -4q-8 -2 -14.5 -3.5t-14.5 -3.5q-9 -3 -18.5 -5t-18.5 -5q-12 -3 -23.5 -6t-22.5 -8q-8 -3 -17 -10q-6 -6 -13 -9q-2 -2 -4 -1.5t-4 -0.5l-2 2
q-2 -2 -3.5 -1.5t-3.5 -0.5q-2 0 -2.5 1.5t-1.5 1.5v3q0 1 1 1q4 3 7.5 5.5t8.5 4.5q2 2 4 3t4 3l10 12l10 12q4 6 8.5 11.5t8.5 12.5q4 5 7.5 10t7.5 10q5 8 10 15.5t10 15.5t10 16.5t10 16.5q6 12 12 22.5t12 21.5q6 12 12 23.5t12 23.5q7 14 13.5 29t13.5 30
q8 18 16 36.5t16 37.5q5 11 10 22.5t10 22.5q5 14 10.5 27t10.5 27q3 6 5.5 12t4.5 12q1 1 -1 4q-1 2 -0.5 6t2.5 6q1 1 1 1.5t2 1.5q4 2 5 4.5t3 5.5q7 17 13.5 33t12.5 32q5 10 9 19t7 18q6 15 12 29.5t13 28.5q8 17 14.5 33t14.5 32q5 13 10.5 24.5t11.5 24.5l24 51
q8 14 15.5 27.5t15.5 27.5q4 7 8.5 13.5t9.5 14.5q3 4 7 7t7 7q6 6 11 6h6h4q4 1 9 -2q2 -2 -1 -2q-11 -11 -20 -26q-6 -8 -11.5 -16.5t-10.5 -17.5t-9.5 -17.5t-9.5 -17.5q-5 -11 -11 -22.5t-11 -22.5q-5 -9 -9 -18.5t-8 -19.5q-9 -17 -16.5 -34t-15.5 -34
q-9 -22 -18.5 -43.5t-18.5 -42.5q-5 -13 -10 -24.5t-10 -24.5q-5 -11 -9 -20.5t-9 -20.5v-2q0 1 5 1h10.5t10 -0.5l4.5 -0.5q7 0 13 -1t13 -3q1 0 1 -0.5t1 -0.5q26 13 53 32q10 7 20 14.5t20 15.5q6 5 12.5 11t12.5 12q7 7 13 13.5t13 14.5q14 16 26 32q17 23 34 52
q5 11 10.5 22t10.5 22q5 12 9 24.5t7 25.5q4 16 6 33q1 5 1.5 9t0.5 9q2 11 1 22.5t-1 22.5q-2 4 -2 7.5t-1 7.5q-3 16 -9 31q-7 16 -20 36q-9 11 -20 20q-18 15 -40 24q-8 3 -16 5.5t-16 4.5q-5 2 -10 2h-10q-5 1 -18 0.5t-21 -0.5t-17 -1.5t-17 -2.5q-17 -3 -32 -8.5
t-30 -11.5q-7 -3 -13 -6t-13 -6q-11 -6 -20.5 -12t-19.5 -12q-11 -8 -21 -16t-21 -16q-8 -7 -15 -14t-15 -14h-1q-6 -8 -13 -14t-13 -14q-7 -9 -14.5 -18t-13.5 -20q-6 -8 -11 -16.5t-10 -16.5t-9 -16.5t-9 -16.5q-3 -6 -5.5 -12t-4.5 -12q-5 -11 -8.5 -22.5t-5.5 -22.5
q-1 -8 -2 -15.5t-1 -15.5q1 -2 0 -4.5t-1 -4.5l4 -22t7 -21q3 -7 6.5 -13t9.5 -11q18 -20 43 -28q5 -1 13 -2.5t6 -3.5q-3 -8 -25.5 -3t-52.5 30q-12 9 -22 28q-3 6 -4.5 12t-3.5 13q-2 10 -2.5 19.5t0.5 18.5q0 13 2.5 25t5.5 24l6 16l6 16q6 14 12.5 26.5t14.5 25.5
q6 10 12.5 19t12.5 18q9 14 20 26l22 24q11 13 22 21q5 5 10 9t10 9q8 7 16.5 13t17.5 13q20 14 46 28t52 23q27 8 59.5 14t81.5 1q8 -1 14.5 -2t13.5 -3q8 -2 14.5 -4.5t13.5 -4.5l16 -8t15 -9q18 -11 28 -24q13 -14 22 -34q5 -8 7.5 -16.5t4.5 -17.5zM318 265q-2 -2 -2 -4
t-2 -4h1q14 1 26 4.5t24 8.5h2q0 2 -2 2q-4 1 -11 2.5t-14.5 1.5t-13.5 -2.5t-8 -8.5zM414 232q-11 18 -31 32q-1 0 -1.5 -0.5t-1.5 -0.5q-16 -6 -33.5 -10t-34.5 -3q-1 -1 -1 -1.5t-1 -1.5q-2 -2 -2 -4.5t-1 -4.5q-10 -22 -19 -47q-5 -9 -8.5 -18t-7.5 -19
q-12 -25 -22.5 -50.5t-22.5 -49.5q-6 -13 -11.5 -26t-12.5 -26q-5 -9 -8.5 -18t-8.5 -17q-8 -15 -16.5 -30.5t-17.5 -29.5q-6 -11 -12 -21.5t-13 -21.5q-8 -11 -14.5 -20.5t-13.5 -20.5q-7 -9 -13.5 -18t-13.5 -17l-4 -2q83 12 147 42.5t118 84.5q5 6 10.5 12t10.5 13
q5 6 10.5 13t10.5 15q7 9 13 22q4 5 7 11l6 12q9 16 15 35q4 8 4 11q3 8 5 16t4 17q2 12 4 23.5t2 23.5q0 1 -0.5 1.5t0.5 2.5q2 13 -1 24q0 8 -2 18l-3 12q-2 10 -6 19t-9 18z" />
    <glyph glyph-name="C" unicode="C" horiz-adv-x="844" 
d="M825 290q0 -1 -1 -2q-5 -4 -10 -7.5t-10 -6.5q-12 -8 -24 -16.5t-24 -17.5q-8 -5 -16 -11.5t-16 -12.5q-6 -5 -12.5 -10.5t-13.5 -10.5q-5 -4 -10.5 -8t-10.5 -9q-6 -5 -12 -9.5t-12 -10.5q-3 -2 -6 -5t-6 -5q-8 -8 -15.5 -14t-15.5 -14l-33 -30q-6 -5 -11 -10t-11 -10
q-7 -6 -12.5 -12t-13.5 -12q-7 -6 -13 -12.5t-13 -12.5q-8 -6 -14 -13t-13 -12q-6 -5 -11.5 -11t-11.5 -11q-5 -4 -9.5 -8.5l-9.5 -9.5q-8 -8 -17 -15t-17 -15l-12 -10l-12 -10q-8 -7 -15.5 -13.5t-16.5 -14.5q-6 -5 -12.5 -10t-14.5 -11q-7 -5 -13 -10t-14 -9
q-13 -9 -25.5 -17t-25.5 -15t-26 -12.5t-27 -9.5q-7 -2 -13.5 -3.5t-12.5 -2.5t-12 -1h-12h-19q-16 2 -29 7q-22 8 -40 28q-7 8 -13 19q-13 21 -19 49q-2 8 -3 17t-1 18q-3 16 -1 36q0 8 0.5 16t1.5 16q1 5 1.5 9t0.5 9q1 5 1.5 10t1.5 10q2 5 2.5 10.5t2.5 10.5q2 12 5 24
t6 23q5 17 10.5 32.5t10.5 32.5q5 12 10 24.5t11 24.5q5 14 11 26.5t12 25.5q3 7 6 13.5t7 13.5l12.5 25t14.5 26q8 14 16 27.5t17 27.5q4 8 8.5 14.5t8.5 13.5q16 25 33 48q7 10 13.5 19.5t14.5 18.5q8 10 14 19.5t14 18.5q5 6 9.5 11.5t9.5 10.5q6 7 11.5 14t11.5 14h1
q5 6 11 12.5t12 12.5q10 11 21 22l22 22q10 10 20 19.5t21 18.5q9 9 19.5 17t20.5 16q30 24 64 44q8 6 17 10.5t18 9.5q27 15 57 24q9 3 18.5 5t20.5 2q1 0 2 0.5t3 0.5q4 0 6 -1l2 1q3 0 6 -0.5t5 -0.5q18 0 37 -8q17 -8 28 -23q6 -8 9.5 -16t6.5 -17q0 -3 2 -11
q2 -7 1.5 -14.5t0.5 -14.5v-15q0 -7 -1 -13.5t-3 -13.5q-3 -14 -7 -27.5t-9 -26.5q-1 -2 -1 -2.5t-2 -0.5h-5v2v2q0 6 3 14q2 9 4.5 18t4.5 19q1 7 2 13t1 12q0 2 0.5 4t0.5 4q2 4 1 7.5t-1 7.5q0 2 -0.5 3.5t-0.5 3.5q-1 15 -4 28.5t-11 26.5q-13 22 -40 28q-5 2 -10 2h-10
q-3 0 -6 -0.5t-7 -1.5q-14 -2 -27.5 -6.5t-27.5 -9.5q-15 -6 -28.5 -13.5t-27.5 -15.5q-15 -10 -30 -21l-30 -22q-9 -7 -17.5 -13t-16.5 -14q-7 -6 -13.5 -12t-13.5 -13q-15 -13 -28.5 -26.5l-27.5 -27.5q-13 -13 -23 -26q-4 -5 -8 -8.5t-8 -8.5q-8 -9 -15 -18l-14 -18
q-13 -14 -25 -31q-8 -11 -16 -21.5t-16 -21.5t-15.5 -22.5t-15.5 -23.5q-9 -14 -18 -27.5t-17 -28.5q-8 -12 -15 -24.5t-14 -25.5q-11 -20 -22 -41.5t-21 -42.5l-12 -26t-12 -27q-5 -11 -9 -22t-8 -23q-3 -9 -6 -17.5t-5 -16.5q-5 -14 -8.5 -27.5t-7.5 -27.5
q-2 -8 -3.5 -16.5t-3.5 -16.5q-1 -5 -2 -11t-1 -12q0 -3 -1 -5.5t-1 -4.5t0.5 -4.5t-1.5 -4.5v-2q-1 -14 -2 -26t0 -26q2 -8 2.5 -16t1.5 -16q2 -11 5.5 -22.5t8.5 -22.5q7 -16 17.5 -28t26.5 -20q5 -2 11 -4t12 -2h6h10h2q11 -1 20.5 1t19.5 5q14 5 27 10.5t27 12.5
q13 7 25.5 15t24.5 16q11 8 21.5 16t21.5 16q8 7 16.5 13t16.5 14q9 8 17.5 14.5t16.5 14.5q7 6 13.5 12t12.5 12l18 16l18 16q6 5 11 10l10 10q6 5 11.5 10t11.5 10t11 10.5t11 10.5t11 10t11 10t11.5 11t11.5 11q8 8 16 15t16 15q10 8 19 16l18 16l22 18l22 18
q8 6 15.5 12t15.5 12q11 9 23 18t23 17q9 7 17.5 13t17.5 12q6 4 12 7.5t12 8.5q2 0 3 0.5t3 0.5t3 -1z" />
    <glyph glyph-name="D" unicode="D" horiz-adv-x="1114" 
d="M863 419q1 -3 0 -6t-1 -6q1 -4 1 -12q-2 -6 -1.5 -12.5t-1.5 -11.5q-1 -7 -1 -14.5t-1 -14.5q-2 -8 -3 -15t-3 -15q-2 -14 -5.5 -28t-7.5 -27q-4 -14 -8.5 -26.5t-10.5 -26.5q-3 -10 -7 -19.5t-10 -19.5q-5 -11 -11 -23t-14 -24q-6 -11 -13 -22t-14 -23q-3 -5 -6 -8.5
t-6 -7.5q-5 -7 -9 -12.5t-8 -10.5q-3 -5 -6 -8t-5 -6q-11 -12 -22 -23.5t-21 -22.5l-10 -10l-10 -10q-6 -6 -12.5 -11.5t-13.5 -11.5q-11 -8 -21 -15.5t-21 -15.5q-8 -6 -17 -12.5t-17 -11.5q-14 -9 -28.5 -17t-28.5 -16q-11 -6 -22.5 -11.5t-23.5 -10.5q-13 -6 -26 -11.5
t-25 -10.5q-14 -5 -27.5 -9t-28.5 -8q-21 -7 -59 -14t-81.5 -12t-87 -6t-76.5 4q-8 0 -12 2l-4.5 1.5t-3.5 0.5q-3 2 -1 4q2 4 5 4q8 7 15.5 12.5t15.5 12.5q13 13 25 26.5t25 28.5l12 14t13 15q9 12 18 23.5t17 24.5q13 19 25 38t23 38q8 13 14.5 25.5t12.5 23.5l12 22
t11 22q5 10 9 18.5t8 18.5l12 24q2 4 2 4.5t-5 2.5t-10 5t-10 7q-8 5 -15.5 10.5t-15.5 10.5q-16 11 -29.5 23.5t-27.5 24.5q-20 20 -34 41q-7 11 -12 22t-9 24q-7 13 -10 32q-1 5 -2 9.5t-2 8.5q-1 5 -1 9v7q-2 8 -2.5 16t-0.5 16q-1 7 -0.5 13.5t0.5 13.5q0 16 3 30
q1 11 3.5 21.5t4.5 20.5q6 19 12 37t14 35q8 13 15 25t15 25q11 16 23.5 31t26.5 29q12 13 26 23.5t29 19.5l24 15q14 7 28 13l28 12q11 3 20.5 6t19.5 6q6 2 13.5 3t14.5 3q5 1 10 1.5t10 1.5q19 3 40 3h14q4 -1 7.5 -0.5t6.5 -0.5h15q7 -2 14 -3t15 -3q10 -2 20.5 -4
t20.5 -5q2 -1 4.5 -1t4.5 -1q17 -5 28 -10q5 -3 9.5 -4.5t9.5 -3.5q14 -7 27.5 -14.5t25.5 -15.5q7 -5 12.5 -9t11.5 -9q8 -5 14 -11t12 -11q8 -8 15.5 -17t15.5 -18q8 -12 16.5 -25t15.5 -26q13 -23 21 -50q4 -9 7 -19t5 -19q2 -8 3.5 -14.5t3.5 -13.5q1 -5 1 -9t2 -7
q1 -6 1 -12t1 -12q1 -1 1 -4q1 -11 1 -21.5t1 -21.5zM839 399q2 3 1 7.5t0 7.5v15v20q-1 3 -1 6.5v6.5q-1 4 -0.5 8.5t-1.5 7.5q-1 6 -1 12t-1 11q-2 5 -2 8.5t-1 7.5q-2 6 -3.5 12.5t-3.5 12.5q-2 10 -4.5 18.5t-6.5 17.5q-3 10 -7.5 19.5t-9.5 19.5q-12 25 -29 47
q-4 6 -8.5 12t-9.5 11t-9 10t-9 9q-8 8 -16 15.5t-18 14.5q-6 5 -12.5 9.5t-11.5 8.5q-8 5 -15.5 9t-15.5 9q-12 5 -24.5 10t-25.5 10q-8 2 -17 4t-17 4q-11 3 -22 3q-5 1 -16 1q-7 1 -13 1.5t-12 0.5q-12 -2 -24 -2t-23 -2q-5 0 -10 -0.5t-10 -1.5q-7 -2 -13.5 -3t-13.5 -3
q-8 -3 -16 -5t-16 -6q-17 -6 -34 -13q-14 -6 -26.5 -13t-23.5 -15q-11 -6 -19.5 -13t-18.5 -15q-6 -6 -12.5 -12t-12.5 -12q-14 -14 -26 -32q-7 -8 -12.5 -16t-10.5 -16t-9 -15.5t-8 -15.5q-7 -13 -12 -27t-10 -29q-4 -11 -6.5 -22.5t-4.5 -23.5q-2 -5 -3 -11t-1 -12
q0 -5 -0.5 -10.5t-0.5 -10.5v-23v-16t1 -16q2 -7 2.5 -14t2.5 -14q1 -5 1.5 -10t1.5 -10l8 -22t9 -22q16 -34 45 -62q14 -14 30.5 -28t33.5 -26q8 -6 16.5 -12t18.5 -11l3 6q15 37 31 71q7 16 13.5 31.5t12.5 32.5q5 12 10 23.5t10 23.5q5 14 11 26.5t12 24.5q2 9 5.5 16.5
t6.5 15.5q5 11 9.5 23t10.5 24l6 12t6 13q5 11 10.5 23.5t10.5 24.5q8 16 16 31.5t15 32.5q3 6 6.5 11t5.5 10q5 9 9 17l8 16q7 11 13 22.5t14 22.5q3 4 6 7.5t8 5.5q8 2 12 0q2 0 2 -2q2 1 7 -1q1 -1 1 -2t-1 -1q-3 -2 -3 -3q-11 -13 -19 -30q-4 -8 -8.5 -16t-8.5 -16
q-5 -9 -9.5 -18.5t-9.5 -18.5q-8 -14 -16 -34q-7 -12 -13 -24.5t-12 -24.5q-15 -33 -29.5 -66t-27.5 -66q-5 -13 -10.5 -25t-10.5 -26q-5 -13 -10.5 -25.5t-10.5 -24.5q-4 -7 -7 -14l-6 -14q-3 -11 -7.5 -21t-8.5 -20q-6 -14 -12 -26.5t-12 -26.5q-7 -17 -14 -30q-3 -3 1 -4
q4 -3 8 -4.5t9 -3.5h1h1q2 -1 8 -3q2 -1 1 -2l-2 -1v1q-7 0 -14 3q-5 2 -8.5 2.5t-7.5 2.5q-2 -5 -4.5 -8.5t-4.5 -7.5q-5 -10 -8.5 -19t-8.5 -19q-7 -12 -13 -24t-14 -24q-7 -14 -13.5 -26t-14.5 -25q-8 -14 -16 -26.5t-16 -25.5q-5 -8 -10.5 -15t-11.5 -15q-3 -5 -6 -9
l-6 -8q-6 -8 -11 -14.5t-10 -13.5q-6 -8 -12 -14.5t-12 -13.5q-14 -19 -31 -33q-5 -5 -10 -10.5t-11 -10.5q-7 -5 -12.5 -9.5t-13.5 -9.5q16 -5 50.5 -5t75.5 4t82 11t71 16q12 5 24 8.5t25 8.5q14 5 26.5 10t24.5 10q11 5 21 10l20 10q16 8 31 17t29 18l27 18q11 8 21 15
t20 15q7 6 13.5 11.5t13.5 10.5q5 6 10.5 11.5l10.5 10.5q7 5 12.5 11.5t10.5 12.5q7 6 12 11.5t10 12.5q5 4 8 8t7 9q7 8 13 17t13 17q8 11 14.5 21.5t13.5 20.5q4 8 8 14.5t7 12.5q4 8 7.5 14.5t6.5 13.5q6 13 12 26.5t11 27.5q4 10 7 20t7 21q2 10 5 20t5 21l4 18t4 20
q0 8 1 15t1 15q0 5 1 11.5t1 11.5v2z" />
    <glyph glyph-name="E" unicode="E" horiz-adv-x="767" 
d="M768 810q36 -1 43.5 -10.5t-5 -23.5t-38.5 -29.5t-56.5 -28.5t-59.5 -21t-46 -5q-2 0 -5.5 1t-4.5 3q5 3 5.5 2t6.5 -2q4 2 4.5 2t5.5 -2q23 3 47.5 11t47 18t41.5 21.5t30.5 22t14.5 18.5t-7 12q-9 5 -11 4t-6 0q-52 -4 -108.5 -25.5t-112 -54t-107 -74t-92.5 -85
t-69 -87.5t-36 -81q-11 -46 11.5 -68.5t67.5 -17.5q16 1 34.5 6t36 10.5t30.5 11.5t18 9q7 5 27 17t42 24.5t40 21.5t21 8q5 -3 6 -4q0 -4 -4 -4q-31 -21 -62 -36.5t-69.5 -38.5t-88.5 -60.5t-118 -103.5q-83 -79 -130 -154t-64.5 -134t-7 -95.5t43.5 -39.5q29 2 64 22
t74.5 51t84 70t92 80t99 80t106.5 69q4 2 9.5 3t6.5 -1q0 -3 -1 -3q-5 0 -20 -9t-31.5 -19.5t-31 -20t-17.5 -12.5q-35 -24 -80.5 -63.5t-94 -82.5t-98 -83t-92.5 -64t-77.5 -26.5t-52.5 29.5q-8 13 -10.5 25.5t-3 23t0.5 17.5l1 7q0 2 -0.5 5t1.5 6q0 8 2 15t4 15
q15 63 55 125t92.5 119t112 106t113.5 86q-18 -5 -28.5 -7.5t-20.5 -4t-22 -1.5t-32 1q-35 0 -54.5 24t-13.5 55q10 52 43 104t80.5 99.5t104 88.5t114 71t111 46.5t94.5 15.5z" />
    <glyph glyph-name="F" unicode="F" horiz-adv-x="893" 
d="M762 728q41 38 83 64.5t76.5 41t57 16.5t24.5 -8q3 -7 -9 -18.5t-35 -25.5t-55.5 -29.5t-70.5 -29.5q-20 -7 -30.5 -10.5t-16 -5t-7 -2.5t-2.5 -2q-53 -53 -93 -96.5t-74.5 -94t-68.5 -114.5t-76 -158q15 0 47 2.5t65 4.5t58.5 1.5t28.5 -6.5q0 -5 -4 -5.5t-5 -0.5
q-11 2 -23 1t-23 -1q-39 0 -73 -3t-72 -3q-2 0 -3 -1.5t-2 -2.5q-34 -81 -61 -145.5t-51 -115t-46 -89t-46 -68t-51.5 -51.5t-61.5 -40q-14 -8 -22.5 -10t-12.5 -2t-4.5 2t1.5 3q-4 2 -0.5 5t5.5 2q3 -3 8 1q62 28 106 79.5t79 118t66.5 146t69.5 164.5q-22 -3 -57 -7
t-73 -10.5t-73 -17.5t-57 -28q-4 -3 -5 -1t-1 4q5 13 27 23t52 18t63.5 13.5t61.5 9t46.5 6t19.5 3.5q30 76 68.5 148t80 133t81.5 106.5t72 68.5q-2 0 -3.5 -0.5t-3.5 -0.5q-52 -14 -123 -26.5t-148 -27t-154 -34t-140 -48t-105 -68.5t-50 -96q4 -11 -1.5 -12.5t-4.5 10.5
q2 48 31 84.5t75 65t106 49t124 36.5t128.5 27t121 20.5t100 18.5t65.5 19zM988 838q5 5 -3 5q-21 -3 -47 -15t-51.5 -27.5t-48.5 -32.5t-38 -30q21 7 47.5 17.5t52.5 23.5t49.5 27.5t38.5 31.5z" />
    <glyph glyph-name="G" unicode="G" horiz-adv-x="824" 
d="M342 641v-2l1 1q0 1 -1 1zM334 641q-1 0 -1 -2l1 1v1zM342 639h-1h1zM806 866q4 -24 -16.5 -45t-56 -40.5t-81 -36t-90 -30.5t-83.5 -25t-62 -19l-22.5 -7.5t-13.5 -7t-13 -13l-21 -25.5q-103 -128 -145.5 -227.5t-40 -160t43 -75t104.5 27.5q43 29 88.5 74.5t88.5 98.5
t82 107t70 99.5t53 77t30 38.5q3 2 10.5 1.5t8.5 -8.5q0 -18 -17.5 -70t-46.5 -122t-65 -150t-73.5 -154.5t-71.5 -136t-59 -94.5q-48 -77 -98.5 -114t-95.5 -46t-81 4t-53.5 36.5t-13 53t40 52.5t105.5 34t183 -1q28 40 60.5 100t66 129t65.5 141t58 135.5t44.5 112.5
t24.5 73q-16 -20 -41 -56.5t-57 -81.5t-69 -95.5t-76 -97t-79.5 -85.5t-78.5 -63q-19 -11 -45.5 -21t-48.5 -7q-1 0 -1.5 -0.5t-2.5 -0.5q-13 2 -31.5 7.5t-31.5 30.5q-16 30 -13.5 70.5t17 84.5t37.5 89.5t48.5 85.5t50 73t42.5 52v1q-3 0 -7.5 -2.5t-28.5 -14.5
q-42 -21 -83 -50.5t-78 -66t-67 -79t-49 -88.5q-1 -2 -1 -4t-1 -4q-1 -1 -5 -1t-1.5 11.5t13 32t29.5 48.5t48 61q48 55 111 98t129 72q3 1 4.5 2t4.5 4t8.5 9.5t16.5 18.5q20 23 53.5 53.5t75.5 62.5q60 45 113 68.5t93.5 29.5t65.5 -3.5t29 -30.5zM387 -49
q-107 10 -173 -0.5t-98.5 -31t-36.5 -46.5t12.5 -47t49.5 -31t74 0.5t86 46.5t86 109zM789 846q7 17 -3.5 32.5t-42 16t-84.5 -21t-129 -77.5q-25 -19 -48.5 -39.5t-42 -38.5t-31 -31t-15.5 -17q3 0 17 5t39 13q52 17 110.5 33t109.5 37q15 6 33 15t35.5 20t31.5 24.5
t20 28.5z" />
    <glyph glyph-name="H" unicode="H" horiz-adv-x="931" 
d="M1035 898q21 -6 17 -38t-27.5 -80t-63.5 -106.5t-91.5 -117.5t-112 -114t-123.5 -95q-8 -5 -11.5 -7.5t-5.5 -4.5t-3 -5t-4 -8q-13 -26 -34 -75t-43.5 -109.5t-43 -125t-31.5 -122t-9 -100.5t25 -60q7 -6 11.5 -3t6.5 -1q1 -2 -0.5 -2.5t-2.5 -1.5q-2 -3 -8 -3
q-35 7 -44.5 45.5t-2 94.5t27 123t43 131.5t46 119t35.5 85.5q-83 -48 -134.5 -75.5t-81 -43t-41.5 -23t-14 -14.5q-9 -23 -24.5 -68.5t-36.5 -100t-45.5 -111.5t-50.5 -104.5t-53 -78.5t-51 -33q-14 -2 -24 6.5t-12 18.5q-1 7 -3.5 15.5t-3.5 21.5t0 31.5t6 44.5
q20 95 75.5 174.5t133.5 142.5q17 13 33 23t21 14q6 4 7.5 4t2 1.5t2.5 8.5t9 26q34 91 67.5 173.5t63 153t51.5 127t33 95.5t8 58.5t-24 16.5q-8 -2 -29 -13t-46 -32q-58 -47 -89 -86.5t-56 -72.5q-2 -3 -2.5 -3.5t-1.5 -2.5q-35 -55 -58.5 -101t-37 -80.5t-17.5 -56.5
t1 -28q2 -5 -2 -7t-8 0q-2 1 -3 2.5t-1.5 5.5t0.5 12t4 23q9 45 32 95.5t54.5 100.5t68.5 96t74 81t71.5 56t60.5 22q14 1 23.5 -8.5t10.5 -23.5q1 -21 -10 -59t-29.5 -87t-43 -106.5t-49.5 -119t-49.5 -124.5t-43.5 -121q36 18 79 42q37 20 85.5 47.5t103.5 60.5q2 1 3 3
t6 12.5t16 33.5t32 66q14 28 40.5 74.5t60.5 99t72.5 105t76.5 93t73.5 63t62.5 14.5zM68 -321q19 11 39.5 41.5t40.5 72t39.5 90t37.5 97t33 93t26 77.5l-11 -7.5t-27.5 -19.5t-35.5 -28t-37 -33q-45 -46 -74.5 -95t-46.5 -94.5t-22.5 -85t-2 -67t14 -39.5t26.5 -2z
M1028 825q15 36 12.5 50t-18.5 11t-41.5 -21t-55.5 -46.5t-61 -65.5t-58 -78q-3 -5 -10 -15t-18 -28l-27.5 -45t-38.5 -66q-17 -30 -32.5 -59t-26.5 -52q-14 -27 -25 -51q3 -2 26 13t57.5 44t77.5 71.5t86.5 94.5t83.5 113.5t69 129.5z" />
    <glyph glyph-name="I" unicode="I" horiz-adv-x="899" 
d="M760 679q-4 0 -5 -1q-14 -7 -28.5 -13.5t-29.5 -12.5q-10 -5 -20 -9t-21 -8q-16 -5 -31 -11t-32 -11q-10 -3 -20 -7t-21 -7q-8 -2 -16 -5t-16 -5q-9 -2 -16.5 -5t-15.5 -6q-8 -2 -16 -5t-16 -5t-15 -5t-15 -5l-54 -21q-12 -6 -25 -11.5t-26 -13.5l-27 -15
q-15 -10 -29 -20.5t-27 -22.5q-17 -15 -30 -33q-11 -17 -19.5 -35t-12.5 -38q-3 -11 -3 -23q1 -4 0 -8t0 -8l4 -18t6 -17q2 -6 5 -8q3 -3 0 -4q0 -2 -4 -1q-1 1 -2.5 1.5t-2.5 2.5q-5 5 -7 10.5t-4 11.5q-3 9 -5 18.5t-1 18.5q2 15 4.5 29.5t8.5 28.5q4 9 9 18t10 17
q5 7 10.5 13.5t11.5 13.5q8 9 16.5 17.5t19.5 16.5q7 5 14.5 10.5t15.5 10.5q9 6 18.5 11.5t19.5 10.5q17 8 34 15.5t35 15.5q11 5 22.5 8.5t22.5 8.5q14 5 28.5 9.5t29.5 9.5l45 15q15 4 34 11q14 5 27.5 9.5t26.5 9.5l16 6l16 6q13 5 25.5 10t25.5 11q14 6 28.5 13
t28.5 14q3 1 5.5 3.5l5.5 5.5q8 11 16.5 21.5t17.5 21.5q11 13 23 25.5t25 24.5q16 16 34 31q11 8 22 15t24 12q5 2 10.5 3.5t10.5 -0.5q13 -3 9 -16q-2 -5 -4.5 -10t-6.5 -10q-7 -8 -13 -16t-14 -14q-8 -7 -15 -13t-15 -13q-11 -8 -21 -15t-21 -14q-5 -3 -10.5 -6.5
t-10.5 -6.5q-10 -6 -19.5 -11.5t-19.5 -11.5q-3 -2 -4 -3q-6 -7 -11 -14t-10 -15q-8 -12 -15.5 -24t-15.5 -24q-16 -25 -30 -50t-28 -51q-7 -14 -14 -28.5t-14 -28.5q-6 -11 -11 -22l-10 -22q-5 -8 -8 -17t-7 -17l-24 -51q-2 -5 -4 -10.5t-4 -11.5q-5 -11 -10 -21.5
t-10 -21.5q-6 -13 -12 -25t-11 -25q-4 -11 -8.5 -20.5t-9.5 -18.5q-6 -14 -12 -27t-13 -26q-8 -17 -16.5 -33t-17.5 -33q-5 -10 -10.5 -19t-10.5 -18l-10 -18l-10 -18q-5 -7 -10 -14.5t-10 -14.5l-18 -27q-1 0 -1 -2q-26 -34 -52 -64q-16 -18 -34 -34q-11 -10 -21.5 -19
t-21.5 -17q-24 -20 -52 -32q-16 -9 -38 -16q-4 -1 -8.5 -2t-8.5 -2q-8 -2 -15.5 -2.5t-15.5 -1.5q-11 -1 -22 1t-22 6q-22 8 -38 24q-11 11 -17 25l-4 10t-3 10q-2 8 -4 16.5t1 16.5v3q-1 11 0.5 20.5t3.5 19.5q3 13 7 25t9 23t10 20.5t10 18.5q9 14 19 26.5t21 23.5
q19 22 44 39l18 14t19 12q14 8 28.5 14.5t29.5 11.5q6 2 12 3l12 2q4 0 6 1q4 3 11 1q2 -1 6 -1q19 1 35 -10q5 -3 7 -7.5t4 -9.5q3 -8 1.5 -15.5t-3.5 -15.5q-8 -18 -18 -36q-5 -7 -9 -14t-9 -14q-7 -9 -14 -17.5t-18 -14.5q-3 -2 -11 -4h-5q-2 0 -2 2q-1 1 1 1q2 2 4 3
l4 2q3 3 6 5.5t6 5.5q14 15 24.5 32t19.5 36q5 8 9 21q3 18 -3 28t-15 12q-14 6 -31 4q-10 -2 -19 -4t-18 -6q-10 -5 -20 -9.5t-20 -9.5q-11 -7 -22 -15l-22 -16q-8 -6 -15.5 -13t-15.5 -15t-15.5 -17t-15.5 -19q-20 -26 -32 -56q-5 -11 -9 -22t-6 -22q-2 -7 -2.5 -13.5
t-1.5 -13.5q-1 -5 -1 -9v-8q1 -3 -0.5 -6t-0.5 -6q2 -5 2.5 -10t2.5 -10q2 -8 4.5 -14.5t5.5 -12.5q12 -23 36 -33q6 -4 12 -6.5t14 -3.5q6 -1 11.5 -1.5t11.5 0.5q17 1 33 6t32 13q7 3 13.5 6t12.5 8q8 5 15 10.5t14 10.5q11 8 21 17l20 18q7 6 12.5 12t11.5 13
q5 5 10 10.5t10 11.5q8 8 14 17.5t14 18.5q11 17 22 31q12 16 20 32q11 19 21.5 37.5t21.5 38.5q7 13 13.5 26.5t13.5 27.5q8 14 14 26.5t13 26.5l6 14t7 15l21 45q2 5 6 13q5 14 11.5 28t12.5 28q5 9 8.5 18t8.5 17q3 8 7 16.5t7 16.5q4 8 7 15t7 15q5 11 10.5 22t10.5 22
q9 20 20 40q14 29 33 61l16 28l16 28q9 14 17 26.5t16 24.5q4 5 7.5 10.5t7.5 11.5v1v-2zM809 717q2 1 4 1q12 8 24.5 15.5t23.5 15.5q8 6 15.5 11.5t15.5 10.5q10 8 19 16.5t18 16.5q13 15 21 29q2 2 2.5 5t1.5 5q2 7 -5 5q-1 0 -1 -0.5t-1 -0.5q-10 -4 -18.5 -9.5
t-16.5 -12.5l-18 -16l-18 -16q-8 -8 -16 -16.5t-16 -16.5q-6 -8 -12.5 -15.5t-12.5 -15.5q-2 -3 -5 -5.5t-5 -6.5q-1 0 -1 -1z" />
    <glyph glyph-name="J" unicode="J" horiz-adv-x="1011" 
d="M896 762q-6 -2 -13.5 -5.5t-13.5 -6.5q-13 -5 -25.5 -10t-26.5 -10q-12 -3 -24.5 -7t-25.5 -8q-10 -2 -19.5 -4.5t-19.5 -4.5q-22 -7 -39 -8q-8 -2 -16 -3t-16 -3t-16.5 -2.5t-16.5 -2.5q-6 -1 -12 -2.5t-13 -0.5q-3 1 -6 -0.5t-6 -1.5h-6t-6 -2h-2q-7 1 -13 -0.5
t-12 -1.5q-9 -1 -17.5 -2.5t-16.5 -2.5q-7 -1 -13.5 -1.5t-12.5 -2.5q-8 -2 -16 -3t-16 -3q-6 -1 -13 -2t-14 -3q-11 -3 -22.5 -5t-22.5 -7q-8 -3 -16 -5.5t-16 -5.5l-18 -8t-18 -9q-14 -7 -27 -15t-25 -18q-11 -10 -21 -20t-18 -22q-13 -18 -21 -34q-5 -8 -7.5 -17
t-4.5 -18q-2 -5 -2.5 -10t-1.5 -10q-1 -8 0.5 -14.5t3.5 -13.5q0 -2 1 -2.5t0 -2.5q0 -2 0.5 -3.5t-1.5 -1.5q-4 -2 -6 2q-9 11 -10 29q0 29 12 58q6 15 14.5 28t18.5 25q27 32 63 54q26 18 59 30q24 10 53 18l16 4l16 4t14.5 2.5t13.5 2.5l18 3q5 2 9.5 2t8.5 2t8.5 1.5
t7.5 0.5q6 0 12 1.5t12 0.5q3 0 6 1t6 1h6t6 2q0 1 2 1q7 -2 13 -0.5t13 2.5q8 1 17 2t17 2t15 2t15 2q9 2 18 3.5t19 3.5q14 3 27.5 6t27.5 6q18 5 36.5 10t35.5 11q15 5 29 10.5t28 12.5q8 3 17 7.5t18 9.5q5 2 8 6.5t7 8.5q13 19 30 36q3 3 11 9q4 5 8.5 7.5t9.5 4.5
q9 5 18 -1q4 -1 1 -8q-1 -2 -1 -3.5t-2 -3.5q-11 -13 -23 -23.5t-26 -18.5q-3 -2 -5 -5l-4 -6l-12 -16t-11 -17l-20 -32t-19 -33q-4 -8 -7.5 -14t-7.5 -13q-5 -8 -8.5 -17t-8.5 -17l-16 -32t-16 -33q-10 -21 -19 -41.5t-19 -40.5q-5 -11 -10 -23t-10 -23q-11 -24 -21 -46.5
t-21 -45.5q-8 -16 -15 -32t-15 -32q-9 -17 -17.5 -35t-16.5 -35l-42 -81q-9 -17 -18.5 -33t-19.5 -33q-10 -15 -19.5 -30.5t-18.5 -30.5q-8 -11 -16 -21t-16 -21q-15 -22 -31.5 -41.5t-33.5 -38.5q-11 -12 -23.5 -24t-25.5 -23q-12 -10 -23.5 -19t-24.5 -18q-13 -8 -26 -15
t-27 -13q-11 -5 -21.5 -9.5t-21.5 -6.5l-27 -6q-11 -2 -23 -2h-23q-16 0 -31 4.5t-30 10.5q-18 7 -34 22q-8 6 -14 12.5t-12 14.5q-12 16 -22 39q-4 10 -6 20t-4 21q-2 9 -2 18v18q1 14 2.5 27t4.5 25q9 36 22 64q7 16 15.5 30.5t17.5 29.5q22 35 46 60q9 11 18.5 21
t19.5 19q12 11 24 21t24 19q27 19 60.5 37t68.5 27t70.5 6t66.5 -26q23 -19 31 -54q2 -8 3 -16.5t0 -17.5q-3 -38 -23 -77t-49.5 -73t-66 -61.5t-72 -42.5t-67.5 -15.5t-52 19.5q-8 6 -4 16q2 4 2 3q3 0 3 -2q2 -6 4 -7q20 -19 49.5 -17t62.5 18t67 43.5t61.5 61t45.5 69.5
t21 68.5t-13.5 59t-57.5 41.5q-45 8 -84.5 -5.5t-77.5 -34.5q-16 -11 -31.5 -21.5t-30.5 -22.5q-11 -10 -20.5 -19t-19.5 -19q-16 -16 -29 -32q-32 -40 -57 -85q-10 -19 -18 -39.5t-13 -42.5q-2 -7 -3 -14t-3 -14v-10.5t-1 -10.5q-4 -11 -2 -21l2 -12t1 -13q1 -8 3.5 -15
t4.5 -15q3 -11 8.5 -20.5t11.5 -18.5q9 -14 20.5 -24t23.5 -19q18 -11 36 -15q15 -5 30 -5t30 1q5 0 11 1.5t11 2.5q18 4 36 12q70 27 131.5 88.5t116 144.5t104 182t97 200.5t94.5 199t96 178.5q2 2 2 3.5t1 2.5l1 1v1q-1 0 -1 -2z" />
    <glyph glyph-name="K" unicode="K" horiz-adv-x="1032" 
d="M1337 938q3 0 0 -3q-6 -11 -17 -21q-14 -16 -32 -29q-26 -25 -53 -47q-13 -11 -25.5 -22t-25.5 -22q-12 -11 -24 -20.5t-24 -19.5q-12 -11 -24 -21.5t-24 -21.5q-12 -10 -23.5 -19t-22.5 -18l-42 -36l-30 -24q-14 -12 -27.5 -24t-27.5 -23q-17 -14 -35 -27.5t-36 -27.5
q-19 -14 -37.5 -28t-38.5 -28q-12 -9 -24.5 -18t-26.5 -17q-13 -10 -26.5 -19t-26.5 -18q-6 -4 -11 -7l-10 -6q-20 -13 -39.5 -25t-39.5 -24q-14 -9 -26 -16q-6 -2 -5 -8q1 -3 0.5 -6t0.5 -7q2 -12 1.5 -24t0.5 -24q0 -11 -0.5 -22t-0.5 -22v-34v-51.5t0.5 -60t2 -60
t3.5 -50.5t6 -32l4 -22t6 -22q5 -16 13 -26t22 -18q11 -6 14.5 -9.5t3 -5t-4 -1t-5.5 0.5q-42 12 -58 60q-12 33 -15.5 68t-6.5 70q-2 8 -2.5 34t-1 56.5t-1 60t-0.5 44.5q1 5 0 11t0 11q1 9 0 17.5t1 17.5q0 8 -0.5 14.5t-1.5 14.5q-4 -8 -7.5 -14.5t-6.5 -14.5l-18 -36
t-18 -37l-18 -34t-18 -35q-6 -12 -12.5 -24t-13.5 -24q-8 -15 -17 -30t-17 -31q-8 -12 -15 -24t-15 -23q-6 -9 -12 -18.5t-12 -18.5q-8 -13 -20 -27q-8 -11 -16.5 -21.5t-16.5 -21.5q-5 -6 -9.5 -12t-9.5 -12q-17 -19 -35.5 -36.5t-39.5 -32.5q-14 -9 -28 -17t-30 -13
q-4 -2 -8 -2.5t-9 -1.5t-9 -1h-9q-2 -1 -5 -1q-15 2 -28 10q-10 6 -16 15t-9 20q-2 5 -3 9t-1 9v9t-1 9q-1 11 0.5 21t3.5 21q3 20 9 38.5t14 36.5q7 14 13.5 26t14.5 25q14 21 29.5 41t32.5 38q9 10 18.5 19t19.5 17q9 9 18.5 16.5t18.5 15.5q10 8 20.5 15.5t20.5 15.5
q16 11 31.5 21t31.5 19q14 9 28.5 17.5t29.5 16.5q11 7 23 13t23 13q24 13 49 26q9 5 17.5 10.5t17.5 9.5q3 0 3 3q4 7 7 13.5t6 13.5q5 11 10.5 22t10.5 22q5 10 10 19.5t10 20.5q8 17 16.5 33.5t16.5 33.5q8 14 14 26.5t13 26.5q5 10 10 19l10 18q15 28 30 55.5t31 54.5
q10 17 20 34.5t21 34.5q8 11 14 22t14 22q6 10 12 19l12 18q8 10 14 20l12 20q2 3 4.5 5.5t3.5 6.5q1 0 1 2h1q1 0 1 2h1v1v-1h-1q-1 0 -1 -2h-1q-1 0 -1 -2h-2q2 0 2 2l1 2q2 0 1 1l-1 -1q-1 0 -1 -2q-2 0 -2 -2q-4 0 -5.5 -2.5t-4.5 -4.5q-12 -10 -24 -19l-24 -18
q-11 -8 -20.5 -15t-19.5 -14q-7 -5 -14 -9.5t-14 -9.5q-21 -14 -42 -27t-44 -25q-17 -9 -33 -18t-33 -17q-15 -8 -30 -15t-32 -14q-20 -10 -40.5 -19t-40.5 -18q-14 -7 -27 -14t-26 -15q-17 -10 -28 -24q-7 -8 -11.5 -16t-4.5 -18q0 -8 1 -13q3 -10 10 -11q1 -1 1 -1.5
t1 -1.5q0 -1 -2 -1q-1 -1 -2 -1t-1 -1q-4 2 -5 3q-11 5 -11 16q-2 16 3.5 28.5t16.5 23.5q13 12 28 21.5t31 17.5q19 10 38 18.5t39 17.5q18 8 35 16t34 17q36 18 72 39q17 8 32 17t31 19q18 11 35.5 22.5t34.5 23.5q32 23 65 50q11 9 21.5 18.5t21.5 18.5q6 5 11 11l9 6
q2 1 4 1q3 0 5 -1q5 -2 5.5 -2.5t-1.5 -5.5t-5 -9t-6 -9q-8 -12 -16.5 -24t-16.5 -25q-12 -18 -23.5 -36.5t-23.5 -37.5q-6 -10 -12 -19.5t-12 -20.5q-18 -29 -35.5 -59.5t-34.5 -61.5q-9 -17 -18.5 -34t-17.5 -34q-5 -11 -10.5 -20.5t-10.5 -19.5q-5 -11 -11 -22t-11 -22
t-11 -22t-11 -22l-12 -24t-12 -23q-4 -8 -7 -15t-6 -15q-5 -7 -8 -14q0 -2 -1.5 -3t-1.5 -3v-1q6 2 8 4q9 5 18 10.5t18 11.5l36 22t35 22q16 11 31.5 21t30.5 21q20 14 39.5 28t38.5 28q27 20 53.5 40t52.5 40q19 15 37.5 30t36.5 31q11 9 22 17.5t22 18.5q11 8 21.5 17.5
t21.5 18.5q10 8 20.5 17t20.5 17q11 8 20.5 17t19.5 17q14 11 27 22.5t26 23.5q11 8 20.5 17t20.5 17q8 7 15.5 13.5t15.5 13.5q8 8 16.5 14.5t16.5 14.5q5 5 10.5 10t11.5 10l10.5 10.5t12.5 10.5h1h1zM486 274q1 1 0 3q-1 1 -2 0q-9 -5 -17 -9.5t-16 -9.5
q-18 -10 -36 -19.5t-36 -20.5q-15 -8 -30 -16.5t-29 -17.5q-17 -10 -33 -20t-32 -21q-11 -8 -20.5 -14.5t-19.5 -14.5q-14 -11 -26.5 -21.5t-24.5 -22.5q-10 -9 -19.5 -19t-19.5 -20q-7 -8 -13 -15.5t-12 -15.5q-5 -8 -10 -14t-10 -14q-8 -13 -15 -25.5t-13 -26.5
q-15 -30 -24 -63q-3 -16 -5 -31.5t0 -32.5q1 -5 1 -11t2 -13q5 -17 14 -28q5 -5 10.5 -9t13.5 -5q4 -1 9 -1h3h6q10 1 21 6q29 11 57 33q18 15 35 31t32 34q7 8 13 15t12 15t12.5 17t13.5 18q8 12 16.5 24t16.5 25l33 54q12 22 24 43.5t24 44.5l14 26l14 26q5 9 9 18.5
t9 18.5q5 8 8 16t8 16q6 11 11.5 23t10.5 24q3 5 5.5 10t4.5 10z" />
    <glyph glyph-name="L" unicode="L" horiz-adv-x="721" 
d="M886 859q11 -1 17 -8.5t4 -18.5q-3 -20 -17.5 -44t-31 -45.5t-30.5 -37.5t-16 -19q-17 -20 -44.5 -46t-61 -54.5t-70 -57t-69.5 -53.5t-61 -43.5t-44 -26.5q-7 -4 -11 -11q-50 -90 -89.5 -168.5t-73 -143.5t-64 -114.5t-63.5 -79.5q-1 -1 -1.5 -2t-1.5 -2l-2 -2
q9 -4 20 -9q9 -5 22 -11.5t28 -15.5h1q50 -31 105 -66t114.5 -59.5t121.5 -32t127 17.5q5 0 8 1q5 0 5 -3.5t-4 -5.5q-2 -1 -4 -1t-4 -1q-4 -3 -8 -3.5t-8 -2.5q-9 -3 -18 -4t-18 -3q-83 -9 -147 7t-119.5 44.5t-106 63t-105.5 61.5l-20 10t-7.5 -1t-13 -10.5t-35.5 -19.5
q-8 -3 -9.5 -4t-9.5 -2q-7 -1 -7.5 -2t-3.5 -1h-12t-10 0.5t-10.5 3t-12.5 8.5q-3 1 -3 3q-1 7 -1.5 13.5t4.5 13.5q13 17 31 22t41 5q14 0 26.5 -2.5t24.5 -6.5q2 -1 3 0q45 47 77.5 105.5t64.5 123.5q29 60 53 107.5t41 80.5q20 39 36 68q-2 0 -8 -4q-6 -5 -23 -14.5
t-39.5 -22.5t-47.5 -28t-48 -30t-41.5 -29.5t-26.5 -26.5q-1 -1 -1.5 -1t-1.5 -1q-1 -2 -5.5 -3t-4.5 1q-2 9 20.5 27t55 39t68 41.5t59.5 35.5q18 11 28.5 17t16.5 10t10.5 9.5t10.5 15.5t16 27t28 46q3 8 9 14q28 40 58.5 83.5t67.5 86t82.5 84t103.5 78.5q13 8 26.5 14.5
t27.5 11.5q5 2 8.5 2t7.5 1q4 2 8 1.5t8 -0.5zM45 -161q10 -2 23 2.5t25.5 11t21.5 14t12 10.5q-4 2 -11.5 4t-15.5 3.5t-16 2.5t-12 1q-6 0 -10 -1t-12 -5q-5 -2 -7.5 -3.5t-10.5 -8.5q-7 -8 -2 -20q3 -8 15 -11zM892 826q5 25 -15.5 23t-55 -23t-77 -56t-79.5 -76
q-54 -59 -100.5 -123t-88.5 -135q-5 -9 -9 -14t4 -0.5t33 21.5t76 54q20 14 49.5 37.5t62.5 52.5t66.5 61.5t61.5 64t47.5 61t24.5 52.5z" />
    <glyph glyph-name="M" unicode="M" horiz-adv-x="1139" 
d="M1275 890q2 -2 0 -4q-6 -8 -8 -12q-14 -16 -28 -34q-8 -10 -15.5 -19.5t-15.5 -18.5q-4 -6 -8.5 -12t-8.5 -12q-8 -11 -15.5 -21t-15.5 -20q-6 -8 -12 -17t-12 -17q-9 -11 -16.5 -22.5t-15.5 -22.5q-7 -11 -14 -20.5t-14 -19.5q-8 -11 -14.5 -22t-14.5 -22
q-8 -12 -15.5 -24.5t-15.5 -24.5q-9 -14 -17.5 -28t-16.5 -28q-11 -17 -21 -35t-21 -36q-12 -23 -24.5 -46t-24.5 -46q-16 -27 -27 -52q-7 -12 -13 -25l-12 -26q-5 -10 -10.5 -20t-10.5 -21q-5 -10 -10 -20.5t-10 -20.5l-15 -33q-4 -8 -7.5 -15.5t-7.5 -15.5q-5 -13 -11 -26
t-11 -26q-7 -16 -13.5 -31t-12.5 -31q-9 -20 -16.5 -40.5t-15.5 -41.5q-11 -26 -21 -51.5t-19 -51.5l-12 -30t-11 -31q-3 -8 -6 -16.5t-5 -17.5q-1 -2 -2 -3.5t-4 -1.5h-3h-1q-7 0 -9 2q-3 2 -1 9q2 10 4 15q7 17 11 31q8 21 15 41.5t15 40.5q12 33 24.5 66t24.5 65
q7 19 16 39q6 18 13 36t15 36q6 14 12 26.5t11 25.5q7 16 14 31.5t15 31.5t15.5 32.5t16.5 33.5q3 8 7 15.5t9 15.5q9 19 18.5 37t19.5 37q10 17 19 33.5t18 33.5t18.5 32.5t18.5 32.5l30 48q6 10 12 19t12 20q5 8 10.5 16t11.5 16l2 4l2 4q4 4 4 7h-1q-1 0 -1 -1
q-7 -9 -14.5 -18t-14.5 -18q-9 -11 -18 -22.5t-17 -22.5q-6 -8 -13 -16t-12 -16q-6 -8 -12.5 -15.5t-11.5 -15.5q-5 -6 -9.5 -12t-9.5 -13t-10 -13t-10 -13t-10.5 -13.5t-10.5 -14.5q-4 -6 -9 -11.5t-9 -12.5q-11 -15 -22 -29t-22 -29l-12 -16l-12 -16q-8 -10 -15 -19
t-14 -19q0 -1 -1 -1q-15 -20 -32 -41q-4 -6 -9 -11.5t-8 -11.5q-5 -6 -10 -11.5t-10 -10.5q-7 -9 -14.5 -16.5t-15.5 -14.5q-10 -8 -20 -11h-2q-10 0 -14 3q-6 3 -9 13q-1 5 -1 9v9t0.5 9t0.5 9q2 24 7.5 47.5t11.5 46.5q4 14 7.5 27.5t7.5 26.5q2 9 4.5 17.5t5.5 16.5
q6 20 12 39t13 39q8 21 16 42.5t16 43.5q0 1 1 2q2 6 2 8q-4 -6 -8 -11t-8 -11q0 -1 -1 -2q-6 -6 -11 -13.5t-11 -14.5q-5 -7 -10 -13.5t-9 -14.5q-2 0 -2 -2q-8 -10 -15.5 -19.5t-14.5 -18.5q-11 -14 -21 -28t-21 -28l-24 -30q-8 -11 -16.5 -21.5t-16.5 -21.5
q-29 -38 -59.5 -74t-60.5 -73l-14 -16l-14 -16l-36 -39q-9 -10 -18 -19.5t-18 -18.5q-13 -12 -25 -24.5t-26 -23.5q-8 -8 -17 -15.5t-18 -15.5q-24 -20 -51 -36q-9 -5 -18 -9t-19 -7q-6 -2 -12 -3l-12 -2h-6q-6 1 -12.5 1.5t-12.5 3.5q-23 8 -36 34q-3 6 -4.5 12t-3.5 13
q-2 10 -3 19t-2 19q0 5 0.5 10.5t0.5 10.5q1 10 1.5 19t2.5 18q3 22 9 44q4 17 10 33t13 32q5 12 10 22.5t11 21.5q5 8 9.5 15t9.5 14q7 9 14 17.5t15 16.5q5 4 12 4l4 -2l1 -1q2 -2 -1 -2q-5 -1 -7.5 -3.5t-4.5 -5.5q-11 -11 -19.5 -23.5t-16.5 -25.5q-12 -21 -21.5 -42
t-17.5 -42q-13 -38 -17 -74q-2 -9 -3 -18t-3 -18q2 -5 0.5 -9.5t-0.5 -9.5q1 -8 1.5 -14.5t1.5 -14.5q2 -25 13 -42q6 -10 14 -17t20 -9q1 -1 5 -1q3 1 7 1t6 -1q8 2 15 4t15 5q14 7 27 14.5t25 16.5q12 8 22 16.5t21 16.5q7 7 14 13.5t15 13.5q10 9 19.5 18.5l19.5 19.5
l8 8t8 9q8 9 16.5 18t16.5 17q1 1 2 1q8 9 15 18t15 17q27 31 54 63.5t53 65.5q10 11 19 23l18 24l12 14t12 15q5 8 11 15t11 15l18 24q9 13 19 25.5t20 24.5l14 20t15 20q8 9 14.5 19t13.5 20q7 8 13 16.5t12 16.5q12 15 21 29q2 2 2.5 4t2.5 4q4 11 8 20.5t9 19.5
q5 11 10 21.5t10 21.5q10 21 21 42t23 42q5 10 10.5 19.5t11.5 18.5q11 17 22.5 34t25.5 32q5 6 11 11.5t13 9.5q4 3 11 3q8 0 12 -2q3 -2 3 -8q0 -5 -4 -11q-3 -10 -8 -18.5t-10 -17.5q-6 -11 -13 -23t-14 -23q-8 -11 -15 -21.5t-15 -21.5q-7 -11 -13.5 -21t-14.5 -21
q-5 -8 -10.5 -15.5t-11.5 -15.5q-7 -10 -14 -19.5t-13 -20.5q-4 -5 -6.5 -11.5t-5.5 -12.5q-8 -17 -15 -34t-13 -34q-6 -13 -11 -25t-9 -25q0 -3 -1 -5.5t-3 -5.5l-12 -34l-12 -34q-3 -12 -7 -24l-8 -24q-5 -16 -9.5 -31.5t-9.5 -32.5q-5 -18 -10 -37t-9 -38
q-3 -12 -5 -23.5t-3 -22.5q-1 -8 0 -14.5t1 -13.5v-1q6 3 11 8q13 11 27 26q8 9 14.5 16.5t13.5 15.5l22 28l22 28q6 8 12.5 16t12.5 16q10 14 20 27t21 27q5 7 10 13t10 13t10 13.5t10 13.5t11 13.5t11 14.5q5 7 10.5 13.5t10.5 14.5q5 7 10 13l10 12q5 8 11 15t11 15
q6 8 12.5 15.5t11.5 15.5q8 11 17 21.5t18 21.5q6 9 12.5 17.5t13.5 16.5q20 27 42 53t43 52q12 16 24.5 30.5t23.5 29.5q6 9 12.5 17t12.5 17q3 5 6.5 8.5t7.5 8.5q15 20 30.5 39.5t31.5 38.5q5 5 9 10t9 10q4 4 10 2q6 1 11 -2zM798 655q-1 -2 -1.5 -3.5t-1.5 -3.5
q0 1 1 2q3 4 6 7.5t5 8.5q5 6 9 13t9 14l8 12t7 12q15 19 28 45q15 24 27 48q0 2 1 3q-6 -6 -10.5 -12.5t-9.5 -12.5q-7 -9 -12.5 -18t-11.5 -19t-12 -19.5t-12 -20.5q-8 -14 -15 -28t-15 -28z" />
    <glyph glyph-name="N" unicode="N" horiz-adv-x="1228" 
d="M975 340q63 114 110 198t82 142.5t58.5 96t38.5 58.5q35 50 39 38q-28 -32 -64 -87.5t-74.5 -120t-75.5 -131.5t-66 -121.5t-47 -89.5l-18 -35q-8 -14 -25.5 -52t-40 -88t-48 -107t-49 -109t-43 -93.5t-29.5 -60.5q-28 -52 -43 -59t-18.5 21.5t4 87.5t24.5 138.5
t43 175.5t59.5 198t74 205.5t87.5 199.5q2 4 4 7t2 8q2 0 2 2q2 0 2 3v1v-1q-2 0 -2 -3q-2 0 -2 -2q-103 -140 -202 -268q-42 -55 -88 -113t-91.5 -113.5t-88 -105.5t-78.5 -88q-33 -35 -79.5 -81t-98.5 -88t-105.5 -72t-100.5 -31q-9 1 -13.5 5t-3.5 5q5 -4 8.5 -6t19.5 -1
q3 2 6.5 2t7.5 2q49 7 113 52t136.5 114t149 155.5t149.5 176.5t139 176t116.5 154.5t82.5 112t37 48.5q2 2 6 2.5t6 -0.5q12 2 8 -10t-22 -50t-48.5 -108t-71.5 -183t-74 -226.5t-56.5 -211.5t-35 -172t-9.5 -107q1 -14 17 15t42 84t58 127t64.5 144.5t62.5 136.5t52 103z
M967 760q1 0 1 2q2 0 2 3q0 1 1 1h-1v-1q-2 0 -2 -3h-1v-2z" />
    <glyph glyph-name="O" unicode="O" horiz-adv-x="937" 
d="M627 849q59 -30 89.5 -88t36 -134t-12 -166t-53.5 -183.5t-88.5 -186t-117.5 -174.5q-43 -54 -88 -97.5t-89.5 -74.5t-86 -47t-77.5 -16q-32 0 -57 13.5t-42.5 42.5t-25 75t-3.5 111q3 43 12.5 88t20.5 82q12 43 28 84q1 4 0 7t-4 8t-6.5 13.5t-7.5 22.5q-4 17 -5.5 26
t-2 14.5t-0.5 9.5t-1 11q-7 49 8.5 112t48 127.5t79 126.5t102 110.5t117 77.5t123.5 29q17 0 34.5 -2.5t34.5 -8.5q4 0 6 -1q14 -4 28 -12zM639 190q30 64 50 119.5t31 102.5q12 48 17 83t5 55v7q-1 13 0 26q0 5 -1 19.5t-1 23.5v8q-1 1 -1 2q-2 6 -2.5 12.5t-1.5 12.5
q0 2 -1 3q-23 104 -74 149t-117 45q-51 0 -105.5 -22.5t-107.5 -62t-100 -93t-83 -115.5t-57 -129t-20 -134v-10.5t2 -10.5q1 -7 1 -12t1 -13.5t5 -23.5t15 -42l2 -4q0 -3 2 -5q7 -8 12.5 -15t12.5 -13q1 -1 1 -2l1 -1q17 -14 48 -24q5 -2 11 -1.5t11 -1.5l1 -1h1q2 0 3 1
q2 0 3.5 0.5t5.5 1.5q4 0 7.5 0.5t6.5 0.5q31 5 62.5 21.5t61.5 41.5t57 55.5t48 63.5q0 1 1 2q24 39 38 77t14 71v3q0 3 -1.5 5.5t-3.5 5.5v1h-1l-1 -1q-1 1 -2 1t-1 -1l-1 1q-6 -2 -11 -7q-5 -3 -9.5 -7t-9.5 -9q-8 -8 -15.5 -16.5t-14.5 -17.5q0 -1 -1 -2q-4 -6 -7 -9
q-3 -4 -8 -6h-1h-1v1v-1h-1h-1h-1l-2 2q-2 1 1 21q2 15 2.5 37t-6.5 39v1v1l-1 1v1q-1 0 -1 1q-1 1 -1 2h-1v1q0 1 -0.5 1t-0.5 1l-2 2q-1 0 -1 1l-1 1v1l-2 1q-4 4 -9 4h-1q-14 -2 -31 -17q0 -1 -1 -1q-14 -14 -26.5 -39.5t-16.5 -61.5v-30v-11q1 -5 1 -9.5t1 -9.5
q0 -3 1 -5q2 -22 6 -42q2 -14 5 -26.5t8 -23.5l1.5 -3t0.5 -3q3 -8 8 -14t12 -12q1 -1 2 -1q1 -1 1 -2q-1 -1 -4 -1h-2h-4h-2h-1h-2h-1q-11 0 -19 10.5t-14 26.5t-10 35t-7 36q-2 10 -2.5 18.5t-1.5 15.5q-1 3 -1 7v3q0 8 -1 12q0 1 -0.5 2.5t0.5 2.5v4q0 8 1 21.5t3 25.5
q0 2 1 3v1v1v2v1q1 0 1 1q5 18 12 31q13 25 32 42t42 16h4h1h2q1 0 1 -0.5t1 -0.5q17 -1 27 -17q8 -14 9 -34.5t1 -39.5l2 2v-4q1 1 1.5 2t1.5 2v-2q3 3 6 6.5t7 7.5q10 12 21 20q15 13 29 13h1h1h1h4q12 -2 16 -11t2 -22q0 -5 -1 -11t-2 -13q-2 -6 -3.5 -13t-3.5 -14
q-17 -45 -40 -85q-18 -30 -40.5 -57t-47.5 -50q-24 -22 -49 -39.5t-51 -29.5q-44 -19 -84 -19q-26 0 -48.5 8.5t-42.5 27.5l-1 1l-8 8q-2 -5 -5 -15.5t-7.5 -24.5t-9 -30t-8.5 -32q-6 -20 -10 -38t-5 -29v-1v-1q-2 -4 -2 -8t-1 -8q-1 -2 -1.5 -3.5t-0.5 -3.5
q-1 -4 -1.5 -10.5t-2.5 -23.5q-1 -5 -0.5 -9.5t-0.5 -9.5q-1 -1 -1 -3v-2v-1q0 -4 -0.5 -7t-0.5 -8q1 -86 20.5 -132.5t52.5 -61.5q6 -3 11.5 -5t11.5 -3q4 0 7 -0.5t8 -0.5q14 1 29.5 4t32.5 10q12 5 23.5 11t23.5 13q38 23 77.5 57t78.5 75.5t75 88t67 94.5q7 11 13 21
l12 20q17 28 30.5 54.5t26.5 52.5z" />
    <glyph glyph-name="P" unicode="P" horiz-adv-x="1264" 
d="M1084 518q2 -12 1 -24t-1 -24v-8t-1 -8q-2 -4 -1.5 -7.5t-1.5 -8.5q-1 -3 -0.5 -6.5t-0.5 -7.5q-2 -8 -3.5 -14.5t-3.5 -13.5q-3 -15 -8 -29.5t-11 -28.5q-2 -6 -4.5 -11.5t-4.5 -10.5l-7.5 -15t-8.5 -15q-6 -11 -12.5 -22t-14.5 -22q-7 -10 -14.5 -20t-15.5 -20
q-4 -4 -8 -7.5t-7 -8.5q-5 -6 -11 -11.5t-12 -10.5q-10 -10 -21.5 -19t-22.5 -18q-11 -8 -23 -15.5t-25 -15.5q-28 -16 -57 -28q-14 -6 -29.5 -10.5t-30.5 -9.5l-16 -4t-16 -3q-5 -2 -10 -2t-10 -2q-3 -2 -6 -1.5t-6 0.5q-5 -1 -9.5 -1.5t-9.5 -0.5q-7 0 -13 -0.5t-12 0.5
q-8 -1 -15 -0.5t-15 0.5q-10 0 -15 1q-4 2 -8 1.5t-7 1.5q-14 2 -22 4q-5 0 -9 1t-9 3q-10 3 -20 6.5t-20 9.5q-5 3 -11 6t-11 7q-3 -7 -6.5 -13t-6.5 -12q-1 -5 -4 -9q-5 -11 -10 -20.5t-11 -20.5q-7 -14 -14 -26t-15 -25q-8 -14 -17 -27.5t-19 -27.5q-6 -8 -11.5 -15
t-12.5 -15q-10 -11 -19.5 -22t-20.5 -20q-8 -8 -16.5 -14.5t-16.5 -13.5q-8 -6 -16.5 -12t-18.5 -11q-25 -13 -49 -19q-7 -2 -13.5 -3t-13.5 -3h-1h-6h-1h-1h-29h-17q-7 2 -13.5 1.5t-14.5 1.5q-20 2 -37 7q-3 1 -7 3t-5 5q-1 2 1 4q1 2 1.5 1t2.5 -1q0 -1 0.5 -1t0.5 -1
l2 2q1 2 1.5 1t1.5 -1q3 -1 4 -4q4 -2 7.5 -4t8.5 -2q5 -2 9.5 -2t9.5 -2h1q12 -1 24 -2.5t24 -1.5h5q17 2 34 5t34 11q25 12 51 32q5 3 9 6.5t9 7.5q4 4 8 7t8 7q11 11 21.5 22.5t20.5 24.5q5 7 10.5 13.5t10.5 14.5q7 10 13 19.5t13 20.5q8 14 16 28.5t16 28.5
q8 13 14 25.5t12 26.5l7.5 15t11.5 25q-9 7 -23 19.5t-27 32.5q-13 18 -21 37t-13 39q-11 53 3 109q0 3 4 3t2 -4q-13 -55 -3 -106q5 -20 12.5 -38.5t19.5 -35.5q13 -18 26.5 -30.5t21.5 -19.5q6 14 11 24.5t7 14.5q4 8 7.5 16t6.5 16q5 15 14 32q6 14 11.5 28t11.5 28
q5 11 9.5 22.5t9.5 22.5q3 8 6.5 16t7.5 16q5 11 9 20.5t9 20.5q2 5 4 9l4 8q8 17 15.5 32.5t15.5 31.5q6 12 12 24.5t12 24.5q5 11 10.5 22t10.5 22q6 13 13 25t13 24q7 14 14 27t15 27q9 16 18.5 32t18.5 32q9 14 18.5 28t19.5 28q15 19 32 35q8 6 22 10l2 1q3 0 4 -1
q2 0 2 1q5 0 7 -2q1 -2 -0.5 -3t-2.5 -1q-8 -5 -14.5 -11.5l-12.5 -12.5q-5 -6 -10 -12.5t-10 -13.5q-8 -11 -15 -22.5t-14 -22.5q-8 -13 -16 -26.5t-16 -27.5q-11 -20 -21 -39.5t-21 -39.5q-5 -9 -9 -17.5t-9 -17.5l-14 -28t-14 -29q-7 -14 -13 -28t-14 -28
q-4 -8 -7.5 -16.5t-8.5 -16.5q-4 -11 -8.5 -20.5t-9.5 -19.5q-4 -8 -8 -17t-7 -17q-5 -10 -9 -19t-8 -19q-5 -11 -9.5 -22t-9.5 -22t-10 -23l-10 -24q-3 -9 -7 -18t-8 -17q-4 -11 -8.5 -21t-9.5 -21q-3 -8 -7 -15.5t-7 -15.5q-2 -3 -1 -4t3 -4q12 -9 25 -15.5t27 -11.5
q8 -3 16 -5l16 -4q7 -1 14 -1.5t15 -2.5q9 -2 18.5 -1.5t19.5 -0.5q2 0 4.5 1t5.5 0h3h4h1q1 0 2.5 0.5t2.5 0.5q4 1 8 0.5t7 0.5q8 2 16 3t16 3q12 2 24.5 5.5t25.5 7.5q15 5 29.5 11t28.5 13q18 9 35.5 19.5t34.5 22.5q8 5 15 11t15 12q6 5 12 11t12 11q9 8 17.5 17.5
t16.5 19.5q8 9 15.5 18.5t14.5 20.5q10 15 19 30.5t17 31.5q5 11 9.5 22.5t9.5 22.5q4 11 7.5 23t6.5 24q2 5 2.5 11t2.5 12q2 4 1.5 8t1.5 8v2q2 14 2.5 26.5t0.5 26.5q1 8 0.5 16.5t-0.5 16.5q-2 15 -4.5 30t-6.5 30q-5 17 -11 34t-14 34q-12 21 -27 42q-19 26 -41 46
q-14 14 -27 23q-11 8 -22.5 15.5t-23.5 13.5q-34 17 -67 27q-9 2 -17.5 4t-17.5 4q-5 1 -10.5 1.5t-10.5 1.5q-5 0 -10 1t-10 1h-20h-22h-13t-12 -2q-4 0 -7 -0.5t-7 -0.5q-11 -1 -20.5 -2.5t-20.5 -2.5q-10 -2 -19 -5t-19 -5q-12 -3 -24 -7t-23 -7q-6 -2 -11.5 -4.5
t-11.5 -4.5q-9 -5 -18 -8t-17 -8l-40 -22t-39 -25l-18 -12t-17 -14q-9 -6 -17 -14t-15.5 -15t-15.5 -14q-8 -8 -16 -17l-16 -18q-10 -11 -18.5 -22.5t-16.5 -23.5q-21 -31 -37 -65q-13 -27 -21 -52q-2 -6 -3 -12t-3 -12q-2 -7 -3 -14t-3 -14v-4v-9.5t-1 -8.5q-1 -5 0 -9.5
t0 -9.5q0 -9 3 -16q2 -2 0 -3q-1 -1 -2 -1q-2 0 -2.5 0.5t-1.5 0.5q-1 -1 -4 -1q-6 2 -7 7t-2 9t-1 9q1 5 1 11v11q0 8 1 16t3 17q4 28 17 60q11 30 29 62q8 14 17 28t20 28q5 7 11 13.5t11 14.5l10 10q13 14 26 27t28 25q12 12 25.5 22t27.5 20q14 9 27.5 17.5t27.5 16.5
l26 12l26 12q10 5 20.5 8.5t20.5 7.5q8 2 17 4.5t17 4.5q19 6 39 9q10 2 19 3.5t18 2.5q7 1 13 1.5t12 1.5t11 0.5t10 0.5h19q7 1 14 0.5t15 -0.5h9t9 -2q4 -1 7.5 -1t8.5 -1q5 0 9 -1t8 -1q3 0 6 -1t6 -1l30 -8t30 -10q9 -4 18 -7.5t17 -7.5q13 -7 25.5 -14.5t24.5 -16.5
q10 -7 18.5 -13.5t16.5 -14.5l17 -17q12 -14 23 -28t20 -31q4 -7 8 -14.5t7 -15.5q14 -32 21 -64q2 -9 3.5 -17.5t3.5 -17.5q1 -5 1 -11v-12z" />
    <glyph glyph-name="Q" unicode="Q" horiz-adv-x="783" 
d="M646 611q0 8 0.5 14.5t-0.5 14.5q0 9 -1 17.5t-2 16.5q-2 11 -4 21t-4 21q-2 8 -5 14t-5 14q-5 12 -11 22.5t-14 21.5q-30 37 -72 49q-9 3 -19 3q-6 -1 -11.5 -0.5t-10.5 0.5q-19 0 -37 -6q-27 -8 -52 -20q-14 -8 -27 -16t-26 -18q-21 -17 -40.5 -34.5t-37.5 -36.5
q-8 -9 -17 -18.5t-17 -20.5q-13 -17 -25.5 -33.5t-23.5 -34.5q-10 -15 -19 -30l-18 -30q-7 -13 -13.5 -25.5t-12.5 -25.5q-10 -21 -19 -42.5t-17 -43.5q-5 -14 -9.5 -27.5t-8.5 -27.5q-5 -15 -9 -30t-7 -30q-2 -7 -3.5 -14t-3.5 -14q-1 -7 -2 -13.5t-2 -13.5q-2 -9 -3 -17.5
t-3 -16.5q-2 -5 -2 -9.5v-9.5l-2 -14l-2 -14v-15.5t-1 -15.5q-2 -12 -1.5 -24t-0.5 -23t0.5 -21.5t2.5 -21.5q0 -20 8 -39q0 -2 1 -3t-1 -2q-3 -4 -8 -2q-6 4 -7 8q-2 8 -3.5 15t-2.5 15q-2 8 -1.5 16.5t-1.5 16.5q-3 18 0 38q0 11 -0.5 20.5t1.5 20.5q2 8 1 16t3 16
q-1 7 0.5 13t2.5 14q0 5 0.5 10.5t1.5 10.5q2 5 2 9v8q3 12 5 24t4 23q2 10 5 19t5 20q3 10 5 19.5t5 18.5q8 22 15 43.5t16 42.5q5 11 10 22.5t10 22.5q6 14 13.5 27.5t14.5 27.5q6 12 13.5 23.5t14.5 22.5q7 12 14.5 23.5t15.5 22.5t15.5 20.5t15.5 20.5q8 9 15.5 18.5
t15.5 17.5q10 10 20 20.5t21 18.5q5 4 8.5 7.5t8.5 7.5q14 11 27.5 21.5t28.5 18.5q25 16 54 27q22 8 46 13q10 3 22 3h27q12 0 23 -2.5t22 -6.5q34 -14 57 -42q19 -22 31 -49q4 -11 7 -21t7 -21q2 -6 2.5 -12t2.5 -12q1 -11 1.5 -20t2.5 -20q2 -16 1.5 -31.5t-0.5 -30.5
q-3 -9 -2 -18t-1 -18q-1 -5 -1.5 -11t-1.5 -12q0 -7 -1 -13.5t-3 -13.5q-2 -8 -3 -14.5t-3 -14.5q-4 -19 -9 -37l-10 -36t-10.5 -35t-12.5 -34q-11 -27 -23.5 -53.5t-26.5 -52.5q-25 -45 -53 -85q-8 -12 -17 -23.5t-17 -22.5q-11 -14 -22 -26.5t-22 -25.5t-22.5 -24.5
t-23.5 -22.5q-17 -15 -34.5 -29.5t-36.5 -28.5q-36 -26 -79 -47q-2 -2 -5 -2q-3 -1 0 -4q2 -3 4 -5.5t4 -4.5q4 -5 8.5 -9.5t7.5 -9.5q6 -7 12 -13l11 -11q30 -30 66 -51q16 -9 32.5 -16.5t35.5 -11.5q7 -1 13 -2t13 -2q5 0 9.5 -1t9.5 0q9 1 17.5 2.5t16.5 6.5q12 7 15 20
q1 8 3 14.5t2 13.5q-2 5 2 5q5 0 7 -3v-6q0 -3 -2 -16t-4 -16q-2 -6 -7.5 -10t-11.5 -8q-9 -5 -24 -7q-6 -1 -12.5 -2t-13.5 -1q-8 1 -14.5 2t-13.5 2q-22 3 -40 10q-19 6 -36 14.5t-34 19.5q-11 8 -21.5 16.5t-20.5 18.5q-4 4 -7.5 7t-7.5 6q-9 10 -17.5 20t-17.5 20
q-3 3 -4 2q-6 -2 -12.5 -3.5t-12.5 -3.5q-23 -7 -43 -8h-12t-12 1q-38 4 -51 41q-1 14 1 26.5t13 22.5q6 6 13 10t16 4q3 0 5 1.5t5 1.5q19 -1 38 -11q16 -11 30 -24q7 -8 13.5 -15.5t12.5 -15.5q0 -2 1.5 -3t2.5 -2q1 -2 2 -3t2 -3q2 2 4 2t4 1q15 8 30 17t29 20
q8 6 16 12.5t17 12.5q9 8 18.5 16t19.5 17q9 9 18 17.5t16 18.5l3.5 3.5l3.5 3.5q19 19 34 40q8 10 15.5 19t15.5 20q11 14 20.5 28.5t18.5 29.5q8 13 16 26.5t16 27.5q7 13 13 25.5t12 26.5q5 11 9.5 21.5t9.5 21.5q7 19 16 42q4 11 7.5 23t7.5 24q5 13 8 25.5t6 26.5
q3 11 5.5 23t4.5 24q1 5 1.5 9t0.5 9q1 5 1 10t2 11q1 4 1 8v9t1.5 9t1.5 9q-1 8 -1 16.5v17.5zM140 -134q10 -2 18.5 0t17.5 4q8 2 14.5 5t13.5 5q4 1 2 3q-11 14 -21 26t-21 23q-18 16 -39 22q-13 6 -25 -5q-16 -13 -16 -36q-1 -14 8.5 -28t26.5 -18q5 -1 10.5 -1h10.5z
" />
    <glyph glyph-name="R" unicode="R" horiz-adv-x="1040" 
d="M908 626q0 -9 -2 -18t-2 -18q-1 -5 -1.5 -9t-2.5 -9t-3 -11t-3 -12q-2 -4 -2 -7.5t-2 -7.5q-2 -5 -3 -10t-3 -10q-4 -9 -7.5 -18t-7.5 -17t-7.5 -16.5t-8.5 -16.5t-9.5 -16t-8.5 -16q-6 -11 -13 -20.5t-14 -19.5q-10 -14 -21 -28t-23 -28q-11 -12 -22.5 -24t-23.5 -24
q-7 -6 -13.5 -12.5t-14.5 -12.5q-16 -14 -34 -28q-4 -3 -7.5 -7t-8.5 -6q-8 -5 -15.5 -10.5t-15.5 -11.5q-15 -9 -30 -17.5t-31 -16.5q-18 -9 -36 -16.5t-38 -13.5q-11 -3 -21 -5.5t-21 -2.5q-1 0 -1 -3q3 -7 8 -13q6 -9 11.5 -18.5t10.5 -19.5q8 -11 14 -21.5t13 -21.5
q10 -16 21 -31.5t22 -29.5q7 -8 13 -16t14 -16q19 -23 42 -42q29 -24 59 -43l19 -9.5t20 -9.5q5 -2 10.5 -3.5t11.5 -3.5q20 -6 41 -9t41 -6h9h1q4 0 5 -1h2h5h14q7 0 16 7q2 2 2 1q2 -2 0 -4v-2q1 2 2 2.5t2 1.5q2 2 4 1v-4q-2 -2 -4 -2.5t-4 -2.5q-12 -5 -26 -3
q-3 0 -5.5 -1t-5.5 0q0 1 -2 1q-1 0 -2 -0.5t-3 0.5h-3q-3 -2 -6 1h-1q-3 -2 -8 1l-16 2l-16 2q-8 2 -17 2.5t-17 2.5q-7 2 -13.5 3.5t-13.5 3.5l-18 6q-8 3 -15.5 6.5t-15.5 7.5q-30 14 -54 34q-15 11 -29 23t-27 26q-6 7 -12 13t-11 12q-15 17 -28 35t-27 36
q-6 8 -11.5 17t-11.5 18t-11.5 18.5t-11.5 18.5q-4 7 -7.5 13t-7.5 14q-1 2 -2 3q-5 0 -7 1q-2 -1 -3.5 -0.5t-3.5 0.5q-1 0 -1.5 0.5t-1.5 0.5q-6 0 -10 -7q-9 -15 -18 -28.5t-18 -27.5q-11 -15 -21 -30t-21 -30q-11 -16 -23.5 -31.5t-24.5 -30.5q-12 -14 -24 -27t-24 -25
l-12 -10l-12 -10l-6 -6t-7 -5q-26 -19 -58 -31q-11 -5 -22 -9t-23 -8q-7 -2 -13.5 -4t-14.5 -3h-8q-4 0 -12 2q-1 0 -1 1l-1 1q2 0 2 1q3 2 5 1t4 0q10 1 19 6q17 5 33 11t32 14q7 3 13.5 6.5t11.5 8.5q7 4 13 8.5t12 9.5q7 5 13 11l12 12q8 8 15 16t15 16t14 16.5t13 16.5
q6 8 12 15t11 15l39 54q6 9 12 18.5t12 18.5q8 11 14.5 22.5t14.5 22.5q2 4 -2 5q-8 4 -15.5 8.5t-12.5 11.5q-7 10 -7 23q-1 11 5 20q5 11 22 14q3 1 6 0.5t6 -0.5q11 0 19.5 -5t15.5 -13q4 5 7.5 11t7.5 12q5 10 10.5 19t10.5 18l12 22l12 22q12 19 25 43q5 8 9.5 16
t9.5 17q8 12 14.5 25t14.5 26q5 7 9 14.5t9 15.5t9.5 17t10.5 17q5 10 11 19.5t12 19.5q4 8 9 15t10 15q5 9 10.5 18t11.5 18q2 2 3 4t3 4q6 9 12.5 18.5t12.5 19.5q9 13 17.5 25.5t18.5 24.5q13 19 28 37t32 35q7 8 14.5 15t16.5 13q2 1 4.5 2.5t4.5 2.5q3 2 6.5 2t6.5 -1
q5 0 8 -1q4 0 4 -3q0 -2 -3 -2q-7 -3 -12 -8l-10 -10q-8 -8 -14 -14.5t-13 -14.5t-13.5 -16t-14.5 -17q-13 -17 -25.5 -35t-25.5 -36q-8 -12 -16.5 -24.5t-16.5 -24.5t-15 -23t-14 -23l-39 -63q-7 -13 -14 -25l-14 -24q-8 -14 -15 -26.5t-15 -26.5q-7 -13 -14 -25t-15 -24
l-16 -28l-16 -28q-7 -14 -14.5 -27t-15.5 -26q-8 -12 -14.5 -23.5t-14.5 -23.5q-2 -3 0 -5q2 -6 2 -5q8 -10 15 -23q0 -1 0.5 -1t0.5 -1v-1q11 2 21.5 4.5t21.5 6.5q13 4 26 9.5t26 11.5q10 5 19 10t19 10q22 12 41.5 26.5t38.5 29.5q18 13 31 26q18 17 35.5 34t34.5 36
q8 8 14.5 17t13.5 17q8 11 15.5 21t14.5 21q13 20 23 38q5 9 9.5 17.5t8.5 17.5q9 16 15 35q3 6 5.5 12.5t4.5 13.5q2 4 2 7.5t2 6.5q2 5 2.5 9.5t3.5 8.5v2q2 11 4.5 21.5t3.5 21.5v14q1 3 1 6.5t1 7.5q0 9 -0.5 18t-1.5 17l-4 22t-7 22q-4 9 -8.5 17t-9.5 16q-8 12 -18 20
q-6 5 -12 9.5t-13 7.5q-8 3 -15.5 6t-15.5 4q-4 2 -8 2h-7q-1 1 -2 1h-4q-2 0 -3 1q-5 0 -10 -0.5t-10 -0.5q-14 -1 -27.5 -3.5t-26.5 -5.5q-9 -2 -18.5 -5t-18.5 -7t-18.5 -7.5t-18.5 -8.5q-8 -5 -16 -9t-17 -8q-11 -7 -21 -13.5t-20 -13.5q-7 -5 -13 -9t-12 -9
q-9 -8 -18.5 -15t-17.5 -15q-17 -14 -32 -29q-17 -17 -32 -35q-8 -9 -15 -18l-14 -18q-7 -8 -13 -17l-12 -18q-8 -11 -15 -23t-13 -24q-9 -15 -17 -31q-5 -10 -9 -19.5t-7 -19.5q-2 -6 -5 -12t-5 -13q-1 -4 -2.5 -7t-1.5 -7l-2 -4t-1 -5q-1 -3 -1 -5.5t-2 -4.5v-2
q-1 -6 -3 -12t-3 -13t-2.5 -13.5t-1.5 -13.5q0 -9 -1 -18t0 -18q1 -3 1.5 -6t2.5 -5q0 -3 -2 -3q-2 -1 -6 1q-8 -2 -10 5q-3 8 -2 14q0 4 -1 7.5t1 6.5q-2 8 -0.5 14.5t1.5 13.5q0 8 1 15t5 15q1 1 1 4q0 8 1.5 14t3.5 13q3 10 6.5 19.5t7.5 19.5q7 20 15.5 38.5t18.5 37.5
q6 11 13 22l14 22q5 6 8.5 12t7.5 12q11 14 21.5 27t22.5 26q11 14 23.5 26.5l24.5 24.5t26 23q10 8 19.5 15.5t19.5 14.5q13 8 25.5 16.5t25.5 16.5t25.5 14t26.5 12q16 8 32.5 13t33.5 10q8 2 16.5 3.5t17.5 2.5q8 1 15.5 1t15.5 1q6 0 9 -1q3 0 6 -0.5t7 -0.5h5q4 0 6 -1
q6 1 11 -2q1 -1 6 -1q17 -3 33 -11q23 -10 39 -26q12 -12 21 -27q12 -20 18 -42q7 -22 8 -39v-32zM376 150q1 2 1.5 4t-1.5 4q-1 3 -2.5 6l-2.5 5q-2 4 -6 8t-9 6l-2 2q-2 -1 -2 -1.5t-2 -0.5q-6 -4 -10 -9t-5 -13q0 -3 -1 -6v-1q3 -21 22 -30q0 -2 3 -2q1 1 1.5 2.5
t2.5 3.5q0 1 1 2l6 10zM395 115q2 0 1 3q-2 5 -5 10q-4 -6 -7 -10q0 -3 2 -3h3q2 0 3 0.5t3 -0.5z" />
    <glyph glyph-name="S" unicode="S" horiz-adv-x="920" 
d="M534 84q-5 -17 -10 -33.5t-11 -32.5q-6 -17 -13 -33q-5 -12 -10.5 -23.5t-11.5 -23.5q-5 -9 -10.5 -18.5t-11.5 -18.5q-6 -8 -11.5 -16t-11.5 -16q-8 -11 -18 -21q-5 -5 -9 -10t-10 -10l-10 -10t-11 -10q-11 -10 -22.5 -18.5t-24.5 -16.5q-21 -15 -46 -26t-55 -19
q-5 -2 -10 -2t-10 -1q-8 -2 -17 -2.5t-18 -0.5h-16q-6 0 -12.5 1t-12.5 3q-10 2 -19.5 5t-18.5 7q-14 6 -25 16l-6 6t-7 6q-6 7 -11.5 14t-10.5 15q-7 12 -11 24t-7 26q-3 12 -3 25q-1 6 -1.5 12t0.5 12q1 5 0.5 10.5t1.5 10.5q1 4 1 13q2 8 4 16.5t4 17.5q5 20 13 36
q4 10 9 20l10 20l10 16l10 16q5 7 10.5 14t10.5 14q10 12 21 23l22 22q15 15 35 30q21 15 41 26q17 10 38 18q8 4 17 6.5t18 4.5q2 1 4 0.5t5 1.5h21h9.5t9.5 -1q14 -2 23 -7q13 -7 20.5 -17t12.5 -24q2 -9 2.5 -17.5t-0.5 -17.5l-4 -18t-6 -17q0 -1 -0.5 -1.5t-0.5 -1.5
q0 -3 1 -3h6q2 0 3 1h3h2h5q4 0 8 0.5t9 1.5q6 1 12.5 1.5t12.5 1.5q5 2 9.5 2t9.5 1q6 2 12 3t11 2q8 2 15.5 4t15.5 4q2 1 2 3q2 6 3 12t1 12q1 5 1.5 9t1.5 8q1 5 0.5 10t1.5 10v2q-1 7 0 14t2 15q1 24 1 47.5v46.5q0 5 -0.5 9t-0.5 9t0.5 9.5t-0.5 9.5q-2 6 -1.5 12
t-0.5 12q-1 5 -1 10v10l-2 18t-2 17q0 8 -0.5 15t-1.5 15l-3 30v6.5t-2 6.5q-1 4 -0.5 7t-0.5 6q-1 8 -1.5 15t-1.5 14v8t-1 7q-2 5 -1.5 10t-1.5 10q1 7 0 13.5t-1 13.5q-1 8 -0.5 15.5t-1.5 15.5q-2 13 -1 25t0 25v6v2h1h-1q-1 0 -1.5 -0.5t-1.5 -0.5q-15 -8 -29.5 -15.5
t-28.5 -15.5l-19 -9.5t-18 -10.5q-14 -7 -27 -15t-27 -16q-8 -5 -15.5 -10.5t-15.5 -10.5t-14 -10.5t-13 -10.5q-15 -11 -28 -23.5t-27 -26.5q-6 -6 -11.5 -12.5t-10.5 -13.5q-7 -8 -13 -17t-11 -17q-8 -11 -14 -23l-12 -24q-11 -24 -19 -52q-1 -6 -2.5 -12t-2.5 -13
q-2 -7 -1.5 -14t0.5 -14v-2q0 -1 1 -2v-1q-1 0 -1 -1q-1 -1 -3 -0.5t-3 1.5q-1 2 -1 4q0 6 -1.5 12.5t0.5 13.5q1 4 1 12l3.5 14t4.5 13q4 15 9.5 29.5t13.5 28.5q7 14 15.5 28t18.5 28q5 7 11 14t12 15q9 10 18 19t20 18q19 17 40 34q23 16 44 29q16 12 33 21q17 10 34 19
t35 18q9 5 18.5 10t19.5 10q4 2 7.5 4t6.5 3q3 2 5.5 3.5t1.5 6.5q2 13 3.5 25.5t5.5 24.5t9 22.5t11 21.5q15 22 41 40q11 6 21 11t22 7q7 2 14 3t15 1t11 -1q16 -1 29 -10q11 -8 10 -20q0 -8 -3 -14.5t-8 -12.5l-21 -21q-5 -4 -11 -8l-12 -8q-12 -8 -24 -15t-25 -14
q-11 -7 -23 -13.5t-24 -12.5q-4 -2 -7.5 -4t-7.5 -5q-2 0 -2 -3q-1 -10 -2 -19.5t0 -20.5q1 -10 1 -19t1 -20v-10t1 -10t1 -9v-9q3 -15 3 -31q1 -7 1.5 -13.5t1.5 -14.5q1 -7 1.5 -14t1.5 -15q1 -7 1.5 -13.5t1.5 -14.5l3 -30q0 -10 1 -15q2 -6 1.5 -12.5t1.5 -12.5v-1
q-1 -7 0 -13t1 -13q0 -11 0.5 -22t1.5 -22t1 -21v-21v-41q-1 -8 -0.5 -15t-0.5 -14q-1 -5 -1 -10t-1 -10q-1 -7 -1 -14t-2 -14zM533 735q0 -3 -0.5 -6.5t-0.5 -6.5v-2q0 -2 3 0q13 6 24.5 12.5t22.5 13.5q11 6 21.5 12t20.5 12q14 9 26.5 18t22.5 22q11 12 13 23q1 6 -2 13
q-1 6 -8 9q-11 7 -21 6h-4q-2 1 -6 1q-4 -1 -7.5 -2t-8.5 -2q-38 -12 -63 -43q-8 -11 -14 -22t-10 -24q-6 -16 -9 -34zM510 698h-1h1zM519 119q-8 -2 -16 -3.5t-16 -3.5q-7 -2 -14 -2.5t-13 -2.5q-7 -1 -13.5 -1.5t-13.5 -2.5q-7 -1 -13 -1.5t-13 -0.5l-12 -2t-12 0
q-2 0 -2 -1q-3 0 -5 -3q-3 -8 -8.5 -15t-11.5 -14q-12 -13 -28 -25q-5 -4 -10.5 -8t-12.5 -6q-6 -3 -12 -5.5t-13 -2.5q-4 -1 -9 -1q-9 0 -16 3q-7 1 -13 9q-4 8 -2 13q1 7 6 17q4 5 9 9.5t10 8.5q9 6 19 10t21 6q7 2 18 4q4 0 7 1t6 1q5 1 10 1.5t10 0.5h2q2 0 2.5 0.5
t2.5 0.5l3 3q5 9 7 18.5t4 20.5q0 2 -0.5 4.5t0.5 4.5q2 3 1 5.5t-1 4.5q0 17 -9 31q-7 15 -23 23q-7 4 -14.5 5t-15.5 3q-3 0 -6 -1t-6 -1q-15 0 -27 -6q-31 -8 -56 -24q-6 -3 -10.5 -6t-9.5 -6q-6 -5 -12.5 -9.5t-12.5 -9.5q-11 -7 -19.5 -15.5t-18.5 -16.5q-6 -5 -11 -12
t-11 -12q-1 0 -1 -1q-6 -8 -12.5 -15t-11.5 -15q-8 -11 -15 -22.5t-14 -23.5q-12 -24 -21 -48q-3 -8 -5.5 -15t-4.5 -15t-3.5 -15t-2.5 -15t-2 -14.5t0 -13.5v-8v-10.5t1 -12.5q1 -5 1.5 -10.5t2.5 -10.5q3 -14 9 -27q5 -13 12 -24.5t17 -21.5l5 -5t6 -5q5 -4 10 -7.5
t11 -6.5q15 -10 38 -13q7 -2 13.5 -2.5t14.5 -1.5h7q7 0 13.5 1t12.5 1l10 2l10 2q25 6 46 16q14 6 26 12.5t24 14.5q18 12 32 24q8 6 15.5 12.5t15.5 13.5q2 2 4 5t5 6q9 8 16 17.5t15 18.5q10 14 19 28l18 28q6 13 12.5 25.5t11.5 25.5q10 22 19 47q4 11 7 22.5t6 23.5
l4 16l4 16q1 3 1 6t2 6v1zM360 96q1 1 0 1t-2 -0.5t-2 -0.5q-6 0 -12 -1t-12 -1q-8 -2 -14.5 -3.5t-13.5 -3.5q-11 -4 -21.5 -9t-18.5 -14q-3 -5 -5.5 -9t-3.5 -9q-1 -2 -2 -3.5t0 -4.5q5 -14 15 -15h1q7 0 13 3l6 2l6 2q10 6 18.5 12t16.5 14l10 10t9 11q3 4 6.5 9t5.5 10z
M529 118q-3 0 -5 5q-1 0 0 2t3 3l12 2.5t32 8t47 14t58 20.5q27 12 59 27t64 33.5t62 40t53 46.5q1 1 3.5 2t2.5 -1q4 -3 2 -7q-43 -46 -116 -87q-28 -17 -59.5 -32.5t-65.5 -29.5q-32 -12 -59 -21t-47.5 -15t-32 -8.5t-12.5 -2.5h-1z" />
    <glyph glyph-name="T" unicode="T" horiz-adv-x="986" 
d="M168 138q0 -8 -0.5 -14t-0.5 -11q1 -11 2.5 -21.5t6.5 -21.5q4 -4 5 -7q1 -1 0 -2q-1 -2 -3 -1q-6 2 -7 6q-5 6 -7.5 13.5t-4.5 15.5q-3 13 -3 28v21v8.5t2 8.5t2 16q2 6 3 12l2 12q2 5 3.5 10.5t3.5 10.5q2 8 4.5 16t6.5 16q6 16 13.5 31t15.5 29q9 16 19.5 30.5
t21.5 29.5q6 8 12 14.5t12 14.5q2 3 5 5.5t5 5.5q4 5 9 9.5t10 9.5q11 11 21.5 21t21.5 20q10 8 19.5 15.5t19.5 15.5q9 7 18.5 13.5t19.5 13.5q14 11 29 20t31 18t31.5 17t31.5 15q27 14 58 25q7 2 13 5t13 5q11 4 23 8l24 8q9 2 17 4.5t16 4.5q17 5 34 9t34 7q11 2 20.5 4
t18.5 4q8 1 15 2l14 2t13.5 2t13.5 2q12 0 26 3q7 1 13.5 1t13.5 2q4 1 8 0.5t8 0.5q5 1 9.5 1t9.5 1q10 2 16 2q8 -1 15 -0.5t15 1.5q6 0 12 -0.5t12 1.5q1 1 2 0q8 -1 16.5 0t16.5 1q44 1 94 -1t120 4q10 1 20 1.5t21 0.5q8 0 15.5 0.5t15.5 0.5q7 1 14.5 1.5t14.5 1.5
q9 1 17.5 1.5t16.5 1.5t16 1.5t16 0.5q8 1 14.5 1.5t14.5 2.5q4 0 8 0.5t9 0.5q7 1 14.5 1.5t14.5 1.5q4 2 7.5 1.5t7.5 0.5q15 3 30 3q7 1 13 2t13 1l12 2t11 2q6 0 11.5 1t11.5 2q24 3 52 9q11 2 20 5.5t19 6.5q2 0 4 1t3 -1q2 -3 0 -4.5t-4 -3.5q-3 -3 -7 -4.5t-9 -3.5
q-12 -3 -24 -5.5t-24 -4.5l-24 -4t-23 -4l-18 -2t-17 -2q-9 -2 -18 -2.5t-18 -2.5q-4 -1 -7.5 -1h-6.5q-8 -1 -16 -1.5t-16 -2.5h-7t-8 -1q-5 -1 -10 -1t-11 -2h-13q-8 0 -16 -1l-16 -2t-16 -1.5t-16 -1.5q-5 -1 -10 -1.5t-10 -0.5q-3 1 -6 0t-6 0q-2 0 -5 -0.5t-6 -0.5
q-5 -1 -9 -1h-9q-5 -1 -11 -1t-11 -1q-7 -1 -13.5 -0.5t-12.5 -1.5h-1q-31 -1 -51.5 -2t-41.5 -2t-48.5 -1t-72.5 1h-2q-8 1 -15.5 -0.5t-15.5 -0.5q-6 -2 -12 -1t-12 0q-5 -2 -9.5 -2h-9.5t-9.5 -1t-9.5 0q-4 0 -4 -4q-4 -3 -6.5 -6.5t-5.5 -7.5q-6 -8 -12 -17t-12 -17
t-11.5 -16.5t-10.5 -16.5l-30 -48q-2 -2 -2.5 -4t-2.5 -4q-6 -11 -12 -21t-12 -21q-24 -41 -47.5 -82.5t-46.5 -83.5q-8 -15 -16.5 -30t-16.5 -31q-5 -10 -10 -19.5t-10 -18.5q-9 -19 -19 -36.5t-20 -36.5q-19 -35 -31.5 -57.5t-22 -39.5t-17 -29.5t-17 -26.5t-22.5 -32
t-32 -45q-14 -19 -31 -38q-9 -12 -20 -23q-9 -10 -18.5 -19t-18.5 -19q-10 -11 -20.5 -19t-21.5 -17q-15 -13 -31 -24.5t-34 -21.5q-14 -7 -27.5 -13.5t-28.5 -12.5q-13 -5 -26 -8.5t-27 -6.5q-7 -2 -14 -2.5t-13 -1.5h-17.5t-16.5 1q-10 0 -19 1.5t-19 3.5q-3 1 -6.5 1
t-7.5 1q-16 1 -36 8q-19 3 -34 10q-12 3 -24 10q-2 1 -5 4q-2 4 0 4q0 1 3 1l6 -3q8 -6 17.5 -9.5t19.5 -6.5q11 -3 20.5 -5.5t20.5 -4.5q5 -1 9 -1t9 -2t10 -2t10 -2h2q4 -1 14 -1q3 0 6 -1t7 -1q8 1 14.5 1t14.5 1q14 1 28 4t28 8q13 3 25 8.5t24 11.5q8 4 15 8l14 8
q8 6 15 11t15 10q10 7 19 14t18 15q12 9 25 24q1 2 2 2.5t2 2.5q9 8 17.5 17t16.5 18q25 26 47 58q10 12 19 24.5t18 26.5q20 31 34.5 55.5t26.5 46.5t23 43t23 44q8 14 15.5 29t15.5 29q11 20 21.5 39.5t21.5 38.5q9 18 18.5 36t19.5 35q4 7 8 14.5t7 14.5q12 20 23 39.5
t22 39.5q8 13 15.5 25.5t15.5 25.5q9 14 18 29t19 30q11 17 23 33.5t24 33.5q2 3 4.5 6t4.5 7l1 1l-1 1h-1q-4 -2 -8 -1t-8 -2q-11 0 -21.5 -1.5t-21.5 -2.5q-11 -2 -21.5 -3t-20.5 -3l-36 -6q-19 -3 -37 -7t-37 -9q-41 -11 -85 -27q-11 -4 -21.5 -7.5t-21.5 -8.5
q-24 -9 -48 -21q-13 -6 -26 -12.5t-27 -14.5q-18 -10 -34 -20q-10 -7 -19.5 -13t-19.5 -13q-11 -8 -21.5 -15.5t-21.5 -15.5q-5 -3 -10 -7.5t-10 -8.5q-6 -5 -11.5 -10t-10.5 -10q-5 -3 -9 -7.5t-9 -8.5q-11 -11 -21 -21.5t-21 -22.5q-16 -17 -32 -40q-8 -9 -14 -18t-12 -19
q-8 -13 -14.5 -26t-13.5 -26q-5 -11 -9 -22.5t-7 -22.5q-3 -8 -5.5 -16.5t-4.5 -16.5q-2 -4 -2 -8.5t-1 -8.5q-2 -8 -2 -15.5t-1 -12.5z" />
    <glyph glyph-name="U" unicode="U" horiz-adv-x="1028" 
d="M721 224q-7 -5 -11 -12q-2 -3 -4.5 -5.5t-4.5 -5.5q-13 -17 -27 -32t-28 -31q-9 -11 -18.5 -21t-19.5 -21q-13 -13 -25 -26t-25 -27l-19 -19t-19 -18l-18 -18t-19 -17q-17 -14 -33 -27.5t-34 -26.5q-12 -8 -24 -16.5t-24 -15.5q-25 -14 -50 -21q-9 -3 -19 -3.5t-19 0.5
q-9 0 -16 3.5t-15 8.5q-9 7 -13.5 16.5t-8.5 20.5q-2 5 -3 11l-2 12q-2 10 -3 19t0 18q1 8 0.5 15t0.5 15q2 5 1.5 8.5t0.5 7.5q2 10 3 19t3 18q2 16 5.5 30.5t7.5 29.5q5 20 11.5 40.5t14.5 40.5q4 11 8.5 22t8.5 22q7 18 15 36t16 35q5 11 11 22.5t12 22.5q8 17 17 33
t18 33q5 5 4 7q2 0 2 2q0 1 0.5 0.5t0.5 0.5q-1 0 -1 -1q-2 0 -2 -2q-8 -5 -14.5 -11.5t-14.5 -13.5l-24 -21q-4 -3 -7 -6l-6 -6l-42 -39q-7 -7 -14.5 -14t-15.5 -14q-11 -12 -23 -23q-5 -6 -10.5 -11t-10.5 -11q-10 -11 -19.5 -22t-19.5 -22q-5 -8 -11 -15t-12 -15
q-13 -17 -24 -34.5t-22 -35.5q-18 -29 -32 -63q-8 -20 -15.5 -40t-12.5 -40q-2 -9 -3.5 -18t-3.5 -17q-2 -4 0 -7q1 -4 -2 -6q-7 0 -7 4q-1 3 -1 9l3 21q2 8 3.5 16.5t4.5 16.5t5.5 17.5t6.5 18.5q4 8 7 17.5t8 17.5q17 38 41 77q8 11 15.5 22.5t15.5 22.5t17 21t17 21
q11 14 23.5 27.5t25.5 27.5q11 11 22.5 23t22.5 23q9 8 18.5 17t18.5 17q11 10 21.5 19.5t21.5 19.5q10 8 19 17t19 17q7 5 13 10t11 10t8 9.5t6 9.5l22 34t23 34q6 8 11.5 17t11.5 17q4 5 8 10.5t8 11.5q5 6 9 12t9 13q3 4 6 7t5 7q5 6 9 11t9 10q19 25 40 48t43 46
q8 8 16.5 15.5t16.5 15.5q14 13 29 23q5 4 10 6.5t10 5.5q6 2 12 2.5t12 0.5q5 0 8 -5q1 -5 0 -9q-2 -11 -7 -19.5t-10 -16.5q-9 -14 -19.5 -26t-20.5 -25q-16 -20 -33 -38l-34 -36l-21.5 -21.5l-21.5 -21.5t-21.5 -20.5t-21.5 -20.5q-8 -8 -17 -16t-17 -16q-9 -8 -18.5 -16
t-18.5 -16t-15 -18q-5 -9 -11 -18t-11 -18q-5 -10 -11 -19.5t-11 -19.5q-7 -12 -13 -23.5t-12 -22.5q-7 -13 -13.5 -25t-13.5 -25q-5 -11 -10 -22.5t-10 -22.5q-6 -14 -12 -27.5t-12 -27.5q-7 -19 -13.5 -37t-12.5 -37q-3 -9 -6 -18.5t-5 -19.5q-10 -32 -14 -64
q-2 -8 -3 -16.5t-2 -16.5l-2 -14t1 -13q1 -5 0 -9t0 -7q1 -15 2.5 -28.5t7.5 -27.5q5 -11 12 -18.5t20 -10.5t25 1q17 3 32 10.5t30 15.5q30 19 60 42q14 11 26 22t26 22q8 6 16 16q6 5 11.5 10.5t12.5 10.5q0 1 1 2l27 27q27 27 52.5 55t51.5 56q9 11 18 21t18 22
q11 11 20 23q9 10 17.5 20t17.5 21q5 6 9 12.5t8 13.5q9 16 18 31.5t18 30.5t18 29.5t18 28.5t18 26.5t18 26.5q8 10 14.5 20t13.5 21q6 8 11.5 15t11.5 15q7 10 13.5 19.5t14.5 18.5q6 8 11.5 15t11.5 14q8 11 15.5 20.5t14.5 18.5l3 3q8 9 15.5 18t15.5 18q8 8 14 16.5
t14 16.5q5 5 11 10.5t11 10.5q7 7 17 7h5q5 -3 2 -7q-3 -8 -8 -14q-8 -11 -16 -22.5t-16 -22.5q-13 -21 -27 -38q-5 -8 -11.5 -16t-12.5 -16l-21 -30q-4 -7 -9 -13l-10 -12q-4 -7 -8.5 -13t-9.5 -13l-21 -27q-5 -6 -9.5 -12.5t-9.5 -13.5q-6 -8 -11 -13q-8 -11 -16.5 -22.5
t-16.5 -22.5q-7 -8 -13.5 -16t-13.5 -16q-6 -8 -11.5 -15.5t-11.5 -15.5q-3 -4 -6.5 -7.5t-6.5 -8.5q-8 -10 -14 -21t-13 -22q-6 -11 -12 -21.5t-12 -20.5l-10 -20t-11 -20q-12 -24 -23.5 -48t-21.5 -48q-8 -18 -15 -36.5t-13 -36.5q-5 -16 -10 -31t-9 -32q-4 -12 -7 -23.5
t-5 -24.5q-2 -8 -3 -15.5t-2 -16.5q-1 -8 -1.5 -15.5t-1.5 -15.5q-1 -12 0 -23.5t0 -22.5q3 -6 3 -12.5t2 -13.5q2 -4 2 -7t1 -7q4 -29 15 -58q5 -18 14 -31q1 -2 1.5 -2t1.5 -2q7 -7 14 -3q1 1 3 0q0 -4 -2 -4q-3 -2 -6 -3.5t-8 0.5q-10 4 -17 13q-5 7 -8 14l-6 14
q-5 11 -8 22.5t-6 22.5q-2 7 -3 14t-3 15t-2.5 16.5t-2.5 16.5q-2 10 -1.5 19.5t-1.5 19.5q-1 9 0.5 17.5t1.5 17.5q1 9 2.5 17.5t1.5 17.5q2 8 3.5 16t4.5 16l12 51q5 13 9 25.5t9 26.5q10 27 20.5 52.5t23.5 51.5q5 12 10.5 24t12.5 24v2q2 0 2 1t-1 0q0 -1 -1 -1z
M858 410q2 0 2 3q1 0 1 3q2 0 2 2q2 0 2 2q1 0 4 3q2 5 5.5 8.5t6.5 8.5q5 8 11 14.5t12 14.5q7 10 14 19.5t15 19.5q7 8 13 17t13 17l39 54q5 8 10.5 14.5t10.5 14.5q7 9 13 18.5t12 18.5q3 1 3 4q1 0 1 3l2 1q1 1 2 1l-1 1q-1 -1 -1 -2q-2 0 -2 -1q-1 0 -1 -3q-3 -1 -5 -4
t-4 -5q-3 -4 -6.5 -7.5t-6.5 -7.5q-7 -8 -13 -17t-13 -17q-6 -8 -12 -15t-11 -15l-6 -6t-5 -6q-6 -8 -11.5 -16.5t-11.5 -16.5t-12 -15.5t-11 -15.5q-13 -18 -25 -36l-24 -36q-2 -3 -4 -5t-1 -5q-1 0 -1 -2q-3 0 -3 -2q-1 0 -1 -4q-2 0 -2 -2h-1v-1zM463 518q1 0 1 2l2 2
q10 8 18.5 16t17.5 16q7 6 13.5 12.5l12.5 12.5q18 19 37 37q6 5 11.5 11t11.5 12q21 22 40.5 43t39.5 44v2q6 8 12.5 16.5t12.5 17.5q9 12 16 29q4 10 4 15l-7 -3.5t-6 -4.5q-11 -8 -21 -17t-20 -19q-8 -8 -16 -15.5t-15 -16.5q-9 -9 -17.5 -18t-16.5 -18
q-10 -12 -19.5 -23t-17.5 -22l-8 -10l-8 -10q-2 -4 -5.5 -7t-5.5 -7q-5 -6 -9 -12t-9 -12q-4 -7 -8.5 -13t-8.5 -12q-5 -8 -11 -16l-12 -16q-2 -3 -4 -5.5t-2 -6.5q-2 0 -2 -2q-1 -1 -1 -2q-3 0 -1 -1q0 1 1 1z" />
    <glyph glyph-name="V" unicode="V" horiz-adv-x="810" 
d="M1138 787q1 -1 1 -2l-2 -1q-3 0 -5 1t-5 2q-9 2 -18 -0.5t-17 -6.5q-29 -15 -53 -30q-9 -5 -17 -11t-16 -11q-17 -11 -31 -22q-5 -3 -9 -6l-8 -6q-8 -5 -14.5 -11t-14.5 -11q-9 -6 -17.5 -13t-17.5 -13q-8 -6 -15 -12.5t-15 -11.5q-21 -17 -41 -34l-40 -34
q-10 -9 -20 -17t-19 -17q-9 -8 -18 -16.5t-17 -17.5q-6 -6 -12.5 -12t-12.5 -12q-8 -8 -15.5 -16t-14.5 -16q-11 -11 -20.5 -22t-18.5 -22l-20 -24t-20 -25q-16 -20 -31.5 -41t-30.5 -42q-11 -15 -21 -30t-21 -29q-8 -13 -16.5 -25t-16.5 -25q-8 -11 -15.5 -23t-15.5 -24
l-18 -28l-18 -28q-6 -8 -11 -16l-10 -16l-39 -60l-18 -28t-19 -28q-12 -18 -24 -34.5t-25 -33.5q-9 -12 -18 -23t-19 -21q-20 -24 -45 -39q-20 -12 -40 -6q-9 2 -15 9q-3 2 -5 5q-6 8 -8.5 17t-3.5 18q-1 8 -1 16v16q0 7 -0.5 14t1.5 14q2 8 2.5 15.5t1.5 15.5q2 8 3.5 16
t3.5 16q2 7 3.5 14.5t3.5 14.5q2 6 3 12t3 12l4 12l4 12q2 9 5 18l6 18q5 18 11 34.5t13 33.5q6 16 11.5 31.5t11.5 31.5q8 22 17.5 43.5t18.5 44.5q7 16 13.5 31t13.5 30q8 17 15.5 33t15.5 32q9 20 18 38.5t18 38.5t18 39t19 39l20 42l20 42q11 23 21.5 46t20.5 46
q6 15 11.5 30t9.5 30l6 18t5 20q1 5 1.5 10t1.5 10q0 10 -3 21q-2 2 -2 3q-1 1 -1 2q-4 3 -8.5 3.5t-8.5 -0.5q-11 -2 -22 -6t-22 -9q-14 -6 -25.5 -13t-23.5 -15q-8 -4 -14 -9t-13 -10q-21 -14 -40.5 -30t-38.5 -32q-7 -6 -13 -12.5t-13 -12.5q-8 -6 -14 -13t-13 -13
q-5 -6 -11 -12l-12 -12q-11 -13 -21 -25t-20 -26q-18 -21 -31 -43q-7 -10 -12.5 -19t-11.5 -19q-17 -27 -28 -60q-3 -6 -6 -4q-1 0 -3 2v1q-2 0 -3.5 2.5t0.5 3.5q2 2 1.5 4.5t0.5 4.5q3 7 5.5 13.5t6.5 12.5q9 18 19 35t21 33q13 19 26.5 36.5t27.5 35.5q12 12 23.5 24.5
t23.5 24.5q5 5 10.5 11t10.5 12q19 18 39 34.5t40 33.5q10 8 20 15t21 15q27 19 58 34q11 6 22.5 11t24.5 7q20 3 36 -2q3 -2 5.5 -4t5.5 -4q7 -7 10 -22q1 -5 0.5 -11t-1.5 -14q0 -5 -1.5 -11.5t-3.5 -14.5q-5 -19 -11.5 -36.5t-12.5 -34.5q-9 -22 -18 -43.5t-18 -42.5
q-17 -36 -34 -74q-11 -21 -20.5 -42.5t-20.5 -43.5l-33 -72q-9 -18 -17.5 -36t-16.5 -36q-5 -11 -9 -20.5t-9 -20.5q-6 -13 -12 -25.5t-12 -26.5q-5 -14 -11 -27t-11 -27q-8 -21 -16.5 -42t-17.5 -42q-5 -14 -9.5 -26.5t-9.5 -26.5q-5 -12 -9 -24t-8 -25q-2 -7 -4 -13
l-4 -12t-3.5 -12t-3.5 -12t-3.5 -12.5t-3.5 -12.5q-2 -3 -2 -7v-8q-2 -5 -3 -9.5t-2 -9.5q-2 -7 -2.5 -14t-2.5 -15q-3 -12 -3 -24v-24t3 -23q4 -14 10 -22q5 -5 10 -6t11 0q3 2 6.5 3.5t5.5 3.5q8 5 14.5 10t13.5 11q14 14 26.5 29t24.5 30q10 12 18.5 24.5t17.5 25.5
q9 14 18.5 26.5t17.5 26.5q7 10 13.5 20.5t13.5 20.5q11 18 22.5 36t22.5 35q9 14 18.5 28.5t19.5 28.5q15 24 29 45q10 15 20 30.5t21 30.5q12 17 24 33.5t24 33.5q11 14 22 29t23 30q7 8 12.5 15.5t12.5 15.5q14 16 27.5 32t27.5 32q10 11 20 21.5t19 20.5q8 8 15 14.5
t15 14.5q15 14 30.5 27.5t30.5 26.5l28 24l28 24q12 9 23 19t24 19q8 5 15 11t15 12q10 8 20 15.5t20 15.5t20 15l20 14q17 11 33.5 21.5t33.5 21.5q9 5 18.5 9.5t18.5 9.5q6 4 13 5.5t15 2.5q13 2 21 -5q1 0 2 -1z" />
    <glyph glyph-name="W" unicode="W" horiz-adv-x="1085" 
d="M1144 680q1 -1 1 -3t-1 -3h-1q-3 1 -6.5 0.5t-6.5 1.5q-1 1 -3 1q-11 0 -22.5 2t-22.5 1q-8 0 -16 1t-16 1t-16 1.5t-16 1.5t-16.5 0.5t-16.5 0.5q-2 0 -4.5 1t-5.5 1h-3q-2 0 -2 -2v-5q2 -10 1.5 -20t-1.5 -19q-1 -6 -1 -11t-1 -10q-2 -8 -3 -15.5t-3 -15.5
q-2 -4 -2 -12q-2 -11 -5 -20t-5 -19q-2 -11 -5.5 -21t-6.5 -20q-2 -10 -5.5 -19t-5.5 -19q-3 -11 -7.5 -20.5t-7.5 -20.5l-8 -20t-9 -21q-2 -7 -5.5 -14t-5.5 -14q-6 -16 -16 -33q-6 -15 -12.5 -29.5t-13.5 -29.5q-4 -6 -7.5 -12t-6.5 -13l-12 -24t-12 -23q-7 -13 -14 -25
l-14 -24l-22 -36t-22 -35l-20 -30t-21 -30q-8 -9 -15.5 -19.5t-15.5 -19.5q-8 -10 -16 -19l-16 -18l-15 -15t-14 -13q-22 -20 -43 -33q-9 -6 -19 -10t-21 -5h-7q-9 0 -17.5 2t-15.5 8q-11 8 -15 18q-9 15 -10 30q-3 9 -3 20q-1 5 -0.5 10.5t0.5 11.5q-3 13 0 27v13t2 13
q2 8 2 15.5t2 15.5q2 10 4.5 19.5t4.5 20.5q1 6 2.5 12t2.5 12q2 8 5 16t5 16q3 11 5.5 21t6.5 20q6 17 12 35l12 36l27 72q8 20 16 39l16 38l14 30l14 30q7 17 14 33t13 33q2 2 3 4l1 1v2q-2 0 -2 -1l-1 -1l-21 -33l-16 -24t-16 -25l-10 -16l-10 -16q-8 -11 -15 -22
l-14 -22q-8 -12 -15 -23.5t-15 -23.5q-9 -14 -18 -27.5t-18 -27.5q-8 -11 -15 -22.5t-15 -22.5l-22 -32t-22 -31q-14 -21 -29 -41l-30 -40q-12 -17 -24.5 -33t-26.5 -32q-5 -6 -10 -12.5t-10 -12.5q-6 -7 -11.5 -14t-11.5 -14t-12 -13.5t-12 -14.5q-2 -2 -5 -4.5t-5 -5.5
q-3 -5 -6.5 -7.5t-5.5 -6.5q-6 -7 -13.5 -13t-12.5 -13q-1 -3 -4 -4q-14 -12 -26.5 -24.5t-26.5 -23.5q-16 -14 -34 -28q-8 -5 -14.5 -11t-13.5 -12q-3 -2 -11 -6l-2 -1q-2 0 -3 1q-2 0 -4 2q-2 4 2 4q4 3 7.5 6.5t7.5 6.5q8 8 14.5 16t13.5 16q10 11 18.5 23t17.5 25
q10 14 20 30q9 15 17.5 29.5t16.5 30.5q9 17 18 34.5t17 34.5q5 12 10.5 23.5t10.5 22.5q5 9 8.5 18.5t7.5 19.5q5 11 9.5 21.5t8.5 21.5q5 13 10 25l10 24q7 17 12.5 33t12.5 33q8 19 14.5 37.5t14.5 36.5q6 14 11.5 28t11.5 28q7 16 13.5 32t13.5 32q5 12 9.5 22.5
t9.5 21.5q4 10 8.5 19.5t8.5 19.5q5 10 9.5 20t9.5 21q3 6 6.5 12.5t6.5 13.5q6 12 11.5 23.5t10.5 22.5q4 8 10 18q5 11 11 22l12 22v1q1 1 1 2q-5 -4 -9 -7.5t-9 -8.5l-3.5 -3.5t-2.5 -3.5q-11 -10 -21 -19.5t-21 -18.5q-8 -6 -15 -12.5t-15 -13.5q-8 -8 -16 -14t-16 -13
l-39 -30q-10 -8 -19 -15l-18 -14q-10 -7 -19.5 -13.5t-18.5 -14.5q-8 -5 -15.5 -11t-15.5 -12q-5 -4 -10.5 -7t-10.5 -7q-3 -2 -6 -5t-7 -6q-9 -7 -18.5 -14.5t-18.5 -14.5q-9 -6 -16.5 -12.5t-15.5 -13.5q-13 -10 -21 -19q-16 -14 -29.5 -30.5t-25.5 -34.5q-6 -10 -11 -19
t-9 -20q-5 -12 -5 -22q0 -4 -1 -6q-3 -3 -1 -8q1 -2 1 -7q0 -4 4 -10q2 -2 -1 -2q-1 0 -2 0.5t-2 0.5q-6 6 -6 16q-1 17 3.5 33t12.5 31q8 14 17 27t20 26q3 4 6 7.5t7 7.5q12 14 24 23q8 7 15.5 13t15.5 13q5 5 10 8.5t10 6.5q6 6 12 10.5t13 9.5l12 9q8 7 17 13.5t18 13.5
q8 5 15 10.5t14 10.5q8 6 15.5 11.5t15.5 11.5q6 4 11.5 8.5t10.5 8.5q13 9 27 20q5 3 8.5 6.5t7.5 6.5q6 5 11.5 9.5t11.5 8.5l1 1q8 7 14.5 13t14.5 12q28 24 56 50l19.5 19.5t19.5 20.5q6 7 12 13.5t11 13.5q3 4 6 7t6 8q2 5 5.5 10t6.5 10q4 6 10 6q3 0 6 -1q5 -1 2 -7
q-2 -5 -4.5 -9t-5.5 -8l-10 -18l-10 -18q-8 -14 -15 -28.5t-14 -28.5q-6 -11 -11.5 -23t-11.5 -23q-9 -18 -17.5 -36.5t-16.5 -36.5q-8 -15 -14 -30.5t-13 -30.5q-5 -11 -9 -21t-9 -21t-9.5 -21.5t-9.5 -21.5q-5 -12 -9.5 -24t-9.5 -24q-8 -19 -15.5 -38t-15.5 -39
q-3 -9 -6.5 -18t-7.5 -18q-7 -18 -13.5 -35.5t-13.5 -34.5q-5 -14 -11 -26.5t-11 -25.5q-5 -11 -9.5 -22t-9.5 -22t-10 -23t-11 -23q-3 -8 -6.5 -15t-6.5 -14q-11 -20 -21.5 -41t-22.5 -42q-9 -14 -17 -27t-17 -26q-6 -9 -12.5 -18t-13.5 -18q-2 -2 -3.5 -5t-3.5 -5l-1 -1
v-2q2 0 2.5 1t1.5 1q11 11 21.5 20.5t21.5 19.5q8 8 15.5 16.5t15.5 16.5q5 6 11 12t11 13q8 8 15 16.5t14 16.5q5 6 11 12.5t11 12.5l10 12t10 13q10 14 20.5 27t20.5 27q11 13 20.5 26t18.5 27q13 17 25 34.5t24 34.5q16 23 31 46.5t31 46.5q10 14 19 29t19 29
q8 12 16 24.5t16 25.5q8 11 14.5 22t13.5 22q10 16 19.5 31.5t20.5 30.5l21 33q5 7 9 13.5t10 12.5q2 2 4 2.5t4 1.5q3 0 4.5 -0.5t3.5 -0.5q7 -2 5 -9q-4 -11 -7 -21.5t-8 -21.5q-3 -7 -6 -13.5t-6 -14.5q-5 -12 -10 -23.5t-10 -22.5q-5 -13 -10.5 -25.5t-11.5 -25.5
q-4 -11 -8.5 -22t-9.5 -22q-5 -10 -8.5 -20.5t-8.5 -20.5q-4 -12 -8.5 -23.5t-8.5 -23.5l-24 -63q-3 -12 -6.5 -23.5t-7.5 -23.5q-4 -13 -7.5 -25.5t-6.5 -25.5q-2 -9 -5 -18t-4 -18q-2 -7 -3 -13t-2 -13q-2 -8 -3 -16.5t-3 -16.5v-1q-1 -13 -3 -26t-1 -26q0 -10 0.5 -20
t3.5 -19l4 -16t7 -16q4 -7 11 -12q5 -5 14 -5h10q16 4 32 14q10 7 19.5 14t18.5 15l10 10l10 10l13 13t12 13q6 8 12 14.5t12 14.5t11.5 14.5t11.5 14.5q13 18 25.5 36.5t25.5 37.5q8 14 16 27t17 27q11 19 22 38.5t22 39.5q7 14 14 28.5t14 28.5l10 22l10 22t9.5 21t9.5 21
t9.5 22t8.5 22q6 15 12 29.5t11 28.5q6 19 12 37t11 37q7 20 11 40q2 6 2.5 12t2.5 12q1 4 1 8t2 8v1q2 17 3 34l2 34q0 8 -7 9q-9 2 -16 4.5t-15 5.5q-7 3 -13 6.5t-12 9.5t-10.5 14.5t-3.5 17.5q1 19 21 24q2 0 3.5 0.5t3.5 0.5q8 -1 14 -3.5t12 -6.5q9 -7 13.5 -15.5
t8.5 -18.5q3 -8 4.5 -16.5t2.5 -16.5q0 -3 3 -4q3 0 6 -0.5t6 -0.5q26 -3 51 -3.5t50 -3.5q8 0 16.5 -0.5t16.5 -2.5q7 -1 13.5 -1t12.5 -2zM960 697q3 0 1 2q-2 9 -4 18.5t-5 17.5q-6 16 -17 26q-10 8 -20 8t-14 -9q-1 -2 -2 -5t0 -5q-2 -7 3 -16t10 -14q11 -9 22.5 -14
t24.5 -8z" />
    <glyph glyph-name="X" unicode="X" horiz-adv-x="939" 
d="M1389 685q0 -1 -1 -1q0 -1 -1 -1q-7 5 -14 4.5t-15 1.5q-5 0 -8 -1t-8 -1q-5 1 -8 0.5t-8 -0.5t-11 -0.5t-11 -0.5h-11t-10 -1t-8.5 -0.5t-8.5 -0.5q-8 -2 -16.5 -2t-16.5 -1q-45 -3 -94 -18t-95 -35q-13 -7 -26.5 -13t-26.5 -13l-30 -16l-30 -16q-13 -8 -25.5 -15.5
t-24.5 -15.5q-10 -7 -20.5 -13t-20.5 -13q-8 -5 -16 -11l-16 -12q-16 -9 -28 -19q-4 -3 -7 -6t-8 -5l-10 -8t-11 -8q-23 -17 -43 -34l-8 -6t-9 -7q-34 -28 -67 -57t-67 -58q-7 -6 -13 -12t-13 -12q-3 -3 -4 -6q-7 -22 -14 -43.5t-14 -43.5q-4 -11 -7 -23t-7 -24
q-4 -11 -6 -23t-6 -23q-4 -10 -6.5 -19.5t-4.5 -19.5q-2 -8 -4 -17l-4 -18q-2 -6 -3.5 -12.5t-3.5 -12.5q-1 -5 -2 -9.5t-2 -9.5q0 -5 -1 -9.5t-3 -9.5v-2q0 -6 -1 -12t-3 -12q-2 -7 -1.5 -14t-2.5 -14q-1 -2 -1 -6q-3 -30 -3 -59q-1 -12 0 -24t5 -23q1 -3 3 -7q0 -2 1 -4
q4 -2 7 -2q1 -2 4 1q4 2 4 5h1q0 2 2 2q2 3 3 4q9 13 20 26q5 7 10.5 14.5t10.5 14.5q6 8 11.5 14.5t10.5 14.5q8 10 16 22q5 5 8.5 10.5t8.5 10.5q5 8 10.5 14.5t10.5 13.5q2 3 5 6t5 6l8 10t9 10q4 6 8.5 11t8.5 11l1 1l14 16l14 16q11 14 23 27t24 27q7 8 13 15t13 15
q23 26 46 50.5t46 49.5q8 7 15 14.5t15 14.5q9 9 18 17.5t19 17.5q10 7 20 11h3q2 -2 -1 -2q-2 -3 -8 -7q-5 -2 -8.5 -5.5l-7.5 -7.5q-5 -4 -8.5 -7.5t-8.5 -7.5q-8 -8 -15.5 -16t-15.5 -16q-18 -17 -35.5 -36t-34.5 -38q-9 -10 -18 -19.5t-18 -20.5q-8 -9 -15.5 -17.5
t-15.5 -17.5l-8 -10t-9 -10q-9 -11 -18 -21.5t-18 -21.5q-7 -8 -13 -14.5t-12 -14.5q-5 -7 -11 -14t-12 -15q-2 -3 -5 -6t-5 -7q-7 -9 -13.5 -18t-13.5 -17q-6 -8 -11.5 -16t-12.5 -16q-5 -6 -9.5 -13t-9.5 -14q-6 -8 -12 -15.5t-12 -15.5q-5 -7 -10 -13l-10 -12
q-5 -8 -10 -13q-2 -2 -2.5 -3t-2.5 -3l-1 -1q-4 -4 -8 -5q-5 0 -8 3h-1q-2 1 -6 5h-1v1q-3 3 -7 11q-7 15 -8 29q-1 7 -1.5 13.5t-0.5 13.5q-2 20 0 39.5t3 39.5q1 4 2 7t1 8t1 8t2 7q0 7 1 13t3 12q0 12 4 23q2 8 2 14q2 7 3 14t3 14q3 9 4.5 17.5t4.5 16.5q2 3 2 6.5
t1 7.5q2 5 3 11t3 12q2 8 4 15t4 15q2 6 4 13t4 15q2 7 4.5 14t4.5 15q4 10 6 20t7 20v7q-7 -6 -9 -8q-4 -5 -8 -8.5t-9 -7.5q-8 -7 -15 -14t-15 -14q-5 -5 -10 -9.5t-10 -10.5q-8 -7 -15 -13t-14 -14q-5 -5 -10.5 -9.5t-10.5 -9.5q-15 -14 -30.5 -28t-30.5 -28
q-23 -22 -47 -42.5t-48 -40.5q-11 -9 -22.5 -17.5t-23.5 -16.5t-25 -15.5t-27 -12.5q-10 -4 -21 -6t-22 0q-18 2 -29 14q-8 8 -12.5 18t-7.5 21q0 6 -0.5 11.5t-0.5 10.5q-1 5 0 10.5t1 10.5q0 4 3 9q2 2 5 1q1 -1 2 -1.5t1 -2.5v-5q-1 -5 -1 -10.5t-1 -10.5q-1 -14 4 -31
q2 -6 4.5 -12t6.5 -12q5 -7 12 -11.5t16 -4.5q12 0 27 5q32 12 59 33q16 11 31 22.5t30 23.5q19 17 37 33t37 33q8 8 16 15t16 15q5 5 11.5 10.5t12.5 11.5q13 12 25.5 23.5t25.5 22.5l12 12t13 12q18 18 39 36l16.5 16.5t18.5 15.5q2 2 4 8q4 12 7.5 23.5t7.5 22.5
q5 11 8 22.5t8 22.5q19 52 38 99q5 10 9 19.5t8 18.5q6 12 12.5 24t12.5 24q8 17 17 32l18 30q2 2 3.5 4t0.5 5q-3 -1 -7 -5l-51 -36q-14 -9 -28.5 -19t-28.5 -19q-11 -7 -22.5 -15t-23.5 -16q-9 -7 -18.5 -12.5t-19.5 -12.5l-18 -12t-18 -14q-9 -7 -17.5 -13.5t-17.5 -12.5
q-5 -4 -9.5 -8t-9.5 -8q-8 -7 -15.5 -14.5t-15.5 -14.5q-7 -8 -14 -15.5t-15 -15.5q-6 -8 -12.5 -16t-12.5 -16q-8 -11 -14.5 -22t-12.5 -22l-3 -3q-1 -1 -3 -2t-2 1q-3 2 -1 4q4 9 8.5 16.5t9.5 15.5q12 18 27 36q6 6 11.5 12.5t11.5 13.5q14 16 29.5 30t31.5 28q8 6 15 12
t15 11q5 3 9 6.5t9 6.5l14 10l14 10q8 6 16 11.5t16 10.5t17 11t17 11q5 4 10.5 7t10.5 7q8 5 16.5 11t16.5 11l16 12t16 11q6 4 12 7.5t12 8.5q8 6 14 10q5 4 9 7t9 6q4 2 7 5.5t6 7.5q10 16 19.5 31t19.5 30q6 7 11.5 14t10.5 14q8 9 14.5 18t15.5 18q5 5 10 11t11 11
q11 11 22 20.5t25 17.5q4 2 8.5 3t9.5 2q4 2 7 0.5t6 -2.5q2 -2 3.5 -5.5t-0.5 -6.5q-5 -16 -14 -28q-11 -16 -27 -34l-6 -6t-7 -6q-26 -26 -56 -50l-12 -10t-12 -9q-6 -5 -11 -9.5t-11 -7.5q-5 -3 -6 -7q-11 -19 -22.5 -37.5t-21.5 -38.5q-20 -34 -39 -74q-5 -11 -10 -21.5
t-10 -21.5q-7 -18 -13 -31l-12 -32l-12 -32l-10 -28l-10 -28v-6q3 2 4.5 4.5t3.5 4.5q30 26 60 51.5t59 50.5q14 13 29 23q10 9 20 16.5t20 15.5t20 15t20 15q14 10 28 19.5t28 18.5q18 12 36 23.5t36 22.5q22 14 44.5 26.5t45.5 23.5q15 8 29.5 15t30.5 13l15 7.5t15 6.5
q24 9 42 14.5t32.5 8.5t27 5t25.5 5q9 2 18 2t19 2q8 1 15.5 1.5t15.5 -0.5q3 0 5.5 1.5t4.5 0.5q3 -1 10 1q4 1 7.5 0t8.5 1q7 -2 13 -0.5t13 0.5q5 -1 9.5 0t9.5 0q5 0 10 -0.5t10 -0.5q3 0 6 -1.5t6 -1.5q2 0 3 -1.5t2 -2.5v-1zM734 694q-6 -10 -13 -19t-12 -19q1 0 5 2
q10 8 19 16t19 15q4 4 7 7.5t8 6.5q24 21 42 43q15 15 24 33q2 5 4.5 10t2.5 11q0 3 -4 2q-3 -2 -7 -4.5t-8 -5.5q-8 -7 -15.5 -14.5t-14.5 -15.5q-8 -8 -15 -16l-14 -16q-8 -9 -14.5 -18t-13.5 -18zM708 655l1 1q-1 0 -1 -1zM485 222h-1h1v0zM530 279l1 1q-2 0 -1 -1z" />
    <glyph glyph-name="Y" unicode="Y" horiz-adv-x="840" 
d="M787 799q9 -1 5 -8q-2 -7 -4.5 -13t-5.5 -13l-10 -22l-10 -22q-5 -15 -10.5 -29.5t-11.5 -29.5q-6 -16 -11.5 -32t-11.5 -32q-4 -9 -7 -18.5t-6 -19.5q-5 -13 -9 -25.5t-9 -24.5q-7 -18 -13 -36.5t-13 -37.5q-9 -20 -16.5 -41t-15.5 -42q-7 -20 -14.5 -39.5t-14.5 -39.5
q-5 -14 -11.5 -28.5t-12.5 -28.5q-8 -19 -15.5 -37t-15.5 -37q-10 -22 -21 -43.5t-22 -42.5q-10 -20 -21 -38.5t-22 -37.5l-24 -39q-8 -11 -16.5 -22.5t-17.5 -22.5q-8 -10 -15.5 -20t-16.5 -19q-7 -11 -15 -16q-3 -3 -5 -6.5t-5 -5.5l-39 -36q-30 -24 -60 -38
q-12 -5 -24.5 -9.5t-26.5 -6.5q-5 -2 -10.5 -2h-10.5h-9t-9 1q-22 2 -35 16q-13 16 -7 34q7 13 20 25q23 17 52 22q12 2 22.5 2t21.5 1q18 2 36 2h36h2h2q5 0 10 -1t10 -1t10 5l10 12l10 12q7 8 13 15.5t12 15.5q10 14 19 27t18 27t18 28.5t18 29.5q14 24 26.5 49.5
t24.5 50.5q8 17 15 33.5t14 33.5q5 11 9 21t9 20q5 14 10 26.5t10 25.5q5 12 9.5 24.5t9.5 25.5q3 8 6.5 16t6.5 17q5 13 9.5 26t9.5 26q3 8 5.5 15t5.5 15q5 14 9.5 26t9.5 26q4 11 8.5 22.5t8.5 23.5t8.5 24t8.5 24q0 1 0.5 1.5t0.5 1.5q2 2 2 4t1 5q-2 -1 -2 -2t-1 -2
q-11 -20 -23 -40l-24 -40q-12 -21 -25 -41.5t-26 -40.5q-13 -21 -26.5 -41t-26.5 -40q-8 -12 -16.5 -23t-16.5 -22q-7 -10 -14 -19t-14 -19q-5 -8 -11 -14.5t-12 -14.5q-5 -7 -11 -13t-12 -13q-2 -4 -5 -7l-6 -6q-14 -17 -30 -33t-32 -31q-23 -21 -48 -39q-20 -16 -41 -26
q-11 -5 -23 -9.5t-26 -6.5q-5 -1 -9.5 -1h-9.5q-5 -1 -9.5 -0.5t-8.5 0.5q-24 3 -38 19q-19 18 -26 49q-3 9 -4 18l-2 18q-1 7 -1 13.5t-1 12.5q0 5 1.5 8.5t0.5 8.5q0 10 2 15q1 5 0.5 9t0.5 9q2 5 2.5 11t1.5 12l4 16t4 17l6 22l6 22l8 24t9 24q7 21 16 42q6 15 12.5 30
t13.5 29q8 17 15.5 32.5t16.5 30.5q5 11 11 22l12 22l1 1v3q-3 -1 -7 -5q-8 -8 -16.5 -14.5t-16.5 -13.5q-5 -5 -10.5 -9.5t-11.5 -9.5q-7 -5 -13 -10t-13 -10q-10 -8 -20.5 -15t-20.5 -15q-8 -5 -15.5 -10t-15.5 -10q-11 -8 -22.5 -13.5t-22.5 -10.5q-10 -5 -25 -10h-1h-3
h-2q-5 0 -6 2q0 2 5 2h1h4q11 3 21.5 8.5t21.5 10.5q16 9 30.5 18.5t28.5 18.5l36 27q10 7 19.5 14.5t18.5 15.5q4 3 7.5 6t7.5 7q16 14 32 26q0 1 0.5 1t0.5 1q5 5 10.5 9.5t10.5 9.5q8 7 13 14.5t10 15.5q8 12 15 23.5t15 22.5q10 14 20 28.5t21 27.5q5 8 11 14.5t11 13.5
q12 15 25.5 28.5l26.5 26.5q5 6 11 9.5t12 8.5q6 3 11 3h3q2 0 3.5 -0.5t2.5 -0.5q4 -2 3 -8q-2 -8 -5.5 -14t-8.5 -13q-6 -8 -12.5 -16.5t-12.5 -16.5t-12 -14.5t-12 -13.5q-7 -8 -14 -15.5t-14 -15.5q-15 -17 -30.5 -32t-31.5 -31l-4.5 -4.5l-4.5 -4.5q-5 -3 -7.5 -7.5
t-5.5 -9.5q-7 -11 -13 -21.5t-13 -22.5q-14 -23 -26.5 -47.5t-23.5 -48.5q-13 -27 -25 -56l-10 -24t-10 -25t-9.5 -26t-9.5 -25q-6 -17 -10 -34.5t-9 -34.5q-2 -7 -3 -14l-2 -14q-2 -6 -2.5 -12.5t-1.5 -13.5q-3 -15 -3.5 -30t0.5 -31q1 -12 3 -24t7 -24l8 -16t11 -15
q12 -10 26 -13q4 -1 12 -1q8 -1 16.5 1t16.5 4q19 6 35.5 15.5t32.5 20.5q12 9 23 18t22 19q12 11 23 22t23 22q7 8 14 15.5t14 15.5q5 7 11 13.5t11 14.5q4 5 7.5 9.5t7.5 9.5q7 8 14 16.5t13 16.5q8 11 15.5 21t15.5 21l27 39q18 24 32 47q9 14 18 28.5t17 28.5
q7 11 13.5 21t13.5 21q5 8 9.5 17t10.5 17q5 11 11.5 20.5t11.5 20.5q2 5 4.5 8.5t4.5 8.5q6 12 12 24.5t14 23.5q8 13 13.5 27t10.5 28l18 45q6 15 14 31q2 4 4 6q2 3 9 5h4zM340 686q-1 -2 -2.5 -3t-1.5 -3q13 12 25 25q7 8 14 15t14 15q4 5 8 8.5t7 8.5l27 33
q7 9 13 18.5t12 18.5q4 6 4 8q-2 0 -4 -1q-1 -1 -1.5 -2t-2.5 -2q-11 -11 -21 -21.5t-19 -21.5q-8 -10 -16 -19.5t-16 -19.5q-10 -13 -20 -27t-19 -28q-1 -1 -1 -2zM323 -168q1 0 1 1t-2 1h-32h-14h-28.5t-30.5 -1q-7 -1 -14.5 -1.5t-14.5 -2.5q-24 -5 -40 -18
q-6 -4 -10 -9.5t-8 -12.5q-7 -15 2 -27q5 -7 12.5 -11.5t16.5 -4.5q3 -1 8 -1q9 0 17.5 2t17.5 4q32 11 56 28q8 5 15 10.5t14 11.5q8 8 17 15.5t17 15.5z" />
    <glyph glyph-name="Z" unicode="Z" horiz-adv-x="996" 
d="M880 854q6 -1 4 -8t-5.5 -12.5t-7.5 -11.5q-9 -14 -18.5 -28t-18.5 -28l-30 -48q-6 -10 -12 -20.5t-12 -20.5q-5 -8 -8.5 -14.5t-8.5 -14.5t-9.5 -15t-9.5 -15q-8 -14 -16.5 -27t-17.5 -27q-8 -11 -15 -23t-15 -23q-11 -15 -21.5 -29t-21.5 -28q-7 -8 -13.5 -17
t-13.5 -17q-15 -17 -31 -33l-32 -32q-8 -8 -16 -14.5t-16 -13.5q-26 -22 -55 -40l-2 -1h1q2 0 4 0.5t5 0.5h6.5t7.5 1q6 2 12 2h13h17h3h8q17 0 34 -3q8 -2 16 -3.5t16 -3.5t16 -5.5t16 -7.5q19 -9 35 -22q10 -8 18 -17.5t16 -20.5q16 -23 22 -55q2 -5 3 -10.5t1 -11.5
q3 -14 2.5 -28.5t-1.5 -28.5q0 -9 -1.5 -18t-3.5 -18l-6 -22l-6 -22q-4 -10 -7.5 -19.5t-8.5 -19.5q-2 -3 -3 -6t-3 -6q-19 -37 -45 -73q-14 -19 -29 -35q-11 -14 -24 -27q-11 -10 -21.5 -20t-22.5 -20q-23 -18 -48 -36q-20 -14 -41 -25t-43 -21q-32 -16 -60 -23
q-11 -3 -20.5 -5.5t-19.5 -5.5l-36 -6q-7 -1 -14.5 -1.5t-15.5 -0.5h-10h-1q-3 0 -5 -1h-4l-2 1v-1h-4q-3 1 -8 1h-4h-2h-5q-7 0 -13 1t-14 3q-5 0 -10.5 1t-11.5 3q-12 1 -24 6l-14 6t-14 7q-12 7 -23.5 14.5t-21.5 18.5q-11 10 -19.5 21.5t-15.5 25.5q-8 19 -12 37
q0 4 -1 8.5t0 9.5q0 5 -0.5 9.5t0.5 9.5q3 31 16 58t30 47q12 15 24 26q8 6 15.5 12t15.5 11q24 16 55 27q8 3 16 5.5t16 4.5q7 1 13 2t14 2h13.5t12.5 1q5 1 10 1h10h10h5h6h9q2 0 3 1h8q8 0 15.5 -1t15.5 -2q9 0 18 -2l18 -4q3 -2 7 -3.5t8 -3.5q3 -4 5 -8q0 -3 -1 -3h-3
q-2 4 -4 4q1 0 1 -1q3 -3 -1 -3h-3q-4 8 -11 10.5t-14 5.5h-5t-5 2q-5 -1 -9 0.5t-9 1.5q-9 2 -18 1t-18 1h-3q-4 0 -8 -0.5t-9 -0.5h-6q-6 0 -10 1q-3 -1 -9 -1q-8 -1 -16 -1t-16 -2q-26 -4 -55 -17q-11 -4 -21 -9.5t-21 -12.5q-14 -8 -25 -19t-21 -22q-8 -8 -15 -18
t-13 -20q-12 -23 -19 -50q-2 -8 -2 -11q0 -6 -1.5 -11.5t-0.5 -11.5q1 -14 3.5 -27t7.5 -27q10 -21 24 -39q17 -21 43 -36q26 -17 56 -23q10 -3 19 -4.5t18 -3.5h22h18h10q2 0 4.5 0.5t4.5 0.5q3 -1 5.5 0t4.5 1q6 1 11.5 1.5t11.5 2.5q11 2 21 4.5t21 5.5q33 10 68 26
q25 11 47 25t45 29q10 7 19 14t18 15q8 8 16 15t16 15q11 10 20 21.5t19 22.5q11 12 19.5 24.5t17.5 25.5q8 14 15.5 27.5t13.5 27.5q10 18 16 40q4 9 6.5 19.5t5.5 20.5q1 3 1 6.5t1 6.5q2 8 2.5 17t1.5 18q0 5 1 10t0 10q-2 8 -1.5 14.5t-1.5 13.5q-3 24 -10 43
q-10 25 -22 41q-6 8 -12 14.5t-13 11.5q-21 18 -46 27q-21 8 -41 11q-4 1 -7.5 1.5t-8.5 1.5h-3h-1q-6 -1 -11.5 0t-10.5 1q-4 0 -7.5 -1t-6.5 -1h-8t-8 -1q-3 -1 -7 -1t-9 -1q-8 -2 -16 -3t-16 -4q-5 -1 -8.5 -3t-7.5 -4q-14 -7 -27.5 -12.5t-28.5 -9.5q-6 -3 -12 -3h-3h-1
h-3h-1h-4q-6 0 -7 4q-1 2 1 2.5t4 1.5q8 5 16 8t16 7q8 3 15.5 5.5t15.5 4.5q11 2 20.5 8.5t18.5 12.5q12 8 23 16.5t22 16.5l12 10t12 11q13 11 25 23l24 24q8 8 14.5 16t14.5 17q4 5 7.5 10t8.5 10q7 9 13.5 18t14.5 18q11 15 21.5 31t21.5 33t21.5 33.5t21.5 33.5
t21.5 35t21.5 36q10 14 18.5 29.5t17.5 29.5t17.5 26.5t17.5 25.5q4 6 8.5 12.5t8.5 12.5q2 2 2.5 2t1.5 2v2l-1 1l-1 -1q-20 -15 -41 -27.5t-42 -25.5l-18 -10l-18 -10q-17 -9 -33 -17.5t-33 -16.5q-11 -5 -21.5 -10.5t-21.5 -10.5q-16 -7 -31 -14t-31 -13
q-17 -8 -35.5 -15.5t-36.5 -14.5q-14 -5 -27.5 -11t-27.5 -12q-38 -17 -74 -34q-14 -8 -28.5 -16t-27.5 -18q-11 -9 -21 -20t-17 -24q-11 -21 -6 -41v-2q-2 -1 -4.5 -1t-3.5 2q0 2 -1 3t-1 3q-2 21 9 41q7 11 15.5 20.5t18.5 18.5q12 12 30 22q10 5 19.5 10.5t19.5 10.5
q15 7 30.5 14.5t31.5 13.5q14 5 27.5 11t26.5 12q11 5 20.5 8t20.5 8q8 4 17 7.5t17 7.5q16 7 31 13.5t31 13.5q5 3 10.5 6t11.5 5q15 8 30.5 15.5t30.5 15.5q17 9 33 18.5t33 19.5q16 9 31 18.5t30 20.5q15 9 30 21q5 3 9 3.5t9 0.5h8v0z" />
    <glyph glyph-name="bracketleft" unicode="[" horiz-adv-x="448" 
d="M366 529q7 0 13 -1t12 1t12 1.5t11 0.5q2 0 4 -1l4 -2q3 -3 0 -3q-2 0 -4 -1t-4 -1q-6 -1 -12.5 -1t-12.5 -1q-5 -1 -10.5 -2t-10.5 0q-5 0 -10 -0.5t-10 0.5q-5 0 -6 -3q-2 -2 -2.5 -3.5t-1.5 -3.5q-8 -16 -15.5 -32t-15.5 -32q-9 -20 -19 -40t-21 -40q-10 -20 -20 -38
t-20 -38q-9 -17 -17.5 -33.5t-17.5 -33.5q-14 -25 -25.5 -50t-25.5 -50q-5 -11 -11 -22.5t-12 -22.5q-11 -18 -19.5 -36.5t-18.5 -38.5q-7 -14 -13 -28t-13 -29q-2 -5 -2 -6t5 -4q4 -3 8.5 -4t9.5 -3q11 -3 23 -5t24 -1q5 0 9 1t9 1q5 -1 9 -0.5t9 1.5q8 1 14.5 2.5
t14.5 1.5h2q1 -1 -1 -3q-1 -2 -2.5 -2t-3.5 -1q-8 -1 -16 -1.5t-16 -2.5q-23 -3 -46 -3q-12 -1 -23.5 1.5t-22.5 4.5q-7 2 -12.5 4.5t-12.5 4.5q-9 4 -7 16q2 8 5 14t6 13q4 10 8 19t9 18q8 15 14.5 30t14.5 30q8 14 14.5 28t14.5 28q11 20 21 40t21 40q11 21 21.5 42.5
t21.5 42.5q19 36 38 70q12 22 23.5 43.5t22.5 44.5q7 18 17 37q5 8 9.5 15.5t9.5 14.5q5 6 16 10q8 2 16.5 1.5t16.5 0.5z" />
    <glyph glyph-name="backslash" unicode="\" horiz-adv-x="198" 
d="M38 530q2 0 3.5 0.5t3.5 -1.5q3 -1 5 -6q1 -8 2 -15t3 -15t3.5 -15.5t2.5 -15.5q1 -6 2 -11.5t3 -11.5q2 -8 2.5 -15.5t2.5 -15.5q2 -5 2.5 -11t2.5 -12q1 -5 1.5 -10.5t2.5 -10.5q2 -8 3.5 -16.5t3.5 -17.5l2 -12t3 -12q2 -9 4.5 -18t4.5 -19q4 -15 7.5 -30.5t7.5 -31.5
q2 -10 4.5 -19.5t4.5 -19.5q2 -9 4.5 -17.5t4.5 -17.5q3 -9 5.5 -18.5t5.5 -19.5q2 -8 4 -17t5 -17q4 -15 8 -29.5t9 -29.5q1 -3 1 -6.5t1 -7.5q0 -9 -8 -9q-7 -2 -10 5q-3 6 -5.5 12.5t-4.5 14.5q-3 10 -6 19.5t-5 19.5l-12 42q-5 17 -9 33l-8 32q-9 31 -15 63
q-2 11 -5.5 22t-5.5 22l-4 18l-4 18l-6 22t-5 23q-1 8 -2.5 15.5t-2.5 15.5l-9 39q-2 10 -3.5 19.5t-3.5 19.5q-2 11 -5 21.5t-5 21.5q-1 5 -1.5 8.5t-1.5 8.5v5q-3 10 7 11h5z" />
    <glyph glyph-name="bracketright" unicode="]" horiz-adv-x="448" 
d="M82 -83q-7 0 -13 1t-12 -1t-12 -1.5t-11 -0.5q-2 0 -4 1l-4 2q-3 3 0 3q2 0 4 1t4 1q6 1 12.5 1t12.5 1q5 1 10.5 2t10.5 0q5 0 10 0.5t10 -0.5q4 0 6 3q2 2 2.5 3.5t1.5 3.5q8 16 15.5 32t15.5 32q9 20 19 40t21 40q10 20 20 38t20 38q9 17 17.5 33.5t17.5 33.5
q14 25 25.5 50t25.5 50q5 11 11 22.5t12 22.5q11 18 19.5 36.5t18.5 38.5q7 14 13 28t13 29q2 5 2 6t-5 4q-4 3 -8.5 4t-9.5 3q-11 3 -23 5t-24 1q-5 0 -9 -1t-9 -1q-5 1 -9 0.5t-9 -1.5q-8 -1 -14.5 -2.5t-14.5 -1.5h-2q-1 1 1 3q1 2 2.5 2t3.5 1q8 1 16 1.5t16 2.5
q22 3 46 3q12 1 23.5 -1.5t22.5 -4.5q7 -2 12.5 -4.5t12.5 -4.5q9 -4 7 -16q-2 -8 -5 -14t-6 -13q-4 -10 -8 -19t-9 -18q-8 -15 -14.5 -30t-14.5 -30q-8 -14 -14.5 -28t-14.5 -28q-11 -20 -21 -40t-21 -40q-11 -21 -21.5 -42.5t-21.5 -42.5q-19 -36 -38 -70
q-12 -22 -23.5 -43.5t-22.5 -44.5q-8 -18 -17 -37q-5 -8 -9.5 -15.5t-9.5 -14.5q-5 -6 -16 -10q-8 -2 -16.5 -1.5t-16.5 -0.5z" />
    <glyph glyph-name="asciicircum" unicode="^" horiz-adv-x="116" 
d="M90 544q0 -1 -1 -2q-4 -5 -12 -5q-5 0 -7 5q0 3 -0.5 10.5t-0.5 15.5v15.5v9.5q2 5 0 11q-2 -4 -4 -7.5t-5 -7.5q-5 -8 -9.5 -16.5t-8.5 -16.5l-9 -15q-2 -2 -4 -2q-3 0 -4 1q0 1 0.5 1.5t0.5 1.5q12 24 27 45q5 8 9.5 16t8.5 16q2 5 7 5q2 -1 4 0t4 -1q3 -2 5 -9v-13.5
t-1 -13.5v-1v-33h-1v-1h1v-5v-4zM70 605l-1 -1h1v1z" />
    <glyph glyph-name="underscore" unicode="_" horiz-adv-x="150" 
d="M92 31h25h6l2 -2q0 -1 -2 -3q-2 0 -3.5 -1t-3.5 -1h-4q-8 1 -16.5 0t-16.5 -2q-6 -1 -12.5 -0.5t-12.5 -1.5q-5 -1 -11 -1h-11h-4q-3 0 -3 2q0 3 2 3q3 2 5.5 3t5.5 1q6 -1 11.5 0t10.5 2q9 2 17 1.5t15 -0.5z" />
    <glyph glyph-name="grave" unicode="`" horiz-adv-x="120" 
d="M83 630q-6 0 -10 3q-8 4 -14.5 8t-14.5 7q-5 2 -8.5 5t-8.5 5q-4 2 1 4q5 4 15 2q13 -4 24 -9.5t22 -12.5q2 -1 5 -4q2 -4 0 -4q-3 -2 -5.5 -3.5t-5.5 -0.5z" />
    <glyph glyph-name="a" unicode="a" horiz-adv-x="451" 
d="M111 324q4 5 8 8t9 6q3 3 8 2q13 0 5 -10q-5 -8 -11 -16.5t-11 -16.5q-11 -17 -23 -34t-23 -35q-8 -14 -15.5 -27.5t-14.5 -28.5q-5 -11 -10 -22.5t-9 -23.5q-3 -8 -5.5 -16.5t-3.5 -17.5q-2 -7 -3 -13.5t-1 -14.5q0 -15 6 -30q3 -8 10.5 -13t15.5 -5q6 0 14 3
q18 4 36 15q11 7 22.5 14t22.5 15q8 6 15.5 11.5t15.5 11.5q9 8 18.5 15.5t19.5 15.5q5 4 9 8t9 8l18 16t19 16q6 5 11.5 10t10.5 10q11 9 22 18.5t22 19.5q4 3 7.5 7t8.5 7q6 5 11.5 10t11.5 10q9 8 17.5 15.5t17.5 15.5q4 3 7.5 6t7.5 7q10 8 16 13.5t16 13.5q3 3 6 3
t6 -1q3 0 0 -3q-2 -2 -2.5 -3t-2.5 -2l-12 -10.5l-12 -10.5q-9 -8 -18 -14.5t-17 -14.5q-4 -4 -8 -7t-8 -7q-7 -6 -13 -11.5t-14 -11.5q-4 -3 -7.5 -6.5t-8.5 -7.5q-6 -6 -12.5 -11.5t-12.5 -11.5l-20 -18t-21 -18q-5 -5 -10.5 -9.5t-10.5 -9.5q-8 -5 -14 -11.5t-13 -11.5
q-5 -3 -8.5 -7t-7.5 -7q-15 -14 -30.5 -26t-31.5 -24q-14 -10 -27.5 -18.5t-27.5 -16.5q-9 -5 -18.5 -8t-19.5 -4q-11 -2 -21.5 -0.5t-20.5 7.5q-12 8 -19 25q-5 12 -4 23v11q-1 12 1.5 23.5t5.5 23.5q5 21 13.5 40.5t18.5 39.5l3 6t-3 -1q-8 -11 -17 -18.5t-18 -15.5
q-12 -11 -25.5 -21t-28.5 -18q-7 -4 -14 -5.5t-15 -2.5q-11 -2 -22.5 4t-14.5 20q-3 12 -2 21q1 14 6 28q10 21 21 38q9 14 20 25l22 22q22 22 51 39q21 13 42 20q18 6 35 5q29 -3 29 -32q0 -7 -1 -10q0 -1 2 1.5t4.5 5.5t5.5 6t4 5zM85 317q2 9 -5.5 16t-16.5 7
q-10 0 -22 -5q-17 -8 -33 -19.5t-30 -24.5q-6 -5 -11.5 -11t-10.5 -11q-8 -8 -14.5 -16.5t-12.5 -16.5q-8 -13 -15.5 -25.5t-12.5 -26.5q-3 -9 -5.5 -17.5t-1.5 -18.5q1 -8 6.5 -12.5t13.5 -1.5q11 2 20 7t18 11q17 13 34 26.5t32 29.5l18 18q5 5 9.5 10t8.5 12
q6 10 11.5 20t9.5 21q2 7 5.5 14t4.5 14z" />
    <glyph glyph-name="b" unicode="b" horiz-adv-x="462" 
d="M105 247h-5.5t-0.5 -5q0 -12 -7 -30.5t-19.5 -40t-28.5 -42t-34 -36t-36 -22t-35 -0.5q-15 6 -18.5 25.5t1 47t16.5 60.5t29 66q33 63 75.5 123t86.5 110.5t83.5 88t66.5 54.5q17 11 24.5 13.5t16.5 -1.5q14 -5 1 -34t-44.5 -70t-77.5 -88t-97 -89q-28 -23 -41.5 -34
t-19.5 -15.5t-8 -6.5t-7 -8q-6 -5 -16 -21t-21 -38.5t-21.5 -47.5t-17.5 -49.5t-8 -44.5t7 -31q5 -8 15.5 -3.5t15.5 8.5q35 25 56 53t32.5 51.5t15 39.5l3.5 16q0 3 -3 3q-5 0 -13 1.5t-16.5 4.5t-15 7.5t-9.5 10.5q-7 15 2 25t23 11t28 -10.5t17 -41.5q0 -4 4 -4
q54 0 93 4.5t77 13.5t82.5 24t110.5 36q1 1 4 2t5 -2q2 -4 -2.5 -5.5t-11.5 -3.5q-62 -23 -109.5 -38t-88 -23.5t-78.5 -11.5t-81 -2zM50 349q13 8 36 27.5t50.5 45.5t56.5 56t54 60t42.5 57.5t22.5 47.5q1 5 -4.5 2t-13.5 -9.5t-16.5 -14t-13.5 -12.5q-21 -19 -45 -45
t-48 -54.5t-46.5 -57t-39.5 -51t-26.5 -37t-8.5 -15.5zM87 261q-3 25 -22 36q-8 4 -15.5 0.5t-9.5 -10.5t4 -15t27 -13q4 -1 7 -1.5t7 -1.5q2 0 2 5z" />
    <glyph glyph-name="c" unicode="c" horiz-adv-x="400" 
d="M-68 269q27 35 58 53.5t54 20t32.5 -14t-4.5 -49.5q-3 -8 -10.5 -7.5t-5.5 5.5q7 14 9 21.5t1 21.5q-1 5 -4.5 9.5t-8.5 5.5q-14 4 -40 -17t-50 -54.5t-39 -74t-6 -75.5q7 -30 30.5 -35t58.5 7.5t80 38.5t95.5 59.5t104.5 70.5t108 70q3 2 5.5 4t6.5 2q2 0 3.5 0.5
t2.5 -1.5t-0.5 -2.5t-2.5 -1.5q-65 -43 -106 -70.5t-67.5 -45.5t-43 -29.5t-31.5 -21.5t-33.5 -21.5t-48.5 -29.5q-47 -28 -82.5 -35t-59.5 1t-36.5 28.5t-13 48t10 58.5t33.5 60z" />
    <glyph glyph-name="d" unicode="d" horiz-adv-x="483" 
d="M36 197q-3 -2 -12 -11t-21.5 -19t-27.5 -18t-28 -8q-8 0 -19 2t-16 16q-5 16 0 38.5t17.5 46t31 46t41 40t47.5 27t50 7.5q8 -1 12.5 -4.5t6.5 -6.5t3 -4t3 2q11 17 35 49t54.5 69.5t64 75t65 66.5t57 43.5t39.5 5.5q17 -11 5.5 -40t-39.5 -66.5t-67.5 -78.5t-78 -75
t-70.5 -56t-45 -23q-1 0 -1 -0.5t-1 -0.5q-3 -5 -19 -32t-36 -61.5t-38 -70t-25 -57.5q-11 -38 -6 -59t22.5 -26t45.5 6t62 37q18 13 50.5 41t71.5 61.5t80 68t74.5 60.5t56 39t24.5 4q0 -1 -1 -2q-32 -15 -69 -43.5t-76.5 -62t-79 -69.5t-77 -67t-70.5 -52.5t-58 -27.5
q-37 -8 -54 6.5t-19 41.5t7 62.5t25 69.5q1 2 2 4.5t1 4.5l1 1q2 0 0 2zM-67 161q1 -11 10 -12t21.5 5t27 16.5t27.5 22.5t23 23.5t13 18.5q1 4 7 15t14.5 25t18 29.5t17.5 27.5q5 8 -1 16t-15 10q-15 4 -33.5 -5.5t-37.5 -26.5t-36.5 -39.5t-30.5 -45.5t-20 -44.5t-5 -35.5
zM432 647q0 5 -1 5.5t-6 -1.5q-22 -11 -51 -38t-59 -62t-59 -72t-52 -67.5t-36 -49.5t-12 -18q-2 -2 0 -2q0 -2 2 0t4.5 2.5t4.5 2.5q8 4 18 11t19 13.5t16 11.5t9 7q24 19 52.5 46t55.5 57.5t50 62t36 60.5q3 7 6 15t3 16z" />
    <glyph glyph-name="e" unicode="e" horiz-adv-x="419" 
d="M74 354q25 -2 31.5 -17.5t-0.5 -36.5t-25 -43t-41 -37.5t-49 -19.5t-48 11q-2 1 -2 -1q-10 -19 -18.5 -43t-11.5 -48t1.5 -44t19.5 -29t42 -4t70 30q19 11 41.5 27t47 35t49.5 38.5t48 37.5q17 13 43.5 31t55.5 36t58 34t51 27q4 -3 2 -6t-7.5 -7t-12.5 -7t-11 -6
q-82 -45 -144.5 -90.5t-112 -83.5t-90.5 -66.5t-79 -38.5q-4 -1 -13.5 -2.5t-12.5 -1.5q-44 2 -62 28t-16 62.5t20 79t46 78t62 57.5t68 20zM-18 205q19 0 41 12.5t39.5 31.5t27.5 39.5t7 37.5q-3 16 -16 19t-30.5 -5.5t-37.5 -27t-39 -45.5q-8 -11 -14.5 -22t-13.5 -22
q-2 -3 7.5 -10.5t28.5 -7.5z" />
    <glyph glyph-name="f" unicode="f" horiz-adv-x="412" 
d="M431 335q3 -5 -2 -7q-20 -13 -51 -29.5t-68 -33t-76.5 -32t-75.5 -26.5t-66 -16t-48 0q8 -21 8 -52.5t-7.5 -69t-21 -78t-32 -78.5t-41 -71t-47.5 -55q-25 -25 -55 -27t-48 28q-15 27 -15 65t10 82t27.5 90t38.5 89.5t43.5 80t41.5 61.5q12 20 34.5 49t50.5 61t59 63.5
t61 56t56.5 38.5t44.5 12q5 0 7.5 -4t3.5 -9q0 -15 -18.5 -46.5t-50.5 -70t-76.5 -79.5t-96.5 -75q-12 -9 -24 -17l-24 -16l-17 -7q-7 -7 -21.5 -33t-30 -56t-28 -56t-14.5 -32q-31 -69 -43 -123.5t-9.5 -89t18.5 -48t40 -1.5t55 51t64 109q8 17 18.5 43.5t19 55.5t13.5 57
t4 48q1 0 1 5t-1 11t-1.5 11.5t-1.5 6.5q-1 12 -7 23q-8 3 -12 5.5t-9 7.5q-8 8 -6.5 13.5t8 6t14.5 -5t13 -20.5q20 -7 56.5 0.5t79.5 22.5t87 34.5t80 36.5t59 29l23 12q2 2 6 -1zM28 205q-3 6 -5.5 8t-5.5 4l2 -2.5t4 -4.5t3.5 -4t1.5 -1zM11 297q-3 -5 -11 -16
t-16.5 -23t-15 -22t-6.5 -11q9 2 42 24.5t73.5 57t81.5 77t67 85.5q22 41 20 52t-19 1.5t-45.5 -35t-59.5 -58t-61 -68t-50 -64.5z" />
    <glyph glyph-name="g" unicode="g" horiz-adv-x="388" 
d="M399 331q2 -2 0 -5q-2 -4 -3 -5q-12 -12 -48 -45.5t-92.5 -80.5t-132.5 -105t-169 -119q-2 -1 -11 -21.5t-24.5 -52.5t-36 -71.5t-44.5 -79t-51 -74.5t-54.5 -58t-55.5 -30.5t-55 9.5q-10 5 -15 16.5t-5 18.5q0 53 30.5 99t77 86t101.5 75.5t105 67.5q2 1 2.5 1.5t3.5 6
t9 18.5t17.5 38.5t29.5 67t45 104.5q-5 -8 -11 -15.5t-12 -14.5q-30 -40 -54.5 -53t-40 -8t-22 24t-1.5 43q6 30 24 60.5t41.5 56t49.5 43t48 19.5q14 1 21 -3t9.5 -10t3 -12t0.5 -8q7 16 11 25t6.5 12.5t4.5 3t7 -1.5q3 -1 5.5 -1.5t0.5 -8t-10 -27t-25 -59t-45 -103
t-70 -158.5q-1 -2 -2 -4.5t0 -4.5q10 5 35 22t59 43t75 58t84 67.5t85.5 71.5t79.5 70q1 1 6.5 6t8.5 7q2 0 4 -1zM-36 134q10 10 22 24t24 30t23.5 33.5t19.5 34.5q3 8 5.5 16.5t4.5 17.5q1 7 2 10.5t1 6.5t-0.5 6.5l-1.5 10.5q-4 21 -25.5 13t-47.5 -34.5t-50 -65.5
t-32 -80q-8 -39 7 -48t48 25zM-351 -410q29 0 60.5 26t60.5 64.5t55 84t45.5 84.5t30.5 65.5t11 28.5q-1 -1 -5 -3q-42 -27 -90.5 -58.5t-92 -68t-74.5 -78.5t-38 -91q0 -3 1 -12t5 -18.5t11.5 -16.5t19.5 -7zM-87 -57q2 0 1.5 0.5t-1.5 0.5v-1zM-39 -13l-1 -1h1v1z" />
    <glyph glyph-name="h" unicode="h" horiz-adv-x="417" 
d="M132 329q13 -1 10.5 -20t-14 -49.5t-30 -69t-36 -79t-31.5 -79t-18 -69.5q-5 -30 1 -38t19 -1t31.5 25t37.5 40.5t37.5 45.5t31.5 39q46 57 88 102.5t76 78.5t58 53.5t35 26.5q1 1 3 0t3 -2t0 -1.5t-1 -1.5q-3 -4 -6.5 -6.5t-6.5 -5.5q-86 -74 -149.5 -145.5
t-110.5 -128.5t-80 -94t-57 -40q-25 -3 -30 24q-6 25 2 60t23 73t34 77.5t36 73.5t28.5 60.5t11.5 40.5q0 6 -11.5 -3t-29 -25.5t-37 -39t-34.5 -43.5q-49 -68 -76.5 -111.5t-42.5 -67.5t-22.5 -31t-15.5 -1q-5 3 -1 23.5t15 51.5t27.5 70t37.5 79q18 34 28 52t19.5 33
t22 34.5t35.5 57.5q77 117 140 180t102 83t49 2.5t-17 -60.5q-21 -33 -50.5 -66.5t-62.5 -65t-67 -60t-64 -52.5q-11 -9 -17.5 -13t-10.5 -7t-7 -6t-6 -9q-26 -45 -45 -79t-34.5 -64t-29.5 -60.5t-30 -67.5v-2q-1 -1 12.5 19.5t35 51.5t49 68t54 68t50.5 51.5t38 19.5z
M103 434q-26 -38 -37.5 -55t-12.5 -21t6 2t19 15q26 20 56 45t59 52.5t55 56t45 57.5q14 20 23 43q13 33 -2.5 31t-47.5 -30.5t-75.5 -79.5t-87.5 -116z" />
    <glyph glyph-name="i" unicode="i" horiz-adv-x="438" 
d="M-55 111q-12 6 -18 17.5t-7 26t1.5 30t7.5 27.5q8 21 19 39.5t21.5 34.5t19 27t11.5 17t10 7.5t13.5 0.5t10 -4.5t0.5 -8.5q-9 -13 -15 -21.5t-11.5 -16.5t-12 -18t-16.5 -25q-8 -13 -16.5 -27.5t-14 -29.5t-7 -29.5t4.5 -27.5q7 -16 24.5 -18t40 4.5t46.5 17.5t43 21
q12 6 24.5 11.5t24.5 12.5q16 9 32 17.5t32 17.5q13 7 35 18.5t48 24.5l53 26.5t49 25t36 18.5l14 7q5 2 10.5 -1t0.5 -5q-131 -65 -217.5 -111.5t-143.5 -74t-92 -35.5t-61 4zM36 365q-9 4 -6 10.5t11 20.5q4 6 10 8.5t11 2t8 -3.5t1 -7q-2 -3 -3.5 -6.5t-3.5 -6.5
q-5 -6 -9 -14.5t-19 -3.5z" />
    <glyph glyph-name="j" unicode="j" horiz-adv-x="315" 
d="M43 397h2q13 -2 6 -11q-3 -5 -6 -9l-6 -8q-2 -3 -6 -4l-8 -2t-6 2.5t0 7.5q5 12 10 18q4 6 14 6zM336 337q-2 2 -2 1.5t-2 -0.5q-3 -2 -12 -10t-10 -9q-37 -35 -80.5 -72.5t-88 -75t-87.5 -72t-79 -62t-62 -46t-36 -23.5q-1 2 0 4.5t2 4.5q40 96 67.5 160t44 103.5
t24.5 59.5t10 27.5t-0.5 8t-6.5 1.5l-6 1.5t-3.5 -1.5t-4 -7t-6.5 -15q-41 -97 -69 -162.5t-46 -107t-27.5 -63.5t-14.5 -31.5t-6 -11t-2 -2.5q-50 -33 -104.5 -69t-100 -77.5t-75.5 -88t-30 -98.5q1 -7 6 -18.5t14 -16.5q27 -16 55 -8.5t55.5 31t54 59t50 75t43.5 79.5
t35 72.5t24 53t11 21.5q91 63 170 124.5t140 113t100.5 88t51.5 49.5q1 1 3 5q2 2 0 5zM-430 -433h-2q-8 1 -18.5 10t-13.5 20q-2 8 -2.5 14t-0.5 9q1 3 1 8q2 11 5 23t10 25q14 32 43 65q22 26 50 50t58 46t60 42l57 38h1q2 1 2.5 2t2.5 2q4 2 6 2q-1 -3 -12 -30.5
t-30.5 -67t-44.5 -84.5t-53.5 -83.5t-59 -64.5t-59.5 -26zM-170 -76h-1q0 1 1 1v-1zM-124 -34l-1 1q1 1 2 1q-1 -1 -1 -2z" />
    <glyph glyph-name="k" unicode="k" horiz-adv-x="466" 
d="M-88 139q5 3 8.5 8t7.5 10q60 76 107 115.5t78.5 52.5t46.5 5t12 -26t-25 -41.5t-65 -41.5q-30 -12 -48.5 -13.5t-29 -4t-13.5 -13.5t0 -43q2 -24 9 -41t15.5 -27.5t17 -14.5t13.5 -4q3 0 12.5 -1t28.5 4.5t49.5 21t76.5 50.5q14 10 37 29t50.5 41t56 45t54 42t44.5 31
t28 12q3 0 1 -2q-3 -5 -6.5 -6.5t-8.5 -4.5q-40 -26 -79.5 -57t-77.5 -62t-73.5 -60t-68.5 -50q-42 -28 -78.5 -37.5t-63.5 0.5t-42 39.5t-15 80.5q0 4 1.5 6.5t-0.5 7.5q-3 -3 -10 -10.5t-14 -16t-12.5 -15.5t-5.5 -8q-29 -37 -43.5 -57t-21.5 -28.5t-10.5 -9.5t-9.5 0
q-7 0 5.5 29t38.5 76t63.5 106.5t81 120.5t91.5 119t94 102q36 34 62.5 51.5t43.5 23t25 0.5t9 -14q2 -25 -23 -66.5t-67.5 -86.5t-97.5 -87.5t-113 -69.5q-5 -2 -8.5 -3.5t-11.5 -12.5l-40 -60t-41 -62t-32 -49.5t-13 -22.5q-4 -1 -4 -6q-2 0 -2 -2q-1 0 -1 -1v0l1 1
q2 0 2 2q4 1 4 6zM59 358q47 25 93 58q39 28 82.5 67.5t77.5 89.5q19 27 27 51.5t5 35.5q-2 5 -5 5t-15 -8q-25 -15 -54.5 -43t-59.5 -61t-58.5 -67.5t-49.5 -63t-33 -46.5t-10 -18zM138 324q-21 -5 -46 -22t-47 -36.5t-37.5 -36t-16.5 -19.5q3 0 3.5 0.5t2.5 1.5
q55 4 90 23.5t51.5 40.5t15.5 36.5t-16 11.5zM-97 127v-1q0 -1 1 0z" />
    <glyph glyph-name="l" unicode="l" horiz-adv-x="447" 
d="M46 14q33 17 72 43t78.5 55.5t78 61t72.5 61t61 54.5t43 41q5 5 10 4t2 -4q-18 -17 -47 -44t-65.5 -59t-78 -66.5t-85 -66.5t-86 -59t-80.5 -44.5t-70 -22t-53 7.5t-26 33t-3 32q6 53 28.5 107.5t54 107t68 101.5t71.5 90q79 94 134 140.5t87 58.5t40.5 -3.5t-4.5 -44.5
q-13 -27 -44.5 -69.5t-79 -93t-110 -104t-137.5 -101.5q-4 -3 -15.5 -20t-25 -41.5t-26 -54t-19 -56t-4 -48t19 -30.5t50 -2t89.5 36zM-18 243q2 0 2 2q1 0 17.5 11t43 31t60.5 47.5t70 61.5t70.5 73t63.5 82q4 7 10.5 16.5t12.5 21t10 23t3 22.5q-1 12 -13 8t-28.5 -15.5
t-32.5 -25.5t-25 -22q-22 -20 -49.5 -51t-56 -66.5t-56 -72t-49.5 -67t-36 -51.5t-15 -26q-2 0 -2 -2h-1v-1z" />
    <glyph glyph-name="m" unicode="m" horiz-adv-x="573" 
d="M143 331q-6 -1 -14 -7q-47 -32 -85 -67.5t-67 -65t-49 -46.5t-31 -12q-5 2 -8.5 7t-1.5 10q8 38 28.5 68.5t37.5 51.5q25 32 37.5 47t18.5 21t9 5.5t8 -0.5q4 0 6 -3q0 -1 -0.5 -1.5t-6 -7.5t-19 -24t-39.5 -51q-11 -15 -23.5 -34t-22 -36t-14 -29.5t-1.5 -14.5
q1 -1 6.5 3t19 16.5t37.5 35.5t63 60l11.5 10t28 23.5t34.5 27.5t32 22q4 2 7.5 2.5t7.5 1.5q6 0 13 -5q5 -4 0.5 -16.5t-12.5 -27.5t-16.5 -28.5t-11.5 -19.5q-1 0 -1 -2q-1 -1 -2 -0.5t1 -1.5v2q2 0 2 2q3 0 4 1q12 10 32.5 27t43 32.5t44.5 26t38 9.5q12 -2 14 -15
q1 -11 -11 -33.5t-30 -52t-39 -62.5t-38.5 -65t-29 -60.5t-9.5 -47.5q1 -14 20.5 -6.5t50.5 29.5t70 54t79.5 67.5t79.5 70t69.5 60.5t49.5 40t20 9q0 -2 -2 -4q-5 -3 -29.5 -25t-61 -54t-80 -70.5t-86 -74t-80 -63.5t-61.5 -40q-29 -15 -43 -8t-15 22q-1 24 12 58t33 70.5
t42.5 71.5t39.5 62.5t24 43t-3 13.5q-16 -4 -38.5 -18.5t-45 -32t-42 -34t-29.5 -23.5q-10 -8 -19 -4.5t-7 12.5t5.5 17.5t8.5 16.5q12 21 19.5 33t11 18t4.5 8.5t1 4.5h1v1q0 -1 -1 -1z" />
    <glyph glyph-name="n" unicode="n" horiz-adv-x="407" 
d="M416 331q4 -2 0 -6l-15 -14t-40 -36.5t-56.5 -52.5t-65.5 -62q-48 -46 -81.5 -76.5t-55 -50t-33.5 -29.5t-18 -14q-5 -4 -9.5 -4.5t-6.5 -0.5t-8 2q-17 7 -19 24q-1 17 2.5 32.5t9.5 31.5t13.5 31.5t15.5 31.5q5 10 11.5 20t12.5 20q14 21 27 41.5t27 41.5q5 8 9 16t7 17
q2 3 1.5 5.5t0.5 5.5q0 3 -4 3q-17 -5 -28 -12q-14 -9 -27.5 -18t-26.5 -19q-7 -5 -13 -10.5t-13 -10.5q-10 -8 -19 -17t-19 -17q-8 -7 -14.5 -13.5l-13.5 -13.5q-8 -8 -15.5 -16.5t-15.5 -16.5l-18 -20t-17 -20q-8 -11 -16.5 -22t-16.5 -22q-5 -6 -9 -12.5t-9 -12.5
q-5 -5 -10 -6q-5 -2 -11 2q-2 1 -1.5 2.5t0.5 3.5q2 6 4.5 12t5.5 12q7 14 13.5 27.5t14.5 27.5q10 17 19.5 33t20.5 33q12 20 24.5 39.5t25.5 39.5q9 14 18.5 29t19.5 30q4 5 7 11t7 11q3 6 9 6q8 2 15 -1q3 -4 1 -6q-2 -7 -4 -9q-8 -12 -15 -23.5t-15 -22.5
q-8 -14 -16.5 -26.5t-16.5 -26.5t-16.5 -26.5t-16.5 -26.5q-5 -9 -10.5 -18.5t-10.5 -18.5q-5 -7 -8 -14q-1 -1 -1 -3q1 0 4 3q5 8 11.5 13.5t11.5 12.5q11 12 22 23l22 22l22 20t22 19q8 7 16.5 13.5t16.5 12.5q16 11 31.5 22.5t33.5 19.5q5 2 9.5 4t9.5 4q10 2 24 -1
q7 -1 9 -11q1 -6 -0.5 -11.5t-3.5 -11.5q-6 -14 -13.5 -27.5t-15.5 -26.5q-7 -11 -13 -21.5t-13 -21.5q-5 -8 -10 -16.5t-10 -17.5l-9 -15q-8 -14 -15 -27t-13 -27q-5 -11 -9.5 -22.5t-7.5 -23.5q-4 -13 -3 -28q0 -7 4 -10l1 -1t4 -1q2 1 10.5 7t29.5 24.5t58 52.5t97 91
q33 32 64.5 61t55.5 51.5t39 36l15 13.5q3 3 6 0zM-100 123q1 0 1 1q-1 0 -1 -1v0zM-99 124q2 0 2 2q-2 0 -2 -2z" />
    <glyph glyph-name="o" unicode="o" horiz-adv-x="482" 
d="M95 348q23 -9 31.5 -29t6 -45.5t-13.5 -53t-26 -51.5q-5 -8 -7.5 -11.5t-3.5 -5t-1 -2v-1.5q3 -1 39 4.5t98 31.5q34 15 77.5 37.5t83.5 45t71.5 41.5t42.5 25q5 2 8.5 0t-0.5 -4q-41 -27 -88 -55t-94.5 -52.5t-94 -43.5t-86.5 -28q-35 -8 -46.5 -8t-15 -1t-7 -7
t-22.5 -26q-17 -16 -38.5 -29t-44.5 -11q-27 2 -37 21t-8.5 41.5t11 43.5t19.5 28q4 2 2 4q-19 24 -9 53t35 52t58 34.5t60 1.5zM-35 199q2 -5 3 -7t4 -5q11 -15 23.5 -22.5t24.5 -10.5t23 -4t18 -2q3 0 14.5 17t23 41.5t18.5 52.5t0 50q-8 24 -24.5 30t-36.5 -1.5
t-40.5 -24t-35 -37t-19.5 -41.5t4 -36zM-62 107q0 -2 1 -6.5t3.5 -9.5t6.5 -9.5t12 -5.5q11 -2 24.5 4.5t25 15t19.5 16.5l8 8q3 3 7.5 7t7.5 8t3.5 6.5t-3.5 1.5q-8 -1 -21 2t-25.5 8t-23.5 11.5t-16 14.5q-3 5 -5 1.5t-11 -22.5q-6 -12 -9.5 -24.5t-3.5 -26.5z" />
    <glyph glyph-name="p" unicode="p" horiz-adv-x="503" 
d="M526 341q3 1 6 0t0 -8q0 -1 -23.5 -9t-64 -23.5t-96 -38.5t-119.5 -53q-36 -17 -58 -26.5t-35 -15t-18 -8t-8 -4.5t-5.5 -5t-9.5 -10q-35 -34 -67.5 -50t-60 -20.5t-47.5 -1t-30 9.5q-2 2 -3.5 -1.5t-7.5 -15.5q-59 -111 -100 -190t-70.5 -130.5t-50 -77.5t-38.5 -30
q-22 -6 -23.5 17.5t13.5 65.5t44 98.5t68 117.5t86.5 122t98.5 113q3 3 5 6.5t6.5 11.5t12 21.5t19.5 35.5q3 6 12.5 23t20.5 35.5t21.5 35t15.5 22.5q8 9 18 5.5t6 -10.5q-3 -5 -15.5 -25t-25.5 -42t-23 -40.5t-10 -20.5q3 1 21.5 16t45 30.5t56.5 26t57 1.5
q17 -5 19.5 -20t-3.5 -34t-17.5 -38.5t-22.5 -33.5q94 46 156 73.5t104.5 44t74 27t65.5 23.5zM-117 122q-11 -7 -36.5 -37.5t-56.5 -75t-64.5 -97.5t-60.5 -103.5t-43.5 -94t-13.5 -68.5q0 -7 1 -7q3 -1 8.5 5.5t12 14.5t11.5 15.5t7 9.5q15 21 32.5 52t35.5 65t34 66
t28 55q18 36 27.5 54t13 25l4 8t2 3.5t5 9.5t14.5 28q5 10 12 22t13 22.5t10 18t4 9.5zM-105 86l-1 -1q0 -1 -1 -1q48 -17 88 -2t83 54q-2 1 -22 -7.5t-47 -18.5t-55 -18t-45 -6zM29 255q-30 -20 -45 -34.5t-31 -26.5q-5 -5 -9 -12t-10 -18.5t-14.5 -28t-23.5 -40.5
q3 -2 12 -0.5t20.5 4.5t23 7t19.5 7q15 4 34 11.5t36 14.5t29 12.5t14 7.5q19 19 33 41t20.5 41.5t4.5 34t-14.5 18.5t-36.5 -4.5t-62 -34.5z" />
    <glyph glyph-name="q" unicode="q" horiz-adv-x="528" 
d="M50 205q-34 -32 -61.5 -45t-46 -12t-27.5 13t-6 29q6 35 22.5 64.5t38.5 51t46 35t46 16.5t39.5 -5.5t24.5 -30.5q2 -8 1.5 -13.5t-0.5 -9.5l7.5 10t17.5 23.5t21 26.5t18 19q8 8 15 4t3 -8q-20 -28 -34.5 -47t-28 -36.5t-27 -36.5t-31.5 -45t-42.5 -62.5t-58.5 -89.5
q-2 -4 5 -7q7 -4 8.5 -7.5t4.5 -4t13 3.5t35 15q29 13 72.5 36t92 51t99 58.5t94.5 57t77.5 46.5t49.5 29q5 3 11.5 2.5t3.5 -5.5q-1 -1 -26 -16t-64 -38.5t-87.5 -52t-96 -56.5t-89 -51.5t-66.5 -37.5q-42 -22 -65.5 -31.5t-34.5 -13.5t-13 -5t0 -6q16 -52 11.5 -106.5
t-22 -102.5t-42.5 -84.5t-49.5 -52.5t-44 -7t-25.5 53q-3 24 2 52t14 56.5t21 55.5t23 50q18 38 28 56t13.5 24.5t2.5 7t-5 3.5q-6 5 -6 10t4 9t10 6t12 2q4 0 7 4.5t12.5 21t30 49t61.5 88.5q1 1 1 5q1 0 -7.5 -7t-12.5 -11zM-57 39q-1 -1 1 -6q3 -5 7 2.5t6 12.5
q-2 2 -7 -1.5t-7 -7.5zM-1 26q-11 -4 -21 -3.5t-13 -5.5q-10 -18 -24.5 -44.5t-29 -58t-28 -64.5t-21 -64t-7 -57t12.5 -42q10 -13 32 -1t45 44.5t42.5 83t24.5 115.5q3 42 -3 70t-10 27zM114 288q2 10 -0.5 21t-8.5 20t-15 13.5t-20 1.5q-28 -9 -54 -34t-45 -53.5
t-28.5 -55t-4.5 -36.5q4 -8 8 -7t15.5 2.5t34.5 15.5q16 10 35.5 27t36 34t28.5 30t14 16zM-25 29q13 2 20 5q-1 3 -2.5 4.5l-3.5 3.5q-7 8 -9 2t-7 -12q-3 -3 2 -3z" />
    <glyph glyph-name="r" unicode="r" horiz-adv-x="482" 
d="M1 -25q0 31 20.5 78t47.5 99.5t55 104.5t43 93q5 15 0.5 19.5t-15 2.5t-25.5 -8t-30.5 -13.5t-29.5 -14.5t-23 -9q-31 -8 -45.5 5t-9.5 39q5 29 19.5 52t30.5 36.5t29 16t14 -9.5q1 -7 -2.5 -18.5t-9 -23t-10.5 -21.5t-8 -14q-10 -18 -17.5 -27.5t-11 -14t-4 -6t3.5 -3.5
q8 -5 26.5 2t40.5 17.5t43 18.5t34 4q8 -2 15 -8t7 -22q0 -14 -17.5 -48.5t-41 -78.5t-49 -91.5t-41 -87.5t-16 -65.5t24.5 -25.5q15 4 29.5 12t33 23.5t45 40t66 62t94.5 89.5t132 121q15 13 24 20.5t14.5 10.5t9 3t6.5 -2q-2 -4 -3.5 -4.5t-3.5 -2.5q-89 -76 -153 -136.5
t-111 -106t-81.5 -77.5t-64.5 -51q-35 -21 -60 -13t-25 33zM15 353q2 -2 11.5 11.5t20 32.5t18 39t6.5 31q0 5 -4 1q-5 -5 -10 -9.5t-9 -10.5q-13 -16 -20.5 -32t-11 -29.5t-3.5 -23t2 -10.5z" />
    <glyph glyph-name="s" unicode="s" horiz-adv-x="396" 
d="M415 333q1 -2 -1.5 -5.5t-24 -17.5t-70.5 -44t-140 -85q-61 -36 -129 -83q-22 -15 -27 -19.5t-4 -13t2.5 -28.5t-7.5 -66q-9 -44 -27.5 -68.5t-38.5 -32t-37 0t-23 28.5q-5 19 1 39t18 39t27 36t29 30t23.5 21t9.5 10q1 2 0 4t0 4q-4 4 -3.5 8.5t-1.5 9.5q0 3 -2 15
t-4 25.5t-4 24.5l-2 11q-12 55 -3.5 93t26 62t39 35.5t36.5 13.5q30 1 32 -15t-12 -36t-39 -37t-50 -17q-2 0 -3 -0.5t-2 -3.5t-1.5 -10.5t-0.5 -21.5q-1 -13 1.5 -37t6 -48t6.5 -42.5l3 -18.5q0 -4 1.5 -4t9.5 6t25 18.5t49 33.5q3 2 27.5 17.5t58.5 37.5t73 46t73 44
t56.5 32t23.5 9zM6 284q-1 -4 1 -4q10 0 26.5 7.5t31.5 20t25.5 27.5t8.5 29q-1 9 -8.5 10t-18 -4.5t-23 -16t-22.5 -24.5q-8 -10 -12.5 -22t-8.5 -23zM-58 -119q25 15 37.5 45t16.5 59t2.5 50.5t-3.5 19.5q-3 -2 -19 -16t-28 -30q-30 -35 -40 -63t-7 -45.5t15 -23t26 3.5z
" />
    <glyph glyph-name="t" unicode="t" horiz-adv-x="473" 
d="M206 742q3 0 5 4t12 22t31.5 55t65.5 104q1 2 2 2.5t3 2.5t9 2.5t9 -0.5q6 -1 2.5 -7.5t-16.5 -26.5t-35.5 -56t-55.5 -96q-3 -5 2 -3q85 3 166 14t153 25.5t132 31t103.5 30.5t68 23t25.5 10q4 2 7 -1t1 -5t-13 -6t-33.5 -11t-60.5 -20q-70 -20 -123.5 -34t-97 -24
t-81 -16t-75 -10t-79.5 -7.5t-95 -7.5q-3 0 -5 -1t-6 -7.5t-12 -22t-24 -44.5q-39 -73 -80 -157.5t-78 -170t-67.5 -167.5t-49.5 -149t-23 -114.5t11.5 -65t53.5 0.5t104 82q10 9 35 34.5t59.5 61t76 77l84 84t83 82t73.5 69.5q4 3 6 3.5t6 -1.5q1 -1 -2 -4.5t-13.5 -13.5
t-30 -29t-51.5 -50q-91 -89 -153.5 -154t-108 -111.5t-79 -77.5t-66.5 -53q-21 -14 -41 -18.5t-35.5 -0.5t-25.5 15t-11 28q0 5 -1 8.5t-1 8.5q-1 46 22.5 133t67.5 201t107 247.5t142 273.5q-38 -2 -87.5 -3.5t-104 -5t-110 -9t-104.5 -14.5t-88.5 -22.5t-61.5 -32.5
q-11 -10 -13 -17.5t-4 -2.5q-6 16 14.5 31t53.5 27.5t72.5 21.5t71.5 12q20 3 53 6t70.5 5.5t76.5 4.5t72.5 3.5t57.5 2.5t32 1z" />
    <glyph glyph-name="u" unicode="u" horiz-adv-x="520" 
d="M131 251q0 -1 -9.5 -14.5t-23 -32t-29.5 -39.5t-29 -37q-35 -41 -62.5 -55t-44.5 -8t-22.5 28t2.5 55q7 21 23 54.5t32.5 65.5t30 55.5t14.5 23.5q2 3 6 4t7.5 0.5t5 -2.5t-0.5 -6q-10 -26 -31.5 -66t-41 -80t-28.5 -73t6 -45q16 -12 41.5 6t54.5 51.5t59 76t54.5 80
t41.5 63.5t20 26q3 -1 6 -1.5t6 -2.5t-6.5 -23t-25.5 -54t-36.5 -75.5t-39.5 -88.5q-5 -12 -11 -30t-12 -38.5t-11 -41.5t-6 -39q-4 -17 -2 -39t19 -33q15 -9 39 4.5t56 42t70.5 70.5t81.5 90t89.5 100t95.5 101q5 5 8 5q2 0 5 0.5t3 -1.5q2 -2 0 -3t-4 -3
q-83 -84 -153 -166t-127 -143t-101 -90.5t-77 -8.5q-19 12 -23.5 37t0.5 58t17 70t26 72t28 64.5t23 48.5q2 4 1 5q-2 1 -7.5 -7.5t-7.5 -10.5z" />
    <glyph glyph-name="v" unicode="v" horiz-adv-x="494" 
d="M185 241q30 0 54 6t56.5 17.5t79 29t120.5 40.5q2 1 6.5 2t8.5 1t7 -0.5t3 -2.5q1 -3 -3 -3q-75 -24 -137 -47.5t-111.5 -37.5t-87 -15t-63.5 19q-2 2 -3 2t-6 -9t-16.5 -30t-35.5 -61q-30 -50 -46.5 -76.5t-25 -38.5t-12 -13.5t-6.5 -1.5q-6 1 -6 6q0 26 3 63t8.5 79
t13.5 85.5t18 81.5q2 6 8 8.5t11 0.5q8 -2 4 -9q-12 -40 -20.5 -87t-14.5 -88t-8.5 -69t-2.5 -31t-1 -7t4.5 1t19 25.5t41.5 67.5q26 43 39.5 66t18.5 33t5 11.5t-1 3.5q-8 16 -5.5 30.5t10.5 28.5q11 17 22.5 14.5t8.5 -13.5q-2 -11 -5.5 -19.5t-5.5 -15.5q-4 -8 -6 -14
q-3 -5 -0.5 -10t8 -9t12 -7.5t12.5 -4.5q7 -2 13.5 -1.5t13.5 -0.5zM118 290v-8l1 -2l2 5t4.5 12t4 14.5t1.5 13.5q0 3 -2 0.5t-4.5 -8t-4.5 -13t-2 -14.5z" />
    <glyph glyph-name="w" unicode="w" horiz-adv-x="657" 
d="M669 333q3 -3 1 -6l-7.5 -7.5t-19 -17.5t-24.5 -21.5t-25 -19.5q-23 -15 -56.5 -29.5t-71.5 -14.5q-26 0 -60.5 5.5t-69.5 22.5q-11 5 -14.5 6.5t-8.5 5.5q-2 -4 -4.5 -10.5l-5 -13t-4.5 -12t-2 -6.5q-38 -97 -76.5 -159.5t-71 -93.5t-56.5 -32t-33 26t-0.5 80t41.5 129
q-52 -82 -88.5 -122.5t-71.5 -28.5q-14 5 -17 26.5t1 52.5t13.5 67t21 69.5t22.5 61t19 40.5q3 4 8 6t10.5 2.5t8.5 -1t2 -4.5q-42 -89 -59 -148t-19.5 -94.5t5 -50t14.5 -13.5q10 1 24.5 15t32 36.5t36 50.5t36.5 57.5t34.5 58t30.5 51.5q8 8 16.5 5t6.5 -8q-1 -1 -0.5 -1
t-1.5 -4t-7.5 -15.5t-17.5 -35.5q-39 -80 -57.5 -138t-22.5 -95t3.5 -52t19.5 -9q24 12 52.5 47.5t55 81t48.5 93t34 82.5q2 11 1 12.5t-9 6.5q-24 14 -28.5 27t2 22t19 13t23.5 -1t16.5 -19.5t-3.5 -42.5q5 -4 9.5 -6.5t15.5 -7.5q19 -9 50 -18t76 -9q37 0 69 14t54 29
q12 8 25 18.5t24 21.5q13 12 26 25q2 2 5 0zM299 313q-3 10 -11 8t-12 -10.5t-0.5 -20t24.5 -20.5q1 3 2.5 15.5t-3.5 27.5z" />
    <glyph glyph-name="x" unicode="x" horiz-adv-x="324" 
d="M337 332q1 -1 0 -2q-2 -5 -5.5 -8t-7.5 -6q-9 -11 -33.5 -41.5t-57 -69.5t-69.5 -81.5t-71 -78t-61.5 -58.5t-41.5 -23q-21 0 -33 16t-17 39.5t-5 50.5t4 50q0 1 -0.5 1.5t-0.5 1.5q-1 -1 -1 -2h-1q-6 -6 -17 -18.5t-23.5 -27t-24 -27t-16.5 -18.5l-5 -5t-8.5 -8t-9 -6
t-5.5 2q-2 1 3 6t22 24t36 40t34 38t17 18q3 3 3 7q8 52 22.5 99t34.5 90q1 2 2 4.5t3 5.5q5 6 12 7t14 -3q2 -3 1 -4q0 -4 -2 -8q-20 -36 -33.5 -77t-22.5 -81q-1 -2 -1 -5q0 -1 -1 -1.5t1 -1.5l2 1q1 1 1 1.5t1 1.5q19 19 35.5 36t34 34.5t37 37.5t43.5 44q6 6 14 11
q2 2 6 2q1 -1 1 -2q-1 -1 -1.5 -2.5t-2.5 -2.5l-10 -10q-2 -2 -13.5 -14t-27.5 -28.5t-34.5 -36t-35.5 -37t-30 -30.5t-18 -17q-10 -9 -12 -26t-2.5 -44.5t2 -53.5t9 -45.5t20.5 -19.5q12 0 38 23.5t59.5 60t70 80t69.5 83t58.5 69.5t36.5 40q4 6 12 6q2 0 2 -1z" />
    <glyph glyph-name="y" unicode="y" horiz-adv-x="483" 
d="M38 -7q5 2 16 9.5t23.5 15.5t23.5 15.5t15 10.5q69 48 138 99t124 93q64 49 123 97q11 4 1.5 -7t-35.5 -33t-66.5 -53.5t-90.5 -68.5t-107 -77.5t-117 -81.5q-20 -14 -31 -20t-17 -10.5t-10 -9.5t-10 -17.5t-16.5 -34.5t-29.5 -60q-48 -95 -90.5 -152t-77.5 -86t-62 -35
t-45 1.5t-26 24.5t-5 34q9 52 39 94t74 79t99 71.5t115 71.5q2 1 3 2t3.5 6.5t8.5 18t18 38t31 66.5t47 102q17 37 26.5 56t14.5 28t6.5 12.5t3.5 9.5h1v1l-1 -1q-37 -43 -72 -79q-30 -32 -62 -61.5t-52 -42.5q-25 -14 -38.5 -10t-18.5 15q-9 23 2.5 58t31.5 69.5t41.5 61.5
t33.5 34q9 5 17 -1t4 -7t-15.5 -12.5t-26 -30t-30 -42t-27.5 -47t-18 -45.5t-1 -38q4 -15 23 -5.5t46.5 32.5t58.5 55.5t59 63.5t48.5 57t27.5 36q2 5 4 5.5t7 -1.5q4 -1 6.5 -2t-0.5 -9.5t-12 -29t-27.5 -60.5t-49 -104t-74.5 -160q-1 -2 -2 -4.5t-1 -4.5l-1 -1q1 0 1 1z
M-12 -51q-4 -2 -20.5 -12t-35.5 -22t-35 -22.5t-18 -11.5q-89 -57 -134 -109t-59.5 -91.5t-4.5 -63t31 -24.5q28 -1 59.5 24t62 63.5t58.5 84t49.5 85t34 68t12.5 31.5l1 1v1q-1 0 -1 -2z" />
    <glyph glyph-name="z" unicode="z" horiz-adv-x="511" 
d="M520 334q3 1 6 0t1 -4t-25 -21.5t-57 -45.5t-75 -58.5t-79 -61t-68.5 -53t-43.5 -33.5l-104 -79q-2 -1 -2.5 -3t1.5 -14q2 -26 -6.5 -60t-25 -70t-39.5 -71t-49.5 -61.5t-55.5 -42t-57 -13.5q-26 2 -34.5 22.5t4 55t47 80t94.5 97.5q44 39 65 55t27.5 22t5 7.5t-2.5 11.5
q-1 33 -20 61q-12 17 -29 24t-34.5 8t-32.5 -3t-23 -8q-5 -3 -8 -3q-18 1 1.5 15t82.5 58q60 43 101.5 82.5t67.5 73.5t40 62t20 47.5t7 30.5t1 12q-2 3 -1.5 7t-0.5 7q-9 22 -28 24.5t-42 -8t-47.5 -31t-44.5 -43.5t-32.5 -45.5t-11.5 -36.5q0 -4 -2 -4h-5t-4 2
q-3 4 3.5 20t20.5 37t34 44t43.5 41t49 27t50.5 4q37 -8 40 -45t-24 -89t-81.5 -112.5t-130.5 -115.5q-2 -1 -12 -7.5t-22 -14.5q-14 -10 -31 -21q3 -1 19.5 0t37 -4.5t40 -22.5t29.5 -54q2 -7 -0.5 -14t3 -6t24 14t61 46t115.5 89.5t187 145.5q21 16 33 25.5t18 14t8 5.5
t3 1zM-165 -349q19 -4 42 8.5t47 36.5t46.5 56.5t40 68t28 71t9.5 65.5v3t-5 -2.5t-17 -13.5t-36 -29q-22 -18 -52.5 -46t-58.5 -59.5t-47.5 -65t-17.5 -61.5q0 -14 6.5 -22t14.5 -10z" />
    <glyph glyph-name="braceleft" unicode="{" horiz-adv-x="375" 
d="M26 -29q-2 15 2 29.5t8 29.5q2 10 5 19.5t5 19.5q2 8 2 15t-3 15q-1 8 -9 13q-7 5 -6.5 7.5t7.5 6.5q1 1 2 1t2 1q17 7 29.5 19t22.5 27q16 25 27 54q3 6 6.5 12.5t5.5 12.5l30 66q7 15 13.5 30t13.5 29q9 19 19 36.5t21 34.5q8 11 15.5 21.5t18.5 19.5q18 16 38 25
q16 7 34 1l8 -2t6 -4q0 -1 0.5 -1t0.5 -1q-1 -1 -2 -1q-2 0 -3.5 -0.5t-3.5 0.5q-4 2 -8 2t-8 1t-8 -1.5t-7 -4.5q-23 -17 -38 -39q-11 -15 -20.5 -30.5t-17.5 -31.5q-9 -17 -16.5 -33.5t-15.5 -33.5q-5 -9 -9.5 -18.5t-8.5 -20.5q-5 -12 -11 -24t-11 -24q-5 -11 -9.5 -20.5
t-10.5 -19.5q-4 -5 -6.5 -11t-5.5 -11q-7 -12 -15.5 -22.5t-18.5 -20.5q-8 -8 -17.5 -13t-20.5 -10q-1 1 -2 0t-2.5 -1t-2.5 -2q0 -2 1.5 -2.5t2.5 -2.5q19 -14 19 -36q0 -11 -2 -22t-5 -22q-2 -10 -5 -19.5t-5 -20.5t-2.5 -22.5t0.5 -22.5t4.5 -20t8.5 -18q5 -8 15 -13
q5 -2 9 -2t9 1q4 1 7 2.5t6 3.5t6 -1q2 0 1 -3q-2 -1 -2.5 -1.5t-2.5 -1.5q-17 -10 -37 -5q-28 7 -44 36q-11 19 -9 45z" />
    <glyph glyph-name="bar" unicode="|" horiz-adv-x="80" 
d="M54 553q0 -5 0.5 -10.5t-0.5 -10.5q-1 -11 0 -21.5t0 -21.5q0 -8 0.5 -16t-0.5 -17t0 -18.5t0 -18.5q-1 -8 0 -16t0 -16q-1 -10 0 -19.5t0 -18.5q-1 -8 -0.5 -15.5t0.5 -15.5q-1 -11 -0.5 -21t-0.5 -21q0 -7 0.5 -14t-0.5 -14q-1 -9 0 -18.5t0 -18.5q-1 -7 -0.5 -14
t0.5 -14q-1 -9 -0.5 -18.5t-0.5 -19.5q0 -7 0.5 -13t-0.5 -13q-1 -9 0 -18t0 -17q-1 -13 0 -26q0 -5 -1 -9.5t0 -9.5q1 -9 0 -19q-1 -8 0 -16t0 -16q-1 -10 -0.5 -19.5t0.5 -19.5q0 -2 -0.5 -4t-0.5 -4q0 -3 -6 -5h-13q-5 0 -5 4q-2 3 0 7q1 4 0.5 7t-0.5 7q0 11 1 21t-1 21
q2 8 1 15.5t0 15.5q1 9 0 18t0 18q1 8 0 15t0 15q2 9 0.5 18t0.5 18q0 8 -0.5 15t0.5 14q1 9 0 18t0 18q1 8 0 14.5t0 14.5q1 9 0.5 17.5t0.5 16.5t0 14.5t0 13.5q1 8 0 15.5t0 15.5q2 7 1 14t0 14q1 8 0 16t0 16q1 7 0.5 13.5t0.5 12.5q1 9 0 17.5t0 16.5q1 7 0 13.5
t0 12.5q1 8 0.5 16.5t0.5 16.5q1 6 0 12t0 13q1 6 0.5 12.5t0.5 12.5q0 10 1 15q0 10 3 14q4 4 11 3q1 0 3 -2t2 -4v-17q1 -3 1 -8z" />
    <glyph glyph-name="braceright" unicode="}" horiz-adv-x="375" 
d="M349 435q2 -15 -2 -29.5t-8 -29.5q-2 -10 -5 -19.5t-5 -19.5q-2 -8 -2 -15t3 -15q1 -8 9 -13q7 -5 6.5 -7.5t-7.5 -6.5q-1 -1 -2 -1t-2 -1q-17 -7 -29.5 -19t-22.5 -27q-17 -26 -27 -54q-3 -6 -6.5 -12.5t-5.5 -12.5l-30 -66q-7 -15 -13.5 -30t-13.5 -29
q-9 -19 -19 -36.5t-21 -34.5q-8 -11 -15.5 -21.5t-18.5 -19.5q-18 -16 -38 -25q-16 -7 -34 -1l-8 2t-6 4q0 1 -0.5 1t-0.5 1q1 1 2 1q2 0 3.5 0.5t3.5 -0.5q4 -2 8 -2t8 -1t8 1.5t7 4.5q23 17 38 39q11 15 20.5 30.5t17.5 31.5q9 17 16.5 33.5t15.5 33.5q5 9 9.5 18.5
t8.5 20.5q5 12 11 24t11 24q5 11 9.5 20.5t10.5 19.5q4 5 6.5 11t5.5 11q7 12 15.5 22.5t18.5 20.5q8 8 17.5 13t20.5 10q1 -1 2 0t2.5 1t2.5 2q0 2 -1.5 2.5t-2.5 2.5q-19 14 -19 36q0 11 2 22t5 22q2 10 5 19.5t5 20.5t2.5 22.5t-0.5 22.5t-4.5 20t-8.5 18q-6 8 -15 13
q-5 2 -9 2t-9 -1q-4 -1 -7 -2.5t-6 -3.5t-6 1q-3 0 -1 3q2 1 2.5 1.5t2.5 1.5q17 10 37 5q28 -7 44 -36q11 -19 9 -45z" />
    <glyph glyph-name="asciitilde" unicode="~" horiz-adv-x="222" 
d="M96 233h9q13 0 13 -13q0 -7 -1 -11q-2 -5 -1.5 -9t0.5 -9q0 -2 1.5 -3t3.5 -3q3 -2 7 0q6 2 11.5 5t10.5 7q16 13 33 30q2 1 3 2l3 3q3 2 6 -1q2 0 1 -2q-2 -2 -3 -3.5t-3 -3.5q-5 -5 -10 -10.5t-11 -10.5q-5 -4 -9 -8t-9 -7q-20 -15 -39 -11q-7 1 -13 3.5t-9 9.5
q-5 9 -3 16q2 3 1.5 6.5t1.5 7.5q2 6 -5 4q-13 -4 -26 -14q-7 -5 -12.5 -11t-9.5 -14q-4 -6 -11 -2q-1 1 -1 3q2 4 4.5 7.5t5.5 6.5q5 5 10 10.5t12 9.5q15 10 29 15q2 1 5 0.5t5 -0.5z" />
  </font>
</defs>
</svg>
